<svg width="251" height="35" viewBox="0 0 251 35" fill="none" xmlns="http://www.w3.org/2000/svg">
<path d="M4.92578 3.68359H1.42969V6.16797H4.92578V7.32812H1.42969V11.4961H0.140625V2.52734H4.92578V3.68359Z" fill="#79665F"/>
<path d="M14.4414 7.69531H17.2305L15.7813 4.44531L14.4414 7.69531ZM20.2656 11.4961H18.9531L17.7539 8.85156H13.9414L12.8086 11.4961H11.4922L15.3477 2.47266H16.2539L20.2656 11.4961Z" fill="#79665F"/>
<path d="M35.2109 4.52734C34.1094 3.87891 33.1602 3.58984 32.1211 3.58984C30.0703 3.58984 28.543 5.05078 28.543 7.02734C28.543 9.03906 30.0156 10.4297 32.1758 10.4297C33.1875 10.4297 34.293 10.0781 35.3047 9.41797V10.8281C34.4219 11.2891 33.4648 11.6172 32.0547 11.6172C28.6875 11.6172 27.2148 9.02344 27.2148 7.14062C27.2148 4.40625 29.2813 2.41016 32.1328 2.41016C33.0547 2.41016 33.9883 2.63281 35.2109 3.14453V4.52734Z" fill="#79665F"/>
<path d="M51.2617 7.97266C51.2617 10.168 49.9453 11.6172 47.2734 11.6172C45.3789 11.6172 43.5391 10.5508 43.5391 8.10156V2.52734H44.8281V7.82812C44.8281 8.83984 44.9609 9.26172 45.3672 9.66797C45.8789 10.1797 46.5234 10.4297 47.3008 10.4297C48.2891 10.4297 48.9961 10.1172 49.4062 9.70703C49.8672 9.25 49.9727 8.58984 49.9727 7.75V2.52734H51.2617V7.97266Z" fill="#79665F"/>
<path d="M61.1523 10.3398H65.2031V11.4961H59.8633V2.52734H61.1523V10.3398Z" fill="#79665F"/>
<path d="M78.582 3.68359H75.4766V11.4961H74.1875V3.68359H71.0859V2.52734H78.582V3.68359Z" fill="#79665F"/>
<path d="M90.4062 0L88.9336 1.93359H88.2109L89.0898 0H90.4062ZM91.7227 3.68359H87.9219V6.39453H91.5898V7.55078H87.9219V10.3398H91.8398V11.4961H86.6328V2.52734H91.7227V3.68359Z" fill="#79665F"/>
<path d="M108.973 10.3398H111.797C114.715 10.3398 115.387 8.11719 115.387 7.01172C115.387 5.21094 114.242 3.68359 111.73 3.68359H108.973L108.98 2.52734H111.941C115.254 2.52734 116.715 4.89453 116.715 7.01172C116.715 9.3125 114.914 11.4961 111.953 11.4961H108.98L108.973 10.3398Z" fill="#79665F"/>
<path d="M128.922 3.68359H125.121V6.39453H128.789V7.55078H125.121V10.3398H129.039V11.4961H123.832V2.52734H128.922V3.68359Z" fill="#79665F"/>
<path d="M140.195 4.5C139.434 3.77734 138.695 3.56641 138.09 3.56641C137.262 3.56641 136.668 4 136.668 4.62891C136.668 6.35547 140.551 6.32812 140.551 9.17969C140.551 10.5898 139.484 11.6172 138.039 11.6172C137.063 11.6172 136.273 11.3516 135.527 10.7852V9.15625C136.184 10 137.012 10.457 137.891 10.457C138.891 10.457 139.352 9.82812 139.352 9.32812C139.352 7.47266 135.473 7.26172 135.473 4.80078C135.473 3.33984 136.551 2.41016 138.195 2.41016C138.879 2.41016 139.563 2.61719 140.195 3.03906V4.5Z" fill="#79665F"/>
<path d="M7.72656 19.7773C6.48047 18.5937 5.27344 18.25 4.28516 18.25C2.92969 18.25 1.96094 18.957 1.96094 19.9922C1.96094 22.8125 8.30859 22.7695 8.30859 27.4414C8.30859 29.7422 6.56641 31.4219 4.19922 31.4219C2.60547 31.4219 1.3125 30.9922 0.085937 30.0664V27.3984C1.16406 28.7734 2.51953 29.5273 3.96094 29.5273C5.59766 29.5273 6.35156 28.4961 6.35156 27.6758C6.35156 24.6406 0 24.2969 0 20.2734C0 17.8828 1.76562 16.3555 4.45703 16.3555C5.57422 16.3555 6.69531 16.6992 7.72656 17.3867V19.7773Z" fill="#79665F"/>
<path d="M23.1172 19.8203C21.3086 18.7656 19.7617 18.293 18.0586 18.293C14.7031 18.293 12.2031 20.6797 12.2031 23.9102C12.2031 27.2031 14.6172 29.4844 18.1445 29.4844C19.8047 29.4844 21.6133 28.9023 23.2695 27.8281V30.1289C21.8281 30.8828 20.2539 31.4219 17.9531 31.4219C12.4414 31.4219 10.0312 27.1797 10.0312 24.1016C10.0312 19.625 13.4102 16.3555 18.082 16.3555C19.5859 16.3555 21.1172 16.7187 23.1172 17.5586V19.8203Z" fill="#79665F"/>
<path d="M27.9844 31.2266H25.875V16.5469H27.9844V31.2266Z" fill="#79665F"/>
<path d="M39.5625 18.4414H33.3398V22.875H39.3477V24.7695H33.3398V29.332H39.7578V31.2266H31.2344V16.5469H39.5625V18.4414Z" fill="#79665F"/>
<path d="M55.5781 31.2266H53.7695L43.9531 19.9258V31.2266H41.9727V16.5469H43.6523L53.5977 27.9141V16.5469H55.5781V31.2266Z" fill="#79665F"/>
<path d="M71.3125 19.8203C69.5039 18.7656 67.9531 18.293 66.2539 18.293C62.8945 18.293 60.3984 20.6797 60.3984 23.9102C60.3984 27.2031 62.8086 29.4844 66.3398 29.4844C67.9961 29.4844 69.8047 28.9023 71.4609 27.8281V30.1289C70.0195 30.8828 68.4492 31.4219 66.1445 31.4219C60.6328 31.4219 58.2227 27.1797 58.2227 24.1016C58.2227 19.625 61.6016 16.3555 66.2734 16.3555C67.7813 16.3555 69.3086 16.7187 71.3125 17.5586V19.8203Z" fill="#79665F"/>
<path d="M82.375 18.4414H76.1523V22.875H82.1602V24.7695H76.1523V29.332H82.5664V31.2266H74.043V16.5469H82.375V18.4414Z" fill="#79665F"/>
<path d="M91.7812 19.7773C90.5312 18.5937 89.3281 18.25 88.3359 18.25C86.9805 18.25 86.0117 18.957 86.0117 19.9922C86.0117 22.8125 92.3633 22.7695 92.3633 27.4414C92.3633 29.7422 90.6172 31.4219 88.25 31.4219C86.6562 31.4219 85.3672 30.9922 84.1406 30.0664V27.3984C85.2148 28.7734 86.5703 29.5273 88.0117 29.5273C89.6484 29.5273 90.4023 28.4961 90.4023 27.6758C90.4023 24.6406 84.0547 24.2969 84.0547 20.2734C84.0547 17.8828 85.8164 16.3555 88.5078 16.3555C89.6289 16.3555 90.7461 16.6992 91.7812 17.3867V19.7773Z" fill="#79665F"/>
<path d="M108.98 18.4414H102.758V22.875H108.762V24.7695H102.758V29.332H109.172V31.2266H100.648V16.5469H108.98V18.4414Z" fill="#79665F"/>
<path d="M123.918 19.8203C122.109 18.7656 120.559 18.293 118.859 18.293C115.5 18.293 113.004 20.6797 113.004 23.9102C113.004 27.2031 115.414 29.4844 118.945 29.4844C120.602 29.4844 122.41 28.9023 124.066 27.8281V30.1289C122.625 30.8828 121.055 31.4219 118.75 31.4219C113.238 31.4219 110.828 27.1797 110.828 24.1016C110.828 19.625 114.207 16.3555 118.879 16.3555C120.387 16.3555 121.914 16.7187 123.918 17.5586V19.8203Z" fill="#79665F"/>
<path d="M133.883 29.4844C137.176 29.4844 139.609 27.0937 139.609 23.8867C139.609 20.6602 137.176 18.293 133.883 18.293C130.609 18.293 128.18 20.6602 128.18 23.8867C128.18 27.0937 130.609 29.4844 133.883 29.4844ZM133.883 16.3555C138.727 16.3555 141.781 19.7969 141.781 23.8867C141.781 27.8477 138.813 31.4219 133.84 31.4219C129.039 31.4219 126.004 27.8711 126.004 23.8867C126.004 19.8203 129.125 16.3555 133.883 16.3555Z" fill="#79665F"/>
<path d="M157.641 16.543V31.2266H156.695L145.59 18.3906V31.2266H144.449V16.543H145.422L156.5 29.375V16.543H157.641Z" fill="#79665F"/>
<path d="M168.227 30.3867C170.051 30.3867 171.59 29.7578 172.84 28.5039C174.094 27.25 174.723 25.7109 174.723 23.8906C174.723 22.0625 174.094 20.5195 172.84 19.2656C171.59 18.0117 170.051 17.3828 168.227 17.3828C166.398 17.3828 164.848 18.0117 163.582 19.2656C162.313 20.5195 161.68 22.0625 161.68 23.8906C161.68 25.7109 162.313 27.25 163.582 28.5039C164.848 29.7578 166.398 30.3867 168.227 30.3867ZM168.188 16.3359C170.352 16.3359 172.188 17.0703 173.695 18.5352C175.203 19.9961 175.957 21.7852 175.957 23.8906C175.957 25.9922 175.203 27.7734 173.695 29.2383C172.188 30.7031 170.352 31.4336 168.188 31.4336C166.023 31.4336 164.195 30.7031 162.695 29.2383C161.195 27.7734 160.449 25.9922 160.449 23.8906C160.449 21.7852 161.195 19.9961 162.695 18.5352C164.195 17.0703 166.023 16.3359 168.188 16.3359Z" fill="#79665F"/>
<path d="M185.461 23.3672L191.055 16.543H192.199V31.2266H191.059V18.2031L185.465 25.0625L179.867 18.2031V31.2266H178.727V16.543H179.871L185.461 23.3672Z" fill="#79665F"/>
<path d="M196.691 16.543V31.2266H195.551V16.543H196.691Z" fill="#79665F"/>
<path d="M207.145 30.3867C208.953 30.3867 210.504 29.75 211.793 28.4844C213.082 27.2148 213.727 25.6836 213.727 23.8906C213.727 22.0703 213.094 20.5313 211.832 19.2695C210.574 18.0117 209.031 17.3828 207.211 17.3828C205.398 17.3828 203.859 18.0156 202.59 19.2891C201.316 20.5547 200.684 22.0898 200.684 23.8906C200.684 25.6836 201.313 27.2148 202.57 28.4844C203.824 29.75 205.352 30.3867 207.145 30.3867ZM214.324 32.8477L213.055 34.3281C210.5 34.0117 208.281 33.0469 206.391 31.4336C204.309 31.2422 202.629 30.4102 201.359 28.9375C200.086 27.4609 199.449 25.7852 199.449 23.9102C199.449 21.7695 200.191 19.9688 201.68 18.5156C203.164 17.0625 205 16.3359 207.188 16.3359C209.391 16.3359 211.234 17.0586 212.723 18.5C214.215 19.9453 214.957 21.7344 214.957 23.8711C214.957 25.625 214.383 27.2422 213.234 28.7148C212.082 30.1914 210.355 31.0977 208.047 31.4336C209.734 32.5898 211.266 33.1719 212.645 33.1719C213.121 33.1719 213.598 32.9922 214.082 32.6289L214.324 32.8477Z" fill="#79665F"/>
<path d="M228.262 16.543H229.398V24.5625C229.398 26.7578 228.828 28.4531 227.688 29.6445C226.547 30.8359 225.07 31.4336 223.258 31.4336C221.449 31.4336 219.977 30.8438 218.836 29.6641C217.695 28.4883 217.125 26.875 217.125 24.8242V16.543H218.266V24.7852C218.266 26.543 218.727 27.9141 219.656 28.9023C220.582 29.8906 221.781 30.3867 223.25 30.3867C224.734 30.3867 225.941 29.8867 226.867 28.8867C227.797 27.8867 228.262 26.4688 228.262 24.6289V16.543Z" fill="#79665F"/>
<path d="M240.484 16.543V17.4961H233.609V23.3633H240.301V24.3164H233.609V30.2734H240.656V31.2266H232.473V16.543H240.484Z" fill="#79665F"/>
<path d="M249.938 17.2773V18.5234C248.66 17.7773 247.563 17.4023 246.645 17.4023C245.762 17.4023 245.027 17.668 244.434 18.207C243.844 18.7422 243.547 19.4062 243.547 20.1992C243.547 20.7656 243.723 21.2812 244.07 21.7344C244.422 22.1914 245.156 22.6289 246.27 23.0469C247.383 23.4688 248.199 23.8203 248.711 24.1016C249.223 24.3789 249.656 24.7891 250.016 25.3203C250.375 25.8516 250.551 26.543 250.551 27.3906C250.551 28.5156 250.137 29.4688 249.312 30.25C248.484 31.0273 247.473 31.4141 246.281 31.4141C245.062 31.4141 243.809 30.9883 242.52 30.1328V28.7969C243.941 29.8438 245.172 30.3672 246.219 30.3672C247.086 30.3672 247.82 30.0859 248.422 29.5234C249.02 28.957 249.32 28.2617 249.32 27.4414C249.32 26.8203 249.133 26.2539 248.762 25.7539C248.391 25.25 247.637 24.7852 246.504 24.3477C245.367 23.9141 244.555 23.5664 244.066 23.2969C243.578 23.0312 243.164 22.6523 242.824 22.1602C242.484 21.6641 242.312 21.0312 242.312 20.25C242.312 19.1719 242.727 18.2539 243.555 17.4961C244.379 16.7344 245.375 16.3555 246.539 16.3555C247.684 16.3555 248.812 16.6641 249.938 17.2773Z" fill="#79665F"/>
<path d="M100.68 7.76172V6.03516H108.977V7.76172H100.68Z" fill="#F68712"/>
</svg>
