<svg width="103" height="103" viewBox="0 0 103 103" fill="none" xmlns="http://www.w3.org/2000/svg">
<path d="M27.168 38.4102C27.0898 38.3789 26.9961 38.3594 26.8711 38.3398C26.7578 38.3242 26.6094 38.3164 26.4336 38.3164C26.2773 38.3164 26.1367 38.3242 26.0156 38.3398C25.8984 38.3594 25.8008 38.3789 25.7188 38.4062C25.6172 38.4414 25.5391 38.4961 25.4883 38.5625C25.4336 38.6328 25.4062 38.7148 25.4062 38.8086V51.0859C25.4062 51.1719 25.4297 51.2539 25.4766 51.3203C25.5234 51.3906 25.6016 51.4492 25.7031 51.4844C25.7812 51.5078 25.8789 51.5313 26.0039 51.5508C26.125 51.5703 26.2695 51.5781 26.4336 51.5781C26.6094 51.5781 26.7539 51.5703 26.8711 51.5508C26.9961 51.5313 27.0898 51.5078 27.168 51.4844C27.2695 51.4492 27.3477 51.3906 27.3945 51.3203C27.4414 51.2539 27.4648 51.1719 27.4648 51.0859V38.8086C27.4648 38.7187 27.4414 38.6406 27.3945 38.5703C27.3477 38.5 27.2695 38.4453 27.168 38.4102Z" fill="#231F20"/>
<path d="M24.9258 73.2656C24.7578 73.3047 24.6172 73.3555 24.5117 73.4219C24.4141 73.4883 24.3477 73.5625 24.3047 73.6523C24.2578 73.7422 24.2383 73.8477 24.2383 73.9688C24.2383 74.1719 24.2969 74.3242 24.4219 74.4375C24.5469 74.5508 24.7344 74.6094 24.9727 74.6094C25.1836 74.6094 25.3711 74.5586 25.543 74.4492C25.7148 74.3477 25.8945 74.1953 26.0742 73.9961V73.2109H25.5977C25.3359 73.2109 25.1094 73.2305 24.9258 73.2656Z" fill="#231F20"/>
<path d="M54.1875 72.4453C54.0742 72.3555 53.9297 72.2812 53.7461 72.2305C53.5625 72.1758 53.3086 72.1484 53.0039 72.1484H52.1211V74.293H53.2344C53.4648 74.293 53.6562 74.2656 53.8086 74.2227C53.957 74.1758 54.0859 74.1094 54.1953 74.0195C54.2969 73.9414 54.375 73.832 54.4336 73.707C54.4961 73.5781 54.5273 73.4258 54.5273 73.2617C54.5273 73.0859 54.4961 72.9219 54.4375 72.7812C54.3789 72.6484 54.2969 72.5391 54.1875 72.4453Z" fill="#231F20"/>
<path d="M53.4922 70.418C53.6211 70.3672 53.7266 70.2969 53.8125 70.2109C53.8945 70.125 53.957 70.0156 54 69.9023C54.043 69.7773 54.0625 69.6445 54.0625 69.5078C54.0625 69.3555 54.043 69.2148 53.9961 69.0977C53.9531 68.9844 53.8867 68.8906 53.8008 68.8203C53.7109 68.7461 53.5977 68.6797 53.457 68.6406C53.3086 68.5977 53.1016 68.5742 52.8438 68.5742H52.1172V70.5H52.9414C53.1719 70.5 53.3594 70.4687 53.4922 70.418Z" fill="#231F20"/>
<path d="M69.5273 70.5508C69.3398 70.5508 69.1758 70.5859 69.043 70.6562C68.9023 70.7266 68.793 70.8164 68.7031 70.9336C68.6094 71.0547 68.5352 71.1992 68.4844 71.3672C68.4492 71.4883 68.4297 71.6133 68.4141 71.7422H70.5898C70.5742 71.3867 70.4961 71.1016 70.3398 70.8945C70.168 70.6641 69.9023 70.5508 69.5273 70.5508Z" fill="#231F20"/>
<mask id="mask0_248_3815" style="mask-type:luminance" maskUnits="userSpaceOnUse" x="0" y="0" width="103" height="103">
<path d="M0 0H103V102.105H0V0Z" fill="white"/>
</mask>
<g mask="url(#mask0_248_3815)">
<path d="M51.0508 0C22.8555 0 0 22.8594 0 51.0508C0 79.2461 22.8555 102.105 51.0508 102.105C79.2461 102.105 102.102 79.2461 102.102 51.0508C102.102 22.8594 79.2461 0 51.0508 0ZM21.2109 74.4922C21.0312 74.8594 20.7773 75.1758 20.4648 75.4219C20.1523 75.668 19.7891 75.8555 19.375 75.9766C18.9648 76.1016 18.5273 76.1641 18.0625 76.1641C17.75 76.1641 17.457 76.1328 17.1875 76.082C16.9219 76.0313 16.6797 75.9687 16.4727 75.8984C16.2617 75.8203 16.0898 75.7461 15.9453 75.6641C15.7969 75.5781 15.6914 75.5039 15.6211 75.4336C15.5391 75.3477 15.4805 75.2344 15.4492 75.0938C15.4219 74.9688 15.4102 74.8008 15.4102 74.5781C15.4102 74.4297 15.4102 74.3086 15.4219 74.2109C15.4336 74.0977 15.4531 74.0117 15.4766 73.9375C15.5078 73.8438 15.5547 73.7734 15.6172 73.7266C15.6797 73.6797 15.7578 73.6562 15.8398 73.6562C15.9414 73.6562 16.0586 73.6992 16.207 73.7969C16.3164 73.8711 16.4609 73.9492 16.6328 74.0352C16.8047 74.1211 17.0117 74.2031 17.25 74.2734C17.4844 74.3437 17.7617 74.3789 18.0742 74.3789C18.2734 74.3789 18.4492 74.3555 18.6055 74.3086C18.7539 74.2617 18.8828 74.1992 18.9844 74.1172C19.0859 74.0391 19.1602 73.9453 19.2109 73.832C19.2656 73.7109 19.2891 73.5781 19.2891 73.4336C19.2891 73.2695 19.2461 73.1406 19.1602 73.0273C19.0664 72.9023 18.9414 72.7891 18.7852 72.6875C18.6172 72.5859 18.4258 72.4844 18.2148 72.3906C17.9961 72.2969 17.7656 72.1914 17.5273 72.082C17.2891 71.9727 17.0508 71.8438 16.8203 71.7031C16.5898 71.5547 16.375 71.3789 16.1953 71.1758C16.0078 70.9727 15.8516 70.7227 15.7344 70.4453C15.6172 70.1641 15.5625 69.8242 15.5625 69.4336C15.5625 68.9922 15.6445 68.5937 15.8125 68.2539C15.9766 67.9141 16.207 67.625 16.4883 67.4023C16.7695 67.1797 17.1055 67.0078 17.4844 66.9023C17.8555 66.7891 18.2578 66.7344 18.6719 66.7344C18.8867 66.7344 19.1016 66.7539 19.3242 66.7852C19.5391 66.8164 19.7422 66.8672 19.9297 66.918C20.1172 66.9805 20.2852 67.043 20.4336 67.1172C20.5937 67.1953 20.6992 67.2578 20.7578 67.3203C20.8203 67.3789 20.8594 67.4297 20.8828 67.4844C20.9063 67.5273 20.9258 67.582 20.9375 67.6484C20.9531 67.7109 20.9609 67.7812 20.9688 67.8711C20.9688 67.9531 20.9727 68.0586 20.9727 68.1758C20.9727 68.3086 20.9687 68.4258 20.9609 68.5195C20.957 68.625 20.9414 68.707 20.9258 68.7773C20.8984 68.8711 20.8594 68.9375 20.8047 68.9883C20.7617 69.0313 20.6836 69.0742 20.5703 69.0742C20.4844 69.0742 20.3828 69.0391 20.2422 68.957C20.1367 68.8906 20.0078 68.8242 19.8555 68.7539C19.707 68.6836 19.5313 68.6172 19.332 68.5586C19.1406 68.5039 18.9297 68.4766 18.6992 68.4766C18.5234 68.4766 18.3711 68.4961 18.2461 68.5391C18.125 68.5781 18.0234 68.6328 17.9414 68.6992C17.8633 68.7656 17.8125 68.8398 17.7734 68.9336C17.7344 69.0312 17.7148 69.1328 17.7148 69.2383C17.7148 69.3984 17.7539 69.5312 17.8398 69.6406C17.9336 69.7656 18.0586 69.875 18.2188 69.9766C18.3906 70.082 18.5859 70.1836 18.8047 70.2734C19.0352 70.375 19.2695 70.4805 19.5 70.5859C19.7383 70.6953 19.9766 70.8242 20.207 70.9648C20.4453 71.1094 20.6641 71.2852 20.8516 71.4883C21.0391 71.6953 21.1953 71.9414 21.3125 72.2148C21.4258 72.5 21.4883 72.8281 21.4883 73.2031C21.4883 73.6914 21.3945 74.1211 21.2109 74.4922ZM28.0977 75.625C28.0977 75.7461 28.0508 75.8398 27.9648 75.9141C27.8945 75.9648 27.7969 76.0039 27.668 76.0273C27.5625 76.043 27.4102 76.0508 27.2148 76.0508C26.9961 76.0508 26.8438 76.043 26.7383 76.0273C26.6055 76.0039 26.5117 75.9648 26.4492 75.9023C26.3984 75.8555 26.3398 75.7656 26.3398 75.625V75.543C26.1523 75.6953 25.9531 75.8242 25.7383 75.9219C25.3945 76.082 25.0156 76.1641 24.6016 76.1641C24.2695 76.1641 23.9531 76.1172 23.668 76.0273C23.3789 75.9375 23.1211 75.8008 22.9102 75.6211C22.6914 75.4414 22.5234 75.2109 22.4062 74.9453C22.2852 74.6797 22.2266 74.3711 22.2266 74.0195C22.2266 73.6445 22.3047 73.3047 22.4531 73.0195C22.6055 72.7383 22.832 72.5 23.1328 72.3125C23.4219 72.1289 23.7852 71.9961 24.2109 71.9141C24.625 71.8281 25.1133 71.7891 25.6602 71.7891H26.0742V71.5977C26.0742 71.4219 26.0547 71.2734 26.0234 71.1445C25.9883 71.0273 25.9453 70.9375 25.875 70.8594C25.8086 70.7891 25.7148 70.7344 25.5977 70.6992C25.4688 70.6602 25.3008 70.6367 25.1016 70.6367C24.8359 70.6367 24.5937 70.668 24.3867 70.7305C24.1719 70.7891 23.9805 70.8594 23.8203 70.9297C23.6523 71.0039 23.5117 71.0742 23.4023 71.1367C23.2578 71.2109 23.1406 71.2539 23.0352 71.2539C22.9453 71.2539 22.8594 71.2227 22.793 71.1641C22.7305 71.1172 22.6797 71.0469 22.6445 70.9609C22.6172 70.8906 22.5937 70.8047 22.5742 70.7031C22.5625 70.6094 22.5547 70.5039 22.5547 70.3945C22.5547 70.2344 22.5664 70.1133 22.5938 70.0117C22.625 69.9062 22.6797 69.8047 22.7656 69.7188C22.8438 69.6406 22.9687 69.5547 23.1484 69.4688C23.3125 69.3828 23.5078 69.3086 23.7266 69.2383C23.9453 69.168 24.1875 69.1094 24.4453 69.0664C24.707 69.0195 24.9766 69 25.25 69C25.7383 69 26.1641 69.0508 26.5117 69.1406C26.8789 69.2422 27.1797 69.4023 27.4141 69.6094C27.6523 69.8242 27.8281 70.0937 27.9414 70.4297C28.0469 70.7461 28.0977 71.1289 28.0977 71.5586V75.625ZM31.707 75.6055C31.707 75.6914 31.6836 75.7656 31.6328 75.832C31.582 75.8945 31.5078 75.9414 31.4102 75.9766C31.332 76 31.2344 76.0195 31.1094 76.0352C30.9961 76.0469 30.8555 76.0508 30.6797 76.0508C30.5039 76.0508 30.3633 76.0469 30.25 76.0352C30.1289 76.0195 30.0312 76 29.9492 75.9766C29.8516 75.9414 29.7812 75.8945 29.7305 75.832C29.6797 75.7695 29.6523 75.6914 29.6523 75.6055V69.5703C29.6523 69.4844 29.6797 69.4062 29.7305 69.3438C29.7812 69.2812 29.8477 69.2344 29.9453 69.1992C30.0234 69.168 30.1211 69.1445 30.2461 69.1289C30.3633 69.1133 30.5039 69.1094 30.6797 69.1094C30.8555 69.1094 31 69.1133 31.1172 69.1289C31.2383 69.1445 31.3398 69.168 31.418 69.1992C31.5156 69.2344 31.582 69.2812 31.6328 69.3438C31.6836 69.4062 31.707 69.4844 31.707 69.5703V75.6055ZM31.5742 68.3516C31.3984 68.5156 31.1055 68.5938 30.6758 68.5938C30.2383 68.5938 29.9453 68.5156 29.7773 68.3555C29.6055 68.1953 29.5234 67.9258 29.5234 67.5469C29.5234 67.1484 29.6055 66.8711 29.7812 66.7031C29.9531 66.5352 30.2539 66.4492 30.6875 66.4492C31.1172 66.4492 31.4102 66.5312 31.582 66.6914C31.7578 66.8594 31.8398 67.125 31.8398 67.5078C31.8398 67.9102 31.7539 68.1836 31.5742 68.3516ZM39.3906 75.6055C39.3906 75.6914 39.3633 75.7695 39.3125 75.832C39.2656 75.8906 39.1914 75.9414 39.0977 75.9766C39.0195 76 38.918 76.0195 38.793 76.0352C38.6797 76.0469 38.5352 76.0508 38.3672 76.0508C38.1914 76.0508 38.0469 76.0469 37.9297 76.0352C37.8047 76.0195 37.707 76 37.6289 75.9766C37.5313 75.9414 37.4609 75.8906 37.4141 75.8359C37.3633 75.7695 37.332 75.6914 37.332 75.6055V72.1602C37.332 71.8789 37.3164 71.6641 37.2773 71.5117C37.2383 71.3633 37.1836 71.2383 37.1133 71.1367C37.0508 71.0391 36.9688 70.9687 36.8633 70.9141C36.7617 70.8633 36.6367 70.8359 36.4961 70.8359C36.3164 70.8359 36.1328 70.9062 35.9414 71.0391C35.7461 71.1797 35.5352 71.3867 35.3242 71.6523V75.6055C35.3242 75.6914 35.2969 75.7695 35.2422 75.832C35.1953 75.8906 35.125 75.9414 35.0273 75.9766C34.9453 76 34.8477 76.0195 34.7266 76.0352C34.6133 76.0469 34.4727 76.0508 34.293 76.0508C34.1172 76.0508 33.9805 76.0469 33.8633 76.0352C33.7383 76.0195 33.6445 76 33.5625 75.9766C33.4688 75.9414 33.3945 75.8945 33.3438 75.832C33.293 75.7695 33.2695 75.6914 33.2695 75.6055V69.5547C33.2695 69.4727 33.2891 69.4023 33.332 69.3398C33.375 69.2734 33.4414 69.2266 33.5352 69.1875C33.6055 69.1602 33.6953 69.1406 33.8008 69.125C33.9063 69.1133 34.0313 69.1094 34.1758 69.1094C34.3203 69.1094 34.4453 69.1133 34.5547 69.125C34.6641 69.1406 34.7539 69.1641 34.8203 69.1914C34.9063 69.2266 34.9688 69.2773 35.0078 69.3398C35.0508 69.4023 35.0703 69.4727 35.0703 69.5547V69.8359C35.3242 69.6055 35.5781 69.4219 35.8398 69.2891C36.207 69.0977 36.5977 69 37 69C37.4336 69 37.8086 69.0742 38.1172 69.2188C38.4219 69.3672 38.6719 69.5703 38.8633 69.8242C39.0508 70.0742 39.1875 70.3711 39.2695 70.7031C39.3477 71.0273 39.3906 71.4219 39.3906 71.8711V75.6055ZM43.2695 74.1914C43.2969 74.2344 43.3711 74.3594 43.6758 74.3594C43.7578 74.3594 43.8242 74.3477 43.8828 74.3359C43.9492 74.3242 44.0078 74.3086 44.0547 74.2891C44.1055 74.2695 44.1523 74.2539 44.1914 74.2383C44.25 74.2109 44.3047 74.1992 44.3594 74.1992C44.4219 74.1992 44.4766 74.2188 44.5312 74.25C44.5938 74.293 44.6406 74.3594 44.6641 74.4492C44.6797 74.5039 44.6953 74.5742 44.707 74.6641C44.7188 74.7539 44.7266 74.8672 44.7266 75C44.7266 75.2148 44.7109 75.3789 44.6836 75.4961C44.6523 75.6367 44.6055 75.7344 44.5391 75.8047C44.4844 75.8633 44.4062 75.9141 44.3047 75.957C44.2148 75.9961 44.1133 76.0273 43.9961 76.0586C43.8828 76.082 43.7617 76.1016 43.6289 76.1172C43.4961 76.1328 43.3633 76.1406 43.2344 76.1406C42.8789 76.1406 42.5625 76.0938 42.293 76C42.0195 75.9062 41.7891 75.7539 41.6055 75.5586C41.4258 75.3594 41.2891 75.1094 41.207 74.8125C41.125 74.5273 41.082 74.1875 41.082 73.8008V70.8789H40.5312C40.4375 70.8789 40.2695 70.8477 40.1719 70.6172C40.1172 70.4883 40.0898 70.293 40.0898 70.0156C40.0898 69.875 40.0938 69.7617 40.1094 69.6641C40.1211 69.5547 40.1445 69.4687 40.1719 69.4023C40.207 69.3203 40.2578 69.2578 40.3203 69.2188C40.3828 69.1758 40.457 69.1523 40.5391 69.1523H41.082V67.9844C41.082 67.9023 41.1094 67.8281 41.1562 67.7617C41.1992 67.6953 41.2734 67.6445 41.3711 67.6055C41.4531 67.5742 41.5508 67.5547 41.6797 67.5391C41.7969 67.5273 41.9414 67.5234 42.1055 67.5234C42.2812 67.5234 42.4297 67.5273 42.543 67.5391C42.668 67.5547 42.7734 67.5781 42.8516 67.6094C42.9492 67.6445 43.0156 67.6953 43.0664 67.7539C43.1133 67.8203 43.1406 67.9023 43.1406 67.9844V69.1523H44.2773C44.3594 69.1523 44.4336 69.1758 44.4961 69.2188C44.5586 69.2578 44.6094 69.3203 44.6445 69.4023C44.6758 69.4687 44.6953 69.5547 44.707 69.6641C44.7188 69.7617 44.7266 69.875 44.7266 70.0156C44.7266 70.293 44.6992 70.4844 44.6445 70.6172C44.5469 70.8477 44.3789 70.8789 44.2891 70.8789H43.1406V73.543C43.1406 73.8359 43.1836 74.0547 43.2695 74.1914ZM48.7227 73.0508C48.6445 73.2188 48.5039 73.3086 48.3281 73.3086H45.5117C45.332 73.3086 45.1875 73.2148 45.1094 73.0469C45.0508 72.9141 45.0195 72.7148 45.0195 72.4258C45.0195 72.1406 45.0508 71.9453 45.1094 71.8164C45.1875 71.6484 45.332 71.5586 45.5117 71.5586H48.3281C48.4141 71.5586 48.4883 71.5781 48.5547 71.6172C48.6211 71.6562 48.6758 71.7187 48.7188 71.8047C48.7578 71.8789 48.7812 71.9648 48.793 72.0781C48.8086 72.1758 48.8125 72.293 48.8125 72.4258C48.8125 72.7227 48.7852 72.918 48.7227 73.0508ZM56.582 74.1055C56.4922 74.375 56.3633 74.6172 56.1992 74.8281C56.0391 75.0352 55.8398 75.2187 55.6172 75.3711C55.3945 75.5156 55.1484 75.6406 54.8828 75.7344C54.625 75.8281 54.3398 75.8984 54.043 75.9414C53.75 75.9883 53.418 76.0078 53.0547 76.0078H50.7227C50.5313 76.0078 50.3672 75.9492 50.2305 75.832C50.0937 75.7109 50.0195 75.5234 50.0195 75.2695V67.625C50.0195 67.375 50.0937 67.1875 50.2305 67.0664C50.3672 66.9492 50.5313 66.8867 50.7227 66.8867H52.9258C53.4727 66.8867 53.9492 66.9375 54.332 67.0273C54.7227 67.125 55.0625 67.2734 55.3359 67.4688C55.6133 67.6641 55.832 67.9219 55.9766 68.2266C56.1211 68.5273 56.1953 68.8867 56.1953 69.293C56.1953 69.5195 56.168 69.7383 56.1094 69.9414C56.0469 70.1445 55.9648 70.332 55.8516 70.5C55.7344 70.668 55.5937 70.8164 55.4297 70.9453C55.3828 70.9844 55.3281 71.0117 55.2773 71.0469C55.3789 71.0859 55.4805 71.125 55.5742 71.1758C55.8047 71.2969 56.0039 71.4609 56.1719 71.6523C56.3438 71.8477 56.4766 72.0742 56.5742 72.332C56.6758 72.5898 56.7227 72.8828 56.7227 73.2031C56.7227 73.5312 56.6758 73.8359 56.582 74.1055ZM62.1211 70.5352C62.1094 70.6562 62.0977 70.7461 62.0742 70.8164C62.043 70.9102 62.0039 70.9805 61.9414 71.0273C61.8828 71.0703 61.8047 71.0977 61.7227 71.0977C61.668 71.0977 61.6055 71.082 61.543 71.0625C61.543 71.0625 61.3945 71.0117 61.3984 71.0117C61.3437 70.9961 61.2813 70.9805 61.2227 70.9648C61.168 70.9531 61.1055 70.9453 61.0391 70.9453C60.9688 70.9453 60.8945 70.9609 60.8203 70.9922C60.7383 71.0234 60.6563 71.0742 60.5703 71.1445C60.4766 71.2148 60.3789 71.3164 60.2773 71.4414C60.1797 71.5625 60.0703 71.7148 59.957 71.8867V75.6055C59.957 75.6914 59.9336 75.7656 59.8828 75.832C59.832 75.8945 59.7617 75.9414 59.6641 75.9766C59.582 76 59.4844 76.0195 59.3633 76.0352C59.2461 76.0469 59.1094 76.0508 58.9297 76.0508C58.7539 76.0508 58.6172 76.0469 58.5 76.0352C58.3789 76.0195 58.2812 76 58.2031 75.9766C58.1016 75.9414 58.0312 75.8906 57.9844 75.8359C57.9297 75.7695 57.9023 75.6914 57.9023 75.6055V69.5547C57.9023 69.4727 57.9258 69.4023 57.9688 69.3398C58.0117 69.2734 58.0781 69.2266 58.1719 69.1875C58.2422 69.1602 58.332 69.1406 58.4414 69.125C58.543 69.1133 58.668 69.1094 58.8086 69.1094C58.957 69.1094 59.0859 69.1133 59.1914 69.125C59.3008 69.1406 59.3906 69.1641 59.457 69.1914C59.543 69.2266 59.6055 69.2773 59.6445 69.3398C59.6875 69.4023 59.707 69.4727 59.707 69.5547V69.7969C59.7578 69.7422 59.8086 69.6797 59.8555 69.6328C60.0039 69.4766 60.1484 69.3516 60.2812 69.2578C60.4258 69.1641 60.5703 69.0937 60.7188 69.0547C60.8555 69.0156 61 69 61.1406 69C61.207 69 61.2734 69.0039 61.3477 69.0078C61.418 69.0156 61.5 69.0312 61.5781 69.0469C61.6602 69.0664 61.7305 69.0859 61.7891 69.1094C61.8672 69.1367 61.9219 69.168 61.9688 69.207C62.0117 69.25 62.043 69.2969 62.0625 69.3438C62.0781 69.3789 62.0937 69.4258 62.1055 69.4922C62.1172 69.5469 62.125 69.625 62.1289 69.7266C62.1328 69.8242 62.1367 69.9609 62.1367 70.1211C62.1367 70.293 62.1289 70.4297 62.1211 70.5352ZM65.0977 75.6055C65.0977 75.6914 65.0703 75.7695 65.0195 75.832C64.9688 75.8906 64.8984 75.9414 64.8008 75.9766C64.7227 76 64.625 76.0195 64.5 76.0352C64.3867 76.0469 64.2461 76.0508 64.0703 76.0508C63.8945 76.0508 63.7539 76.0469 63.6406 76.0352C63.5195 76.0195 63.4219 76 63.3398 75.9766C63.2422 75.9414 63.1719 75.8945 63.1211 75.832C63.0703 75.7695 63.043 75.6914 63.043 75.6055V69.5703C63.043 69.4844 63.0703 69.4062 63.1211 69.3438C63.168 69.2812 63.2383 69.2344 63.3359 69.1992C63.4102 69.168 63.5117 69.1445 63.6367 69.1289C63.7539 69.1133 63.8945 69.1094 64.0703 69.1094C64.2461 69.1094 64.3906 69.1133 64.5039 69.1289C64.6289 69.1445 64.7266 69.168 64.8047 69.1992C64.9023 69.2344 64.9727 69.2812 65.0195 69.3398C65.0703 69.4062 65.0977 69.4844 65.0977 69.5703V75.6055ZM64.9648 68.3516C64.7891 68.5156 64.4922 68.5938 64.0625 68.5938C63.6289 68.5938 63.3359 68.5156 63.1641 68.3594C62.9922 68.1953 62.9102 67.9297 62.9102 67.5469C62.9102 67.1484 62.9961 66.8711 63.1719 66.7031C63.3438 66.5352 63.6445 66.4492 64.0781 66.4492C64.5078 66.4492 64.8008 66.5312 64.9688 66.6914C65.1445 66.8594 65.2305 67.1289 65.2305 67.5078C65.2305 67.9062 65.1445 68.1836 64.9648 68.3516ZM72.5938 72.4023C72.5938 72.6562 72.5312 72.8516 72.4062 72.9844C72.2812 73.1172 72.1094 73.1875 71.8945 73.1875H68.4062C68.4141 73.3555 68.4375 73.5195 68.4805 73.6641C68.5312 73.8437 68.6172 74 68.7344 74.1289C68.8438 74.2539 68.9961 74.3477 69.1758 74.418C69.3672 74.4844 69.6016 74.5195 69.8711 74.5195C70.1602 74.5195 70.4141 74.5 70.625 74.4609C70.8438 74.418 71.0352 74.3711 71.1953 74.3203C71.3477 74.2695 71.4844 74.2227 71.5898 74.1797C71.7187 74.1289 71.8281 74.1055 71.918 74.1055C71.9883 74.1055 72.0547 74.1211 72.1094 74.1523C72.1641 74.1875 72.2148 74.2422 72.2461 74.3164C72.2734 74.375 72.2891 74.4492 72.3008 74.543C72.3047 74.625 72.3086 74.7266 72.3086 74.8438C72.3086 74.9453 72.3086 75.0352 72.3008 75.1094C72.2969 75.1875 72.2891 75.2539 72.2812 75.3047C72.2695 75.375 72.2461 75.4336 72.2188 75.4844C72.1953 75.5352 72.1641 75.5781 72.1211 75.6211C72.0898 75.6602 72.0273 75.707 71.8203 75.793C71.6836 75.8477 71.5039 75.9062 71.2969 75.9609C71.0898 76.0156 70.8477 76.0625 70.582 76.1016C70.3125 76.1406 70.0234 76.1641 69.7148 76.1641C69.1602 76.1641 68.6641 76.0898 68.2461 75.9492C67.8203 75.8086 67.4531 75.5859 67.1602 75.2891C66.875 74.9961 66.6562 74.6211 66.5156 74.1797C66.3789 73.7422 66.3047 73.2266 66.3047 72.6484C66.3047 72.0977 66.3789 71.5859 66.5273 71.1406C66.6719 70.6914 66.8906 70.3008 67.1719 69.9844C67.457 69.6641 67.8008 69.418 68.207 69.25C68.6094 69.082 69.0664 69 69.5664 69C70.0898 69 70.5508 69.082 70.9297 69.2383C71.3125 69.3945 71.6328 69.6211 71.8789 69.9023C72.125 70.1836 72.3086 70.5195 72.4258 70.9023C72.5391 71.2812 72.5938 71.6953 72.5938 72.1289V72.4023ZM79.9258 75.6055C79.9258 75.6836 79.9063 75.7578 79.8633 75.8203C79.8203 75.8828 79.7539 75.9336 79.6641 75.9727C79.5898 76 79.5039 76.0195 79.3945 76.0352C79.2969 76.0469 79.1758 76.0508 79.0273 76.0508C78.8672 76.0508 78.7422 76.0469 78.6406 76.0352C78.5352 76.0195 78.4453 76 78.3789 75.9688C78.2891 75.9336 78.2227 75.8828 78.1797 75.8203C78.1406 75.7578 78.1172 75.6836 78.1172 75.6055V75.3242C77.8672 75.5508 77.6133 75.7383 77.3555 75.8711C76.9883 76.0625 76.6016 76.1641 76.2031 76.1641C75.7617 76.1641 75.3867 76.0859 75.0781 75.9414C74.7773 75.793 74.5234 75.5898 74.332 75.332C74.1445 75.0781 74.0117 74.7812 73.9297 74.4492C73.8555 74.1289 73.8164 73.7266 73.8164 73.2539V69.5547C73.8164 69.4727 73.8398 69.3945 73.8867 69.332C73.9297 69.2695 74.0039 69.2187 74.1055 69.1836C74.1836 69.1602 74.2852 69.1367 74.4102 69.125C74.5273 69.1133 74.6719 69.1094 74.8398 69.1094C75.0117 69.1094 75.1562 69.1133 75.2734 69.125C75.3945 69.1367 75.4922 69.1602 75.5703 69.1836C75.6719 69.2187 75.7422 69.2656 75.7891 69.3242C75.8438 69.3945 75.8711 69.4687 75.8711 69.5547V72.9648C75.8711 73.2695 75.8906 73.5 75.9258 73.6523C75.9609 73.7969 76.0156 73.9219 76.0859 74.0195C76.1523 74.1211 76.2344 74.1914 76.3359 74.2461C76.4375 74.2969 76.5625 74.3242 76.7109 74.3242C76.8867 74.3242 77.0703 74.2578 77.2578 74.1211C77.4492 73.9844 77.6602 73.7773 77.8828 73.5117V69.5547C77.8828 69.4727 77.9102 69.3945 77.9531 69.332C78 69.2695 78.0703 69.2227 78.1719 69.1836C78.2539 69.1602 78.3477 69.1406 78.4727 69.125C78.5898 69.1133 78.7344 69.1094 78.9023 69.1094C79.0703 69.1094 79.2148 69.1133 79.3359 69.125C79.457 69.1406 79.5586 69.1602 79.6328 69.1875C79.7305 69.2227 79.8008 69.2695 79.8477 69.3281C79.8984 69.3906 79.9258 69.4687 79.9258 69.5547V75.6055ZM86.418 74.9531C86.4102 75.0391 86.4023 75.1133 86.3906 75.1719C86.375 75.2422 86.3594 75.2969 86.3359 75.3398C86.3086 75.3984 86.2656 75.4531 86.1914 75.5234C86.1289 75.5859 86.0234 75.6563 85.8789 75.7383C85.7422 75.8203 85.5781 75.8906 85.4062 75.9531C85.2305 76.0156 85.0391 76.0664 84.832 76.1016C84.625 76.1406 84.4102 76.1641 84.1953 76.1641C83.707 76.1641 83.2695 76.082 82.8906 75.9336C82.5039 75.7773 82.1797 75.5469 81.918 75.2461C81.6602 74.9414 81.4609 74.5781 81.332 74.1445C81.2031 73.7266 81.1367 73.2383 81.1367 72.7031C81.1367 72.082 81.2188 71.5352 81.375 71.0781C81.5312 70.6133 81.7578 70.2227 82.043 69.918C82.332 69.6133 82.6797 69.3789 83.0742 69.2305C83.4648 69.082 83.8945 69.0078 84.3555 69.0078C84.543 69.0078 84.7383 69.0273 84.918 69.0586C85.1016 69.0937 85.2734 69.1406 85.4375 69.1992C85.5938 69.2539 85.7422 69.3242 85.8672 69.3945C86.0039 69.4688 86.0977 69.5391 86.1602 69.5977C86.2227 69.6602 86.2656 69.7109 86.293 69.7578C86.3242 69.8086 86.3477 69.8672 86.3633 69.9453C86.375 70.0039 86.3828 70.0781 86.3906 70.1641C86.3984 70.25 86.4023 70.3477 86.4023 70.4648C86.4023 70.7578 86.375 70.9531 86.3203 71.0859C86.2227 71.3164 86.0664 71.3477 85.9805 71.3477C85.8672 71.3477 85.75 71.3047 85.6367 71.2227C85.5508 71.1602 85.4492 71.0859 85.3359 71.0117C85.2305 70.9453 85.1016 70.8789 84.9492 70.8203C84.8086 70.7656 84.6367 70.7383 84.4297 70.7383C84.0469 70.7383 83.7617 70.8789 83.5586 71.1758C83.3437 71.4844 83.2344 71.9531 83.2344 72.5781C83.2344 72.8867 83.2656 73.1641 83.3203 73.3984C83.3711 73.625 83.4531 73.8164 83.5547 73.9648C83.6523 74.1094 83.7734 74.2109 83.918 74.2812C84.0703 74.3555 84.25 74.3867 84.4492 74.3867C84.6641 74.3867 84.8438 74.3594 84.9883 74.2969C85.1484 74.2344 85.2891 74.1602 85.4062 74.082C85.5234 74 85.6289 73.9258 85.7109 73.8555C85.8281 73.7617 85.9375 73.7109 86.0352 73.7109C86.1172 73.7109 86.1914 73.7383 86.25 73.7852C86.3047 73.8359 86.3477 73.9023 86.3711 74C86.3906 74.0742 86.4063 74.1602 86.4141 74.2617C86.4219 74.3672 86.4297 74.4922 86.4297 74.6445C86.4297 74.7617 86.4258 74.8711 86.418 74.9531ZM86.4922 49.7539C86.4922 52.2656 84.4922 54.7852 82.043 55.3555L67.0312 58.8438C64.582 59.4102 62.5781 58.6289 62.5781 57.1133C62.5781 55.5898 60.582 54.8125 58.1328 55.3789L43.2188 58.8438C40.7734 59.4102 38.7734 58.6328 38.7734 57.1172C38.7734 55.6016 36.7695 54.8242 34.3203 55.3906L19.4609 58.8438C17.0117 59.4102 15.0117 57.8242 15.0117 55.3086V40.5273C15.0117 38.0195 17.0117 35.5 19.4609 34.9297L34.4766 31.4414C36.9219 30.875 38.9258 31.6523 38.9258 33.168C38.9258 34.6875 40.9258 35.4609 43.3711 34.8945L58.2344 31.4414C60.6836 30.875 62.6836 31.6523 62.6836 33.1719C62.6836 34.6953 64.6836 35.4727 67.1328 34.9062L82.043 31.4414C84.4922 30.875 86.4922 32.4648 86.4922 34.9766V49.7539Z" fill="#231F20"/>
</g>
<path d="M78.9062 38.6328C78.8594 38.5469 78.8008 38.4766 78.7344 38.4336C78.6602 38.3906 78.582 38.3711 78.4961 38.3711H69.5938C69.5078 38.3711 69.4258 38.3906 69.3555 38.4336C69.2812 38.4805 69.2266 38.5508 69.1875 38.6406C69.1523 38.7188 69.125 38.8047 69.1094 38.918C69.0898 39.0195 69.082 39.1406 69.082 39.2734C69.082 39.4102 69.0898 39.5312 69.1094 39.6328C69.125 39.7422 69.1523 39.8281 69.1875 39.9023C69.2305 39.9844 69.2852 40.0547 69.3555 40.0977C69.4258 40.1406 69.5078 40.1641 69.5938 40.1641H73.0156V51.0859C73.0156 51.1758 73.043 51.2539 73.0859 51.3242C73.1328 51.3945 73.2109 51.4492 73.3125 51.4844C73.3867 51.5117 73.4883 51.5352 73.6133 51.5508C73.7344 51.5664 73.8789 51.5742 74.043 51.5742C74.2187 51.5742 74.3633 51.5664 74.4805 51.5508C74.6055 51.5352 74.7031 51.5117 74.7773 51.4844C74.8789 51.4492 74.9531 51.3945 75.0039 51.3242C75.0469 51.25 75.0742 51.1719 75.0742 51.0859V40.1641H78.4961C78.582 40.1641 78.6602 40.1406 78.7344 40.0977C78.8008 40.0547 78.8594 39.9922 78.9023 39.9102C78.9453 39.832 78.9727 39.7422 78.9844 39.625C79.0039 39.5234 79.0078 39.4062 79.0078 39.2734C79.0078 39.1445 79.0039 39.0273 78.9844 38.918C78.9727 38.8047 78.9453 38.7109 78.9062 38.6328Z" fill="#231F20"/>
<path d="M56.0234 38.4102C55.9492 38.3828 55.8555 38.3633 55.7305 38.3398C55.6133 38.3242 55.4687 38.3164 55.3047 38.3164C55.1328 38.3164 54.9844 38.3242 54.8672 38.3398C54.7461 38.3594 54.6523 38.3828 54.5742 38.4062C54.4687 38.4453 54.3945 38.5 54.3477 38.5703C54.3008 38.6406 54.2773 38.7187 54.2773 38.8047V46.6289C54.2773 47.1797 54.207 47.668 54.0742 48.0742C53.9414 48.4805 53.7461 48.8203 53.4961 49.0898C53.2539 49.3594 52.9453 49.5625 52.5859 49.6992C52.2227 49.8359 51.8008 49.9023 51.332 49.9023C50.875 49.9023 50.457 49.832 50.0938 49.6953C49.7344 49.5586 49.4258 49.3477 49.1719 49.0781C48.918 48.8008 48.7188 48.4531 48.582 48.0352C48.4453 47.6172 48.375 47.1133 48.375 46.5391V38.8047C48.375 38.7187 48.3516 38.6406 48.3047 38.5703C48.2578 38.5 48.1836 38.4453 48.0859 38.4102C48.0117 38.3828 47.9102 38.3594 47.7891 38.3398C47.668 38.3242 47.5234 38.3164 47.3555 38.3164C47.1758 38.3164 47.0273 38.3242 46.9141 38.3398C46.7969 38.3633 46.7031 38.3828 46.625 38.4062C46.5195 38.4453 46.4453 38.5 46.3984 38.5703C46.3516 38.6406 46.332 38.7187 46.332 38.8047V46.75C46.332 47.5508 46.4453 48.2695 46.6758 48.8867C46.9063 49.5039 47.2461 50.0352 47.6758 50.4492C48.1094 50.8633 48.6328 51.1797 49.2344 51.3906C49.832 51.6016 50.5 51.7109 51.2188 51.7109C52.0117 51.7109 52.7227 51.5937 53.3477 51.3711C53.9766 51.1445 54.5195 50.8086 54.957 50.375C55.3945 49.9336 55.7344 49.3906 55.9688 48.7617C56.2031 48.1367 56.3242 47.4141 56.3242 46.6172V38.8047C56.3242 38.7148 56.293 38.6328 56.2422 38.5625C56.1914 38.4961 56.1211 38.4453 56.0234 38.4102Z" fill="#231F20"/>
</svg>
