<svg width="102" height="73" viewBox="0 0 102 73" fill="none" xmlns="http://www.w3.org/2000/svg">
<path d="M0.959961 18.3633H10.4639C10.9678 18.3633 11.2256 18.6172 11.2256 19.125V72.1133C11.2256 72.625 10.9678 72.875 10.4639 72.875H0.959961C0.452148 72.875 0.198242 72.625 0.198242 72.1133V19.125C0.198242 18.6172 0.452148 18.3633 0.959961 18.3633Z" fill="#7F161D"/>
<mask id="mask0_248_3814" style="mask-type:luminance" maskUnits="userSpaceOnUse" x="17" y="18" width="42" height="55">
<path d="M17.3311 18.3359H27.7334V18.4375H17.3311V18.3359ZM47.5342 18.3359H57.9326V18.4375H47.5342V18.3359ZM17.2334 18.4375H27.9326V18.5391H17.2334V18.4375ZM47.4326 18.4375H58.0342V18.5391H47.4326V18.4375ZM17.1318 18.5391H27.9326V18.6367H17.1318V18.5391ZM47.3311 18.5391H58.1318V18.6367H47.3311V18.5391ZM17.0342 18.6367H28.0342V18.8359H17.0342V18.6367ZM47.2334 18.6367H58.2334V18.9375H47.2334V18.6367ZM47.1318 18.9375H58.3311V56.2383H47.1318V18.9375ZM47.1318 56.2383H58.2334V57.0391H47.1318V56.2383ZM17.0342 18.8359H28.1318V57.0391H17.0342V18.8359ZM47.0342 57.0391H58.2334V57.4375H47.0342V57.0391ZM17.0342 57.0391H28.2334V57.5391H17.0342V57.0391ZM46.9326 57.4375H58.2334V57.8359H46.9326V57.4375ZM17.0342 57.5391H28.3311V58.0391H17.0342V57.5391ZM46.8311 57.8359H58.2334V58.1367H46.8311V57.8359ZM46.7334 58.1367H58.2334V58.2383H46.7334V58.1367ZM17.0342 58.0391H28.4326V58.3359H17.0342V58.0391ZM46.7334 58.2383H58.1318V58.4375H46.7334V58.2383ZM46.6318 58.4375H58.1318V58.6367H46.6318V58.4375ZM17.0342 58.3359H28.5342V58.6367H17.0342V58.3359ZM46.5342 58.6367H58.1318V58.9375H46.5342V58.6367ZM17.0342 58.6367H28.6318V58.9375H17.0342V58.6367ZM46.4326 58.9375H58.1318V59.1367H46.4326V58.9375ZM17.0342 58.9375H28.7334V59.1367H17.0342V58.9375ZM46.3311 59.1367H58.1318V59.3359H46.3311V59.1367ZM17.0342 59.1367H28.8311V59.4375H17.0342V59.1367ZM46.2334 59.3359H58.0342V59.5391H46.2334V59.3359ZM17.0342 59.4375H28.9326V59.6367H17.0342V59.4375ZM46.1318 59.5391H58.0342V59.7383H46.1318V59.5391ZM17.0342 59.6367H29.0342V59.7383H17.0342V59.6367ZM17.0342 59.7383H29.1318V59.8359H17.0342V59.7383ZM46.0342 59.7383H58.0342V59.8359H46.0342V59.7383ZM17.1318 59.8359H29.1318V59.9375H17.1318V59.8359ZM45.9326 59.8359H58.0342V60.0391H45.9326V59.8359ZM17.1318 59.9375H29.2334V60.1367H17.1318V59.9375ZM45.8311 60.0391H58.0342V60.1367H45.8311V60.0391ZM45.8311 60.1367H57.9326V60.2383H45.8311V60.1367ZM45.7334 60.2383H57.9326V60.3359H45.7334V60.2383ZM17.1318 60.1367H29.3311V60.3359H17.1318V60.1367ZM17.1318 60.3359H29.4326V60.4375H17.1318V60.3359ZM17.1318 60.4375H29.5342V60.5391H17.1318V60.4375ZM45.6318 60.3359H57.9326V60.5391H45.6318V60.3359ZM45.5342 60.5391H57.9326V60.6367H45.5342V60.5391ZM17.2334 60.5391H29.5342V60.6367H17.2334V60.5391ZM45.4326 60.6367H57.9326V60.7383H45.4326V60.6367ZM17.2334 60.6367H29.6318V60.7383H17.2334V60.6367ZM45.3311 60.7383H57.8311V60.8359H45.3311V60.7383ZM17.2334 60.7383H29.7334V60.8359H17.2334V60.7383ZM17.2334 60.8359H29.8311V60.9375H17.2334V60.8359ZM17.2334 60.9375H29.9326V61.0391H17.2334V60.9375ZM45.2334 60.8359H57.8311V61.0391H45.2334V60.8359ZM45.1318 61.0391H57.8311V61.1367H45.1318V61.0391ZM17.3311 61.0391H29.9326V61.1367H17.3311V61.0391ZM45.0342 61.1367H57.8311V61.2383H45.0342V61.1367ZM17.3311 61.1367H30.0342V61.2383H17.3311V61.1367ZM44.9326 61.2383H57.7334V61.3359H44.9326V61.2383ZM17.3311 61.2383H30.1318V61.3359H17.3311V61.2383ZM44.8311 61.3359H57.7334V61.4375H44.8311V61.3359ZM17.3311 61.3359H30.2334V61.4375H17.3311V61.3359ZM17.3311 61.4375H30.3311V61.5391H17.3311V61.4375ZM44.7334 61.4375H57.7334V61.5391H44.7334V61.4375ZM44.6318 61.5391H57.7334V61.6367H44.6318V61.5391ZM17.4326 61.5391H30.4326V61.6367H17.4326V61.5391ZM44.5342 61.6367H57.7334V61.7383H44.5342V61.6367ZM17.4326 61.6367H30.5342V61.7383H17.4326V61.6367ZM44.3311 61.7383H57.6318V61.8359H44.3311V61.7383ZM17.4326 61.7383H30.6318V61.8359H17.4326V61.7383ZM44.2334 61.8359H57.6318V61.9375H44.2334V61.8359ZM17.4326 61.8359H30.7334V61.9375H17.4326V61.8359ZM17.4326 61.9375H30.9326V62.0391H17.4326V61.9375ZM44.1318 61.9375H57.6318V62.0391H44.1318V61.9375ZM44.0342 62.0391H57.6318V62.1367H44.0342V62.0391ZM17.5342 62.0391H31.0342V62.1367H17.5342V62.0391ZM43.8311 62.1367H57.5342V62.2383H43.8311V62.1367ZM17.5342 62.1367H31.1318V62.2383H17.5342V62.1367ZM17.5342 62.2383H31.3311V62.3359H17.5342V62.2383ZM43.7334 62.2383H57.5342V62.3359H43.7334V62.2383ZM43.5342 62.3359H57.5342V62.4375H43.5342V62.3359ZM17.6318 62.3359H31.4326V62.4375H17.6318V62.3359ZM43.3311 62.4375H57.5342V62.5391H43.3311V62.4375ZM17.6318 62.4375H31.7334V62.5391H17.6318V62.4375ZM17.6318 62.5391H31.9326V62.6367H17.6318V62.5391ZM43.1318 62.5391H57.4326V62.6367H43.1318V62.5391ZM42.8311 62.6367H57.4326V62.7383H42.8311V62.6367ZM17.7334 62.6367H32.1318V62.7383H17.7334V62.6367ZM42.5342 62.7383H57.4326V62.8359H42.5342V62.7383ZM17.7334 62.7383H32.4326V62.8359H17.7334V62.7383ZM17.7334 62.8359H32.9326V62.9375H17.7334V62.8359ZM42.0342 62.8359H57.3311V62.9375H42.0342V62.8359ZM17.8311 62.9375H57.3311V63.1367H17.8311V62.9375ZM17.9326 63.1367H57.2334V63.4375H17.9326V63.1367ZM18.0342 63.4375H57.1318V63.6367H18.0342V63.4375ZM18.1318 63.6367H57.1318V63.7383H18.1318V63.6367ZM18.1318 63.7383H57.0342V63.9375H18.1318V63.7383ZM18.2334 63.9375H56.9326V64.1367H18.2334V63.9375ZM18.3311 64.1367H56.8311V64.3359H18.3311V64.1367ZM18.4326 64.3359H56.7334V64.5391H18.4326V64.3359ZM18.5342 64.5391H56.6318V64.7383H18.5342V64.5391ZM18.6318 64.7383H56.5342V64.9375H18.6318V64.7383ZM18.7334 64.9375H56.4326V65.1367H18.7334V64.9375ZM18.8311 65.1367H56.3311V65.2383H18.8311V65.1367ZM18.8311 65.2383H56.2334V65.3359H18.8311V65.2383ZM18.9326 65.3359H56.2334V65.4375H18.9326V65.3359ZM18.9326 65.4375H56.1318V65.5391H18.9326V65.4375ZM19.0342 65.5391H56.1318V65.6367H19.0342V65.5391ZM19.0342 65.6367H56.0342V65.7383H19.0342V65.6367ZM19.1318 65.7383H56.0342V65.8359H19.1318V65.7383ZM19.2334 65.8359H55.9326V65.9375H19.2334V65.8359ZM19.2334 65.9375H55.8311V66.0391H19.2334V65.9375ZM19.3311 66.0391H55.8311V66.1367H19.3311V66.0391ZM19.4326 66.1367H55.7334V66.2383H19.4326V66.1367ZM19.4326 66.2383H55.6318V66.3359H19.4326V66.2383ZM19.5342 66.3359H55.6318V66.4375H19.5342V66.3359ZM19.6318 66.4375H55.5342V66.5391H19.6318V66.4375ZM19.7334 66.5391H55.4326V66.6367H19.7334V66.5391ZM19.7334 66.6367H55.3311V66.7383H19.7334V66.6367ZM19.8311 66.7383H55.3311V66.8359H19.8311V66.7383ZM19.9326 66.8359H55.2334V66.9375H19.9326V66.8359ZM20.0342 66.9375H55.1318V67.0391H20.0342V66.9375ZM20.0342 67.0391H55.0342V67.1367H20.0342V67.0391ZM20.1318 67.1367H55.0342V67.2383H20.1318V67.1367ZM20.2334 67.2383H54.9326V67.3359H20.2334V67.2383ZM20.3311 67.3359H54.8311V67.4375H20.3311V67.3359ZM20.4326 67.4375H54.7334V67.5391H20.4326V67.4375ZM20.5342 67.5391H54.7334V67.6367H20.5342V67.5391ZM20.6318 67.6367H54.6318V67.7383H20.6318V67.6367ZM20.6318 67.7383H54.5342V67.8359H20.6318V67.7383ZM20.7334 67.8359H54.4326V67.9375H20.7334V67.8359ZM20.8311 67.9375H54.3311V68.0391H20.8311V67.9375ZM20.9326 68.0391H54.2334V68.1367H20.9326V68.0391ZM21.0342 68.1367H54.1318V68.2383H21.0342V68.1367ZM21.1318 68.2383H54.1318V68.3359H21.1318V68.2383ZM21.2334 68.3359H54.0342V68.4375H21.2334V68.3359ZM21.3311 68.4375H53.9326V68.5391H21.3311V68.4375ZM21.4326 68.5391H53.8311V68.6367H21.4326V68.5391ZM21.5342 68.6367H53.7334V68.7383H21.5342V68.6367ZM21.6318 68.7383H53.6318V68.8359H21.6318V68.7383ZM21.7334 68.8359H53.4326V68.9375H21.7334V68.8359ZM21.8311 68.9375H53.3311V69.0391H21.8311V68.9375ZM21.9326 69.0391H53.2334V69.1367H21.9326V69.0391ZM22.0342 69.1367H53.1318V69.2383H22.0342V69.1367ZM22.1318 69.2383H53.0342V69.3359H22.1318V69.2383ZM22.2334 69.3359H52.8311V69.4375H22.2334V69.3359ZM22.4326 69.4375H52.7334V69.5391H22.4326V69.4375ZM22.5342 69.5391H52.6318V69.6367H22.5342V69.5391ZM22.6318 69.6367H52.4326V69.7383H22.6318V69.6367ZM22.7334 69.7383H52.3311V69.8359H22.7334V69.7383ZM22.8311 69.8359H52.1318V69.9375H22.8311V69.8359ZM23.0342 69.9375H52.0342V70.0391H23.0342V69.9375ZM23.1318 70.0391H51.8311V70.1367H23.1318V70.0391ZM23.3311 70.1367H51.7334V70.2383H23.3311V70.1367ZM23.4326 70.2383H51.5342V70.3359H23.4326V70.2383ZM23.5342 70.3359H51.3311V70.4375H23.5342V70.3359ZM23.7334 70.4375H51.1318V70.5391H23.7334V70.4375ZM23.8311 70.5391H50.9326V70.6367H23.8311V70.5391ZM24.0342 70.6367H50.7334V70.7383H24.0342V70.6367ZM24.1318 70.7383H50.5342V70.8359H24.1318V70.7383ZM24.3311 70.8359H50.3311V70.9375H24.3311V70.8359ZM24.4326 70.9375H50.1318V71.0391H24.4326V70.9375ZM24.6318 71.0391H49.9326V71.1367H24.6318V71.0391ZM24.8311 71.1367H49.7334V71.2383H24.8311V71.1367ZM25.0342 71.2383H49.5342V71.3359H25.0342V71.2383ZM25.2334 71.3359H49.2334V71.4375H25.2334V71.3359ZM25.4326 71.4375H49.0342V71.5391H25.4326V71.4375ZM25.6318 71.5391H48.8311V71.6367H25.6318V71.5391ZM25.8311 71.6367H48.6318V71.7383H25.8311V71.6367ZM26.0342 71.7383H48.3311V71.8359H26.0342V71.7383ZM26.3311 71.8359H48.0342V71.9375H26.3311V71.8359ZM26.6318 71.9375H47.6318V72.0391H26.6318V71.9375ZM26.9326 72.0391H47.3311V72.1367H26.9326V72.0391ZM27.2334 72.1367H46.9326V72.2383H27.2334V72.1367ZM27.5342 72.2383H46.5342V72.3359H27.5342V72.2383ZM27.9326 72.3359H46.1318V72.4375H27.9326V72.3359ZM28.3311 72.4375H45.7334V72.5391H28.3311V72.4375ZM28.9326 72.5391H45.2334V72.6367H28.9326V72.5391ZM29.5342 72.6367H44.6318V72.7383H29.5342V72.6367ZM30.2334 72.7383H43.9326V72.8359H30.2334V72.7383ZM31.5342 72.8359H42.7334V72.9375H31.5342V72.8359Z" fill="white"/>
</mask>
<g mask="url(#mask0_248_3814)">
<mask id="mask1_248_3814" style="mask-type:luminance" maskUnits="userSpaceOnUse" x="-11" y="-3" width="97" height="97">
<path d="M-10.2236 45.6172L37.6396 93.4766L85.499 45.6172L37.6396 -2.24219L-10.2236 45.6172Z" fill="white"/>
</mask>
<g mask="url(#mask1_248_3814)">
<mask id="mask2_248_3814" style="mask-type:luminance" maskUnits="userSpaceOnUse" x="17" y="18" width="42" height="55">
<path d="M47.9756 18.3633C47.4717 18.3633 47.2217 18.6172 47.2217 19.1211V56.1484C47.2217 56.8086 47.0811 57.5313 46.8037 58.3164C46.5264 59.1016 46.1436 59.8359 45.6631 60.5195C45.1826 61.207 44.5889 61.7891 43.8779 62.2695C43.1631 62.7539 42.3779 62.9922 41.5186 62.9922H33.5381C32.624 62.9922 31.8232 62.7539 31.1436 62.2695C30.4561 61.7891 29.8857 61.207 29.4287 60.5195C28.9717 59.8359 28.6318 59.1016 28.4014 58.3164C28.1748 57.5313 28.0615 56.832 28.0615 56.2266V19.1211C28.0615 18.6172 27.8076 18.3633 27.2998 18.3633H17.7959C17.2881 18.3633 17.0342 18.6172 17.0342 19.1211V58.2031C17.0342 59.6211 17.2256 60.9531 17.6045 62.1914C17.9873 63.4375 18.5068 64.6133 19.1631 65.7305C19.8271 66.7422 20.6357 67.7305 21.6045 68.6914C22.3584 69.4531 23.2725 70.168 24.3389 70.8203C25.3506 71.4844 26.5732 71.9922 28.0225 72.3438C29.4678 72.6992 31.0264 72.875 32.7021 72.875H41.5928C42.9131 72.875 44.1318 72.7617 45.2412 72.5312C46.3584 72.3086 47.374 72.0391 48.2881 71.7344C49.1982 71.3828 50.1631 70.9336 51.1748 70.4062C52.1865 69.8711 53.0771 69.2266 53.8389 68.4688C54.542 67.707 55.1943 66.8828 55.7764 65.9961C56.3545 65.1055 56.7998 64.2617 57.1045 63.4492C57.46 62.5859 57.7373 61.4609 57.9404 60.0664C58.1436 58.6719 58.2451 57.0586 58.2451 55.2344V19.1211C58.2451 18.6172 57.9873 18.3633 57.4834 18.3633H47.9756Z" fill="white"/>
</mask>
<g mask="url(#mask2_248_3814)">
<path d="M37.6396 -2.24219L-10.2236 45.6172L37.6396 93.4805L85.499 45.6172L37.6396 -2.24219Z" fill="url(#paint0_linear_248_3814)"/>
</g>
</g>
</g>
<mask id="mask3_248_3814" style="mask-type:luminance" maskUnits="userSpaceOnUse" x="63" y="18" width="39" height="55">
<path d="M63.4326 18.3633H101.632V18.4375H63.4326V18.3633ZM63.2334 18.4375H101.733V18.5391H63.2334V18.4375ZM63.1318 18.5391H101.831V18.6367H63.1318V18.5391ZM63.1318 18.6367H101.933V18.7383H63.1318V18.6367ZM63.0771 18.7383H101.933V18.9375H63.0771V18.7383ZM63.0771 18.9375H101.937V27.6367H63.0771V18.9375ZM63.0771 27.6367H101.933V27.8359H63.0771V27.6367ZM63.1318 27.8359H101.933V27.9375H63.1318V27.8359ZM63.1318 27.9375H101.831V28.0391H63.1318V27.9375ZM63.2334 28.0391H101.831V28.1367H63.2334V28.0391ZM63.3311 28.1367H101.632V28.2383H63.3311V28.1367ZM63.6318 28.2383H101.331V28.3359H63.6318V28.2383ZM76.6318 28.3359H88.4326V28.4375H76.6318V28.3359ZM76.7334 28.4375H88.2334V28.5391H76.7334V28.4375ZM76.8311 28.5391H88.2334V28.6367H76.8311V28.5391ZM76.8311 28.6367H88.1318V28.7383H76.8311V28.6367ZM76.9326 28.7383H88.1318V28.8359H76.9326V28.7383ZM76.9326 28.8359H88.0342V72.4375H76.9326V28.8359ZM77.0342 72.4375H88.0342V72.5391H77.0342V72.4375ZM77.0342 72.5391H87.9326V72.6367H77.0342V72.5391ZM77.1318 72.6367H87.9326V72.7383H77.1318V72.6367ZM77.2334 72.7383H87.8311V72.8359H77.2334V72.7383ZM77.4326 72.8359H87.5342V72.875H77.4326V72.8359Z" fill="white"/>
</mask>
<g mask="url(#mask3_248_3814)">
<mask id="mask4_248_3814" style="mask-type:luminance" maskUnits="userSpaceOnUse" x="63" y="18" width="39" height="55">
<path d="M63.835 18.3633C63.3311 18.3633 63.0771 18.6172 63.0771 19.1211V27.4844C63.0771 27.9922 63.3311 28.2461 63.835 28.2461H76.2295C76.7373 28.2461 76.9912 28.5 76.9912 29.0078V72.1172C76.9912 72.6211 77.2451 72.875 77.7529 72.875H87.2568C87.7646 72.875 88.0146 72.6211 88.0146 72.1172V29.0078C88.0146 28.5 88.2725 28.2461 88.7803 28.2461H101.171C101.679 28.2461 101.937 27.9922 101.937 27.4844V19.1211C101.937 18.6172 101.679 18.3633 101.171 18.3633H63.835Z" fill="white"/>
</mask>
<g mask="url(#mask4_248_3814)">
<path d="M63.0771 18.3633V72.875H101.937V18.3633H63.0771Z" fill="url(#paint1_linear_248_3814)"/>
</g>
</g>
<path d="M8.83487 13.75L1.76065 13.7578C-0.204193 13.7578 0.00674428 13.75 0.0106505 11.3008L0.00283798 5.62109C0.00283798 3.53906 -0.157318 3.49219 1.92862 3.49219H10.0536C11.1552 3.49219 11.0849 3.85547 11.0849 5.9375L11.0888 11.8555C11.0888 13.9375 10.9169 13.75 8.83487 13.75Z" fill="#5C1019"/>
<mask id="mask5_248_3814" style="mask-type:luminance" maskUnits="userSpaceOnUse" x="15" y="0" width="12" height="14">
<path d="M15.9326 0H26.9326V13.9375H15.9326V0Z" fill="white"/>
</mask>
<g mask="url(#mask5_248_3814)">
<path d="M20.3623 7.69141C19.9873 7.69141 19.5811 7.64453 19.1475 7.54688C18.7178 7.45312 18.3271 7.26172 17.9756 6.98047C17.7646 6.8125 17.5928 6.60937 17.4521 6.37109C17.3154 6.13281 17.1982 5.87891 17.1045 5.60156C17.0146 5.33203 16.9482 5.05078 16.9053 4.76562C16.8623 4.48047 16.8428 4.19922 16.8428 3.91797V3.57031C16.8428 3.46094 16.8545 3.34766 16.8779 3.24219C16.9639 2.18359 17.3584 1.36328 18.0654 0.78125C18.2725 0.609375 18.5264 0.445312 18.8311 0.285156C19.1318 0.128906 19.4326 0.0507812 19.7217 0.0507812H25.7646C25.8818 0.0507812 25.9443 0.109375 25.9443 0.230469V2.23828C25.9443 2.35938 25.8818 2.42188 25.7646 2.42188H20.4912C20.3232 2.42188 20.1631 2.49609 20.0264 2.64844C19.8857 2.80078 19.7842 2.94531 19.7217 3.07812C19.6631 3.19922 19.6279 3.32031 19.6123 3.44531C19.6045 3.5625 19.5967 3.68359 19.5967 3.80859C19.5967 4.00391 19.6084 4.20313 19.6318 4.41016C19.6592 4.61719 19.7451 4.79688 19.8896 4.95703C20.0225 5.08984 20.2061 5.16797 20.4443 5.19141C20.6826 5.21875 20.9404 5.23047 21.2217 5.23047H23.2646C23.6396 5.23047 24.0342 5.28125 24.4482 5.38281C24.8623 5.48828 25.2451 5.6875 25.6006 5.97656C25.8037 6.14844 25.9795 6.35547 26.1201 6.59766C26.2568 6.84375 26.374 7.10156 26.4639 7.38281C26.5576 7.66406 26.6201 7.95703 26.6553 8.25781C26.6943 8.5625 26.7139 8.85547 26.7139 9.13672V9.51562C26.7139 9.625 26.6982 9.73047 26.6748 9.82812C26.5771 10.9336 26.1904 11.7852 25.5107 12.3828C25.2998 12.5508 25.0498 12.7188 24.749 12.8828C24.4521 13.0469 24.1709 13.1289 23.9014 13.1289H17.2607C17.1396 13.1289 17.0811 13.0664 17.0811 12.9492V10.9414C17.0811 10.8203 17.1396 10.7578 17.2607 10.7578H23.1357C23.3193 10.7578 23.4756 10.668 23.6123 10.4961C23.7451 10.3164 23.8389 10.1562 23.9014 10.0117C23.9639 9.875 23.999 9.75 24.0107 9.625C24.0264 9.50781 24.0303 9.375 24.0303 9.24609C24.0303 9.05078 24.0186 8.84766 23.9951 8.63281C23.9717 8.42188 23.8857 8.22656 23.7373 8.05469C23.6162 7.92578 23.4443 7.83203 23.2178 7.77734C22.9912 7.72266 22.7256 7.69141 22.4248 7.69141H20.3623Z" fill="#383436"/>
</g>
<path d="M33.8623 10.9961C33.9834 10.9961 34.0459 10.9336 34.0459 10.8125V9.71875C34.0459 9.59766 33.9834 9.53516 33.8623 9.53516H30.6162C30.4443 9.53516 30.3037 9.60547 30.1982 9.74609C30.0889 9.88672 30.0342 10.043 30.0342 10.2109C30.0342 10.418 30.0928 10.6016 30.2139 10.7578C30.335 10.9141 30.5068 10.9961 30.7256 10.9961H33.8623ZM28.5889 3.625H33.7373C34.1982 3.625 34.5928 3.72656 34.9131 3.92578C35.2373 4.125 35.4951 4.38281 35.6982 4.69922C35.8975 5.01562 36.042 5.37109 36.1357 5.75781C36.2256 6.14844 36.2725 6.53906 36.2725 6.92578V12.9492C36.2725 13.0703 36.21 13.1289 36.0889 13.1289H29.7217C29.3584 13.1289 29.0576 13.0156 28.8311 12.793C28.5967 12.5664 28.417 12.3008 28.292 12C28.1592 11.6953 28.0732 11.3906 28.0264 11.0859C27.9756 10.7812 27.9521 10.5508 27.9521 10.3906C27.9521 10.1016 27.9912 9.78125 28.0615 9.42578C28.1357 9.07422 28.249 8.74609 28.4092 8.45312C28.5654 8.15234 28.7725 7.90234 29.0303 7.69141C29.2842 7.48828 29.5928 7.38281 29.96 7.38281H33.0068C33.3232 7.38281 33.5732 7.30859 33.7607 7.15625C33.9521 7.00391 34.0459 6.82422 34.0459 6.61719C34.0459 6.44922 33.9834 6.27734 33.8623 6.10938C33.7412 5.93359 33.5811 5.84766 33.3896 5.84766H28.5889C28.4678 5.84766 28.4092 5.78906 28.4092 5.66797V3.80859C28.4092 3.68359 28.4678 3.625 28.5889 3.625Z" fill="#383436"/>
<mask id="mask6_248_3814" style="mask-type:luminance" maskUnits="userSpaceOnUse" x="36" y="0" width="5" height="14">
<path d="M36.9326 0H40.9326V13.9375H36.9326V0Z" fill="white"/>
</mask>
<g mask="url(#mask6_248_3814)">
<path d="M37.7295 3.80859C37.7295 3.68359 37.792 3.625 37.9131 3.625H39.7725C39.8975 3.625 39.9561 3.68359 39.9561 3.80859V12.9492C39.9561 13.0664 39.8975 13.1289 39.7725 13.1289H37.9131C37.792 13.1289 37.7295 13.0664 37.7295 12.9492V3.80859ZM37.9131 0.0507812H39.7725C39.8975 0.0507812 39.9561 0.109375 39.9561 0.230469V2.09375C39.9561 2.21484 39.8975 2.27344 39.7725 2.27344H37.9131C37.792 2.27344 37.7295 2.21484 37.7295 2.09375V0.230469C37.7295 0.109375 37.792 0.0507812 37.9131 0.0507812Z" fill="#383436"/>
</g>
<path d="M43.7139 12.5469C43.7139 12.9336 43.542 13.1289 43.2061 13.1289H41.9795C41.8115 13.1289 41.6865 13.0547 41.6084 12.9102C41.5303 12.7656 41.4912 12.5937 41.4912 12.4023V4.82812C41.4912 4.52734 41.6123 4.24609 41.8623 4C42.1123 3.75 42.4287 3.625 42.8193 3.625H46.9443C47.3818 3.625 47.7881 3.71094 48.167 3.89062C48.542 4.06641 48.874 4.30078 49.1592 4.58984C49.4443 4.88281 49.667 5.21875 49.8271 5.59375C49.9834 5.97266 50.0654 6.35937 50.0654 6.76172V12.9453C50.0654 13.0703 49.9951 13.1289 49.8623 13.1289H48.0225C47.8975 13.1289 47.835 13.0703 47.835 12.9453V7.14453C47.835 6.83984 47.792 6.58984 47.7021 6.39844C47.6084 6.20312 47.4834 6.05078 47.3154 5.94141C47.1514 5.83203 46.96 5.75781 46.7412 5.71484C46.5225 5.67187 46.2881 5.65234 46.0303 5.65234H44.2646C44.1279 5.65234 44.0029 5.69922 43.8896 5.79688C43.7725 5.89062 43.7139 5.99609 43.7139 6.10547V12.5469Z" fill="#383436"/>
<path d="M54.624 10.7227C54.624 10.8438 54.6826 10.9023 54.8076 10.9023H56.3389C56.4365 10.918 56.4834 10.9766 56.4834 11.0859V12.9453C56.4834 13.0703 56.4209 13.1289 56.3037 13.1289H54.0029C53.542 13.1289 53.1592 12.9922 52.8545 12.7109C52.5498 12.4297 52.3975 12.1016 52.3975 11.7227V6.03516C52.3975 5.91016 52.3389 5.85156 52.2139 5.85156H51.249C51.1279 5.85156 51.0654 5.78906 51.0654 5.66797V3.80859C51.0654 3.6875 51.1279 3.625 51.249 3.625H52.2139C52.3389 3.625 52.3975 3.56641 52.3975 3.44141V1.16406C52.3975 1.03906 52.46 0.976562 52.5811 0.976562H54.4404C54.5615 0.976562 54.624 1.03906 54.624 1.16406V3.44141C54.624 3.56641 54.6826 3.625 54.8076 3.625H56.3037C56.4209 3.625 56.4834 3.6875 56.4834 3.80859V5.66797C56.4834 5.78906 56.4209 5.85156 56.3037 5.85156H54.8076C54.6826 5.85156 54.624 5.91016 54.624 6.03516V10.7227Z" fill="#383436"/>
<path d="M57.7061 6.45312C57.7061 6.34375 57.7686 6.28906 57.8896 6.28906H62.3779C62.499 6.28906 62.5576 6.34766 62.5576 6.46875V8.44141C62.5576 8.5625 62.499 8.62109 62.3779 8.62109H57.8896C57.7686 8.62109 57.7061 8.5625 57.7061 8.44141V6.45312Z" fill="#383436"/>
<mask id="mask7_248_3814" style="mask-type:luminance" maskUnits="userSpaceOnUse" x="63" y="0" width="15" height="14">
<path d="M63.9326 0H77.9326V13.9375H63.9326V0Z" fill="white"/>
</mask>
<g mask="url(#mask7_248_3814)">
<path d="M64.0732 2.12891C64.0732 1.72656 64.1475 1.39453 64.292 1.125C64.4365 0.859375 64.6318 0.644531 64.8779 0.488281C65.1201 0.328125 65.3975 0.214843 65.7061 0.148438C66.0146 0.0820305 66.335 0.0507812 66.6631 0.0507812C67.1865 0.0507812 67.6123 0.078125 67.9404 0.140625C68.2686 0.199219 68.542 0.339844 68.7529 0.550781C68.9639 0.765625 69.1357 1.08594 69.2529 1.50781C69.374 1.93359 69.499 2.51172 69.6201 3.24219L70.6045 9.27734C70.6162 9.32812 70.6318 9.41016 70.6514 9.51562C70.667 9.62891 70.6943 9.73828 70.7256 9.84375C70.7529 9.95312 70.7842 10.0547 70.8115 10.1406C70.8428 10.2227 70.874 10.2656 70.8975 10.2656C70.9209 10.2656 70.9521 10.2227 70.9873 10.1406C71.0225 10.0547 71.0537 9.95312 71.0771 9.84375C71.1045 9.73828 71.1279 9.62891 71.1514 9.52734C71.1748 9.42578 71.1865 9.35937 71.1865 9.33594L72.1357 3.16797C72.249 2.46484 72.3662 1.90234 72.4912 1.48438C72.6201 1.05859 72.792 0.75 73.0029 0.542969C73.2178 0.335938 73.4912 0.199219 73.835 0.140625C74.1748 0.078125 74.6123 0.0507812 75.1475 0.0507812C75.9131 0.0507812 76.542 0.199219 77.0264 0.503906C77.5146 0.808594 77.7568 1.33203 77.7568 2.07422V12.9453C77.7568 13.0703 77.6943 13.1289 77.5732 13.1289H75.292C75.1709 13.1289 75.1123 13.0703 75.1123 12.9453V3.00391C75.1123 2.98047 75.1045 2.92969 75.0928 2.84766C75.0811 2.77344 75.042 2.73438 74.9834 2.73438C74.9209 2.73438 74.874 2.75391 74.8467 2.79297C74.8154 2.83594 74.7881 2.88281 74.7646 2.93359C74.7529 2.95703 74.7373 3.01172 74.7178 3.09766C74.7021 3.17969 74.6826 3.27344 74.6631 3.36719C74.6475 3.46875 74.6279 3.5625 74.6084 3.66016C74.5928 3.75781 74.5771 3.83203 74.5615 3.87891C74.4912 4.18359 74.4209 4.50391 74.3506 4.83594C74.2881 5.17187 74.1904 5.61719 74.0693 6.17188C73.9482 6.72266 73.7998 7.42969 73.624 8.28516C73.4482 9.14453 73.2139 10.2422 72.9209 11.5781C72.8857 11.7734 72.8232 11.9609 72.7373 12.1445C72.6514 12.3281 72.5342 12.4922 72.3818 12.6367C72.2334 12.7812 72.0264 12.9023 71.7725 12.9922C71.5186 13.082 71.1943 13.1289 70.8037 13.1289C70.4521 13.1289 70.1631 13.0859 69.9404 13C69.7139 12.918 69.5303 12.8086 69.3818 12.6836C69.2334 12.5547 69.1279 12.4102 69.0537 12.2539C68.9795 12.0977 68.9248 11.9414 68.8896 11.7969L67.0654 3.11328C67.0537 3.08984 67.0303 3.01953 66.999 2.90234C66.9717 2.78906 66.9326 2.72266 66.8818 2.71484H66.792C66.7412 2.71484 66.7178 2.75391 66.7178 2.83984V12.9453C66.7178 13.0703 66.6553 13.1289 66.5342 13.1289H64.2568C64.1318 13.1289 64.0732 13.0703 64.0732 12.9453V2.12891Z" fill="#383436"/>
</g>
<path d="M85.0537 10.9961C85.1748 10.9961 85.2334 10.9336 85.2334 10.8125V9.71875C85.2334 9.59766 85.1748 9.53516 85.0537 9.53516H81.8037C81.6357 9.53516 81.4951 9.60547 81.3857 9.74609C81.2764 9.88672 81.2217 10.043 81.2217 10.2109C81.2217 10.418 81.2803 10.6016 81.4053 10.7578C81.5264 10.9141 81.6943 10.9961 81.917 10.9961H85.0537ZM79.7803 3.625H84.9248C85.3896 3.625 85.7803 3.72656 86.1045 3.92578C86.4248 4.125 86.6865 4.38281 86.8896 4.69922C87.0889 5.01562 87.2334 5.37109 87.3271 5.75781C87.417 6.14844 87.4639 6.53906 87.4639 6.92578V12.9492C87.4639 13.0703 87.4014 13.1289 87.2764 13.1289H80.9131C80.5459 13.1289 80.249 13.0156 80.0186 12.793C79.7842 12.5664 79.6084 12.3008 79.4795 12C79.3506 11.6953 79.2646 11.3906 79.2178 11.0859C79.167 10.7812 79.1436 10.5508 79.1436 10.3906C79.1436 10.1016 79.1787 9.78125 79.2529 9.42578C79.3271 9.07422 79.4404 8.74609 79.5967 8.45312C79.7568 8.15234 79.9639 7.90234 80.2178 7.69141C80.4756 7.48828 80.7842 7.38281 81.1514 7.38281H84.1943C84.5146 7.38281 84.7646 7.30859 84.9521 7.15625C85.1436 7.00391 85.2334 6.82422 85.2334 6.61719C85.2334 6.44922 85.1748 6.27734 85.0537 6.10938C84.9326 5.93359 84.7725 5.84766 84.5811 5.84766H79.7803C79.6592 5.84766 79.5967 5.78906 79.5967 5.66797V3.80859C79.5967 3.68359 79.6592 3.625 79.7803 3.625Z" fill="#383436"/>
<mask id="mask8_248_3814" style="mask-type:luminance" maskUnits="userSpaceOnUse" x="87" y="0" width="5" height="14">
<path d="M87.9326 0H91.9326V13.9375H87.9326V0Z" fill="white"/>
</mask>
<g mask="url(#mask8_248_3814)">
<path d="M89.1045 0.0507812H90.9639C91.085 0.0507812 91.1475 0.109375 91.1475 0.230469V12.9492C91.1475 13.0703 91.085 13.1289 90.9639 13.1289H89.1045C88.9795 13.1289 88.9209 13.0703 88.9209 12.9492V0.230469C88.9209 0.109375 88.9795 0.0507812 89.1045 0.0507812Z" fill="#383436"/>
</g>
<path d="M99.5186 6.76172C99.5186 6.61719 99.4717 6.48437 99.3818 6.37109C99.292 6.25781 99.1748 6.15625 99.0264 6.07812C98.8818 6 98.7178 5.94141 98.5342 5.90625C98.3545 5.86719 98.167 5.85156 97.9873 5.85156H95.999C95.8389 5.85156 95.6826 5.86719 95.5264 5.89844C95.3662 5.92578 95.2217 5.97656 95.0967 6.05078C94.9678 6.125 94.8584 6.22266 94.7764 6.34375C94.6904 6.46484 94.6514 6.60938 94.6514 6.78125V9.69922C94.6514 9.94531 94.7021 10.1445 94.8037 10.3008C94.9053 10.4609 95.0381 10.5859 95.1943 10.6758C95.3545 10.7656 95.5264 10.8281 95.7061 10.8594C95.8896 10.8906 96.0576 10.9023 96.2178 10.9023H97.8975C98.335 10.9023 98.7139 10.8008 99.0381 10.5938C99.3584 10.3867 99.5186 10.125 99.5186 9.80859V6.76172ZM101.761 9.44531C101.761 10.1758 101.702 10.7773 101.569 11.25C101.444 11.7227 101.249 12.1016 100.987 12.3828C100.726 12.6641 100.397 12.8555 99.9912 12.9648C99.5928 13.0742 99.1123 13.1289 98.5537 13.1289H95.3037C94.7451 13.1289 94.2842 13.0312 93.917 12.8281C93.5537 12.6289 93.2607 12.3672 93.042 12.043C92.8271 11.7227 92.6709 11.3594 92.5889 10.9492C92.5029 10.543 92.46 10.125 92.46 9.69922V6.49219C92.46 6.05078 92.5381 5.65625 92.6865 5.30078C92.8389 4.95313 93.042 4.64844 93.2959 4.40234C93.5537 4.15234 93.8545 3.95703 94.2021 3.82812C94.5498 3.69141 94.917 3.625 95.3037 3.625H98.9912C99.3193 3.625 99.6514 3.68359 99.9873 3.80859C100.319 3.92969 100.616 4.10938 100.878 4.34375C101.14 4.58203 101.354 4.86719 101.519 5.20312C101.683 5.53906 101.761 5.92188 101.761 6.35938V9.44531Z" fill="#383436"/>
<defs>
<linearGradient id="paint0_linear_248_3814" x1="13.7085" y1="21.6888" x2="61.5689" y2="69.5491" gradientUnits="userSpaceOnUse">
<stop stop-color="#661218"/>
<stop offset="0.0078125" stop-color="#661218"/>
<stop offset="0.015625" stop-color="#671218"/>
<stop offset="0.0234375" stop-color="#681218"/>
<stop offset="0.03125" stop-color="#681319"/>
<stop offset="0.0390625" stop-color="#691319"/>
<stop offset="0.046875" stop-color="#6A1319"/>
<stop offset="0.0546875" stop-color="#6B1319"/>
<stop offset="0.0625" stop-color="#6C1319"/>
<stop offset="0.0703125" stop-color="#6C131A"/>
<stop offset="0.078125" stop-color="#6D131A"/>
<stop offset="0.0859375" stop-color="#6E131A"/>
<stop offset="0.09375" stop-color="#6F141A"/>
<stop offset="0.101562" stop-color="#70141A"/>
<stop offset="0.109375" stop-color="#71141B"/>
<stop offset="0.117188" stop-color="#72141B"/>
<stop offset="0.125" stop-color="#73141B"/>
<stop offset="0.132812" stop-color="#74141B"/>
<stop offset="0.136719" stop-color="#75141B"/>
<stop offset="0.140625" stop-color="#75141B"/>
<stop offset="0.144531" stop-color="#76141C"/>
<stop offset="0.148438" stop-color="#76141C"/>
<stop offset="0.152344" stop-color="#76151C"/>
<stop offset="0.15625" stop-color="#77151C"/>
<stop offset="0.160156" stop-color="#77151C"/>
<stop offset="0.164062" stop-color="#78151C"/>
<stop offset="0.167969" stop-color="#78151C"/>
<stop offset="0.171875" stop-color="#79151C"/>
<stop offset="0.175781" stop-color="#79151C"/>
<stop offset="0.179688" stop-color="#7A151D"/>
<stop offset="0.183594" stop-color="#7A151D"/>
<stop offset="0.1875" stop-color="#7B151D"/>
<stop offset="0.191406" stop-color="#7B151D"/>
<stop offset="0.195312" stop-color="#7C151D"/>
<stop offset="0.199219" stop-color="#7C151D"/>
<stop offset="0.203125" stop-color="#7D151D"/>
<stop offset="0.207031" stop-color="#7D151D"/>
<stop offset="0.210938" stop-color="#7E161D"/>
<stop offset="0.214844" stop-color="#7E161E"/>
<stop offset="0.21875" stop-color="#7F161E"/>
<stop offset="0.222656" stop-color="#7F161E"/>
<stop offset="0.226562" stop-color="#80161E"/>
<stop offset="0.230469" stop-color="#80161E"/>
<stop offset="0.234375" stop-color="#81161E"/>
<stop offset="0.238281" stop-color="#81161E"/>
<stop offset="0.242187" stop-color="#82161E"/>
<stop offset="0.246094" stop-color="#82161E"/>
<stop offset="0.25" stop-color="#83161F"/>
<stop offset="0.253906" stop-color="#83161F"/>
<stop offset="0.257812" stop-color="#84161F"/>
<stop offset="0.261719" stop-color="#84161F"/>
<stop offset="0.265625" stop-color="#85161F"/>
<stop offset="0.269531" stop-color="#85171F"/>
<stop offset="0.273437" stop-color="#86171F"/>
<stop offset="0.277344" stop-color="#87171F"/>
<stop offset="0.28125" stop-color="#87171F"/>
<stop offset="0.285156" stop-color="#881720"/>
<stop offset="0.289062" stop-color="#881720"/>
<stop offset="0.292969" stop-color="#891720"/>
<stop offset="0.296875" stop-color="#891720"/>
<stop offset="0.300781" stop-color="#8A1720"/>
<stop offset="0.304688" stop-color="#8A1720"/>
<stop offset="0.308594" stop-color="#8B1720"/>
<stop offset="0.3125" stop-color="#8B1720"/>
<stop offset="0.316406" stop-color="#8C1721"/>
<stop offset="0.320312" stop-color="#8C1721"/>
<stop offset="0.324219" stop-color="#8D1721"/>
<stop offset="0.328125" stop-color="#8E1821"/>
<stop offset="0.332031" stop-color="#8E1821"/>
<stop offset="0.335938" stop-color="#8F1821"/>
<stop offset="0.339844" stop-color="#8F1821"/>
<stop offset="0.34375" stop-color="#901821"/>
<stop offset="0.347656" stop-color="#901821"/>
<stop offset="0.351563" stop-color="#911822"/>
<stop offset="0.355469" stop-color="#911822"/>
<stop offset="0.359375" stop-color="#921822"/>
<stop offset="0.363281" stop-color="#931822"/>
<stop offset="0.367188" stop-color="#931822"/>
<stop offset="0.371094" stop-color="#941822"/>
<stop offset="0.375" stop-color="#941822"/>
<stop offset="0.378906" stop-color="#951822"/>
<stop offset="0.382812" stop-color="#951823"/>
<stop offset="0.386719" stop-color="#961923"/>
<stop offset="0.390625" stop-color="#961923"/>
<stop offset="0.394531" stop-color="#971923"/>
<stop offset="0.398437" stop-color="#981923"/>
<stop offset="0.402344" stop-color="#981923"/>
<stop offset="0.40625" stop-color="#991923"/>
<stop offset="0.410156" stop-color="#991923"/>
<stop offset="0.414062" stop-color="#9A1923"/>
<stop offset="0.417969" stop-color="#9A1924"/>
<stop offset="0.421875" stop-color="#9B1924"/>
<stop offset="0.425781" stop-color="#9C1924"/>
<stop offset="0.429688" stop-color="#9C1924"/>
<stop offset="0.433594" stop-color="#9D1924"/>
<stop offset="0.4375" stop-color="#9D1924"/>
<stop offset="0.441406" stop-color="#9E1A24"/>
<stop offset="0.445312" stop-color="#9F1A24"/>
<stop offset="0.449219" stop-color="#9F1A25"/>
<stop offset="0.453125" stop-color="#A01A25"/>
<stop offset="0.457031" stop-color="#A01A25"/>
<stop offset="0.460938" stop-color="#A11A25"/>
<stop offset="0.464844" stop-color="#A21A25"/>
<stop offset="0.46875" stop-color="#A21A25"/>
<stop offset="0.472656" stop-color="#A31A25"/>
<stop offset="0.476562" stop-color="#A31A25"/>
<stop offset="0.480469" stop-color="#A41A26"/>
<stop offset="0.484375" stop-color="#A51A26"/>
<stop offset="0.488281" stop-color="#A51A26"/>
<stop offset="0.492188" stop-color="#A61A26"/>
<stop offset="0.496094" stop-color="#A61A26"/>
<stop offset="0.5" stop-color="#A71B26"/>
<stop offset="0.503906" stop-color="#A81B26"/>
<stop offset="0.507812" stop-color="#A81B26"/>
<stop offset="0.511719" stop-color="#A91B27"/>
<stop offset="0.515625" stop-color="#A91B27"/>
<stop offset="0.519531" stop-color="#AA1B27"/>
<stop offset="0.523438" stop-color="#AB1B27"/>
<stop offset="0.527344" stop-color="#AB1B27"/>
<stop offset="0.53125" stop-color="#AC1B27"/>
<stop offset="0.535156" stop-color="#AC1B27"/>
<stop offset="0.539062" stop-color="#AD1B28"/>
<stop offset="0.542969" stop-color="#AE1B28"/>
<stop offset="0.546875" stop-color="#AE1B28"/>
<stop offset="0.550781" stop-color="#AF1B28"/>
<stop offset="0.554687" stop-color="#B01B28"/>
<stop offset="0.558594" stop-color="#B01C28"/>
<stop offset="0.5625" stop-color="#B11C28"/>
<stop offset="0.566406" stop-color="#B11C28"/>
<stop offset="0.570312" stop-color="#B21C29"/>
<stop offset="0.574219" stop-color="#B31C29"/>
<stop offset="0.578125" stop-color="#B31C29"/>
<stop offset="0.582031" stop-color="#B41C29"/>
<stop offset="0.585938" stop-color="#B51C29"/>
<stop offset="0.589844" stop-color="#B51C29"/>
<stop offset="0.59375" stop-color="#B61C29"/>
<stop offset="0.597656" stop-color="#B71C29"/>
<stop offset="0.601562" stop-color="#B71C2A"/>
<stop offset="0.605469" stop-color="#B81C2A"/>
<stop offset="0.609375" stop-color="#B81C2A"/>
<stop offset="0.613281" stop-color="#B91D2A"/>
<stop offset="0.617188" stop-color="#BA1D2A"/>
<stop offset="0.621094" stop-color="#BA1D2A"/>
<stop offset="0.625" stop-color="#BB1D2A"/>
<stop offset="0.628906" stop-color="#BC1D2B"/>
<stop offset="0.632812" stop-color="#BC1D2B"/>
<stop offset="0.636719" stop-color="#BD1D2B"/>
<stop offset="0.640625" stop-color="#BE1D2B"/>
<stop offset="0.644531" stop-color="#BE1D2B"/>
<stop offset="0.648438" stop-color="#BF1D2B"/>
<stop offset="0.652344" stop-color="#C01D2B"/>
<stop offset="0.65625" stop-color="#C01D2B"/>
<stop offset="0.660156" stop-color="#C11D2C"/>
<stop offset="0.664062" stop-color="#C21D2C"/>
<stop offset="0.667969" stop-color="#C21D2C"/>
<stop offset="0.671875" stop-color="#C31E2C"/>
<stop offset="0.675781" stop-color="#C41E2C"/>
<stop offset="0.679688" stop-color="#C41E2C"/>
<stop offset="0.683594" stop-color="#C51E2C"/>
<stop offset="0.6875" stop-color="#C61E2D"/>
<stop offset="0.691406" stop-color="#C61E2D"/>
<stop offset="0.695313" stop-color="#C71E2D"/>
<stop offset="0.699219" stop-color="#C81E2D"/>
<stop offset="0.703125" stop-color="#C81E2D"/>
<stop offset="0.707031" stop-color="#C91E2D"/>
<stop offset="0.710938" stop-color="#CA1E2D"/>
<stop offset="0.714844" stop-color="#CA1E2E"/>
<stop offset="0.71875" stop-color="#CB1E2E"/>
<stop offset="0.722656" stop-color="#CC1E2E"/>
<stop offset="0.726562" stop-color="#CC1F2E"/>
<stop offset="0.730469" stop-color="#CD1F2E"/>
<stop offset="0.734375" stop-color="#CE1F2E"/>
<stop offset="0.738281" stop-color="#CF1F2E"/>
<stop offset="0.742188" stop-color="#CF1F2E"/>
<stop offset="0.746094" stop-color="#D01F2F"/>
<stop offset="0.75" stop-color="#D11F2F"/>
<stop offset="0.753906" stop-color="#D11F2F"/>
<stop offset="0.757812" stop-color="#D21F2F"/>
<stop offset="0.761719" stop-color="#D31F2F"/>
<stop offset="0.765625" stop-color="#D31F2F"/>
<stop offset="0.769531" stop-color="#D41F2F"/>
<stop offset="0.773438" stop-color="#D51F30"/>
<stop offset="0.777344" stop-color="#D61F30"/>
<stop offset="0.78125" stop-color="#D62030"/>
<stop offset="0.785156" stop-color="#D72030"/>
<stop offset="0.789062" stop-color="#D82030"/>
<stop offset="0.792969" stop-color="#D82030"/>
<stop offset="0.796875" stop-color="#D92030"/>
<stop offset="0.800781" stop-color="#DA2031"/>
<stop offset="0.804687" stop-color="#DB2031"/>
<stop offset="0.808594" stop-color="#DB2031"/>
<stop offset="0.8125" stop-color="#DC2031"/>
<stop offset="0.816406" stop-color="#DD2031"/>
<stop offset="0.820312" stop-color="#DD2031"/>
<stop offset="0.824219" stop-color="#DE2031"/>
<stop offset="0.828125" stop-color="#DF2032"/>
<stop offset="0.832031" stop-color="#E02032"/>
<stop offset="0.835938" stop-color="#E02032"/>
<stop offset="0.839844" stop-color="#E12132"/>
<stop offset="0.84375" stop-color="#E22132"/>
<stop offset="0.847656" stop-color="#E22132"/>
<stop offset="0.851562" stop-color="#E32132"/>
<stop offset="0.855469" stop-color="#E42133"/>
<stop offset="0.859375" stop-color="#E52133"/>
<stop offset="0.863281" stop-color="#E52133"/>
<stop offset="0.867188" stop-color="#E62133"/>
<stop offset="0.871094" stop-color="#E72133"/>
<stop offset="0.875" stop-color="#E82133"/>
<stop offset="0.878906" stop-color="#E82133"/>
<stop offset="0.882812" stop-color="#E92134"/>
<stop offset="0.886719" stop-color="#EA2134"/>
<stop offset="0.890625" stop-color="#EB2134"/>
<stop offset="0.894531" stop-color="#EB2234"/>
<stop offset="0.898438" stop-color="#EC2234"/>
<stop offset="0.902344" stop-color="#ED2234"/>
<stop offset="0.90625" stop-color="#EE2235"/>
<stop offset="0.9375" stop-color="#EE2235"/>
<stop offset="1" stop-color="#EE2235"/>
</linearGradient>
<linearGradient id="paint1_linear_248_3814" x1="63.0775" y1="45.6185" x2="101.935" y2="45.6185" gradientUnits="userSpaceOnUse">
<stop stop-color="#A41F22"/>
<stop offset="0.0078125" stop-color="#A41F22"/>
<stop offset="0.015625" stop-color="#A51F23"/>
<stop offset="0.0234375" stop-color="#A61F23"/>
<stop offset="0.03125" stop-color="#A71F23"/>
<stop offset="0.0390625" stop-color="#A81F23"/>
<stop offset="0.046875" stop-color="#A91F23"/>
<stop offset="0.0546875" stop-color="#A91F24"/>
<stop offset="0.0625" stop-color="#AA1F24"/>
<stop offset="0.0703125" stop-color="#AB1F24"/>
<stop offset="0.078125" stop-color="#AC1F24"/>
<stop offset="0.0859375" stop-color="#AD1F24"/>
<stop offset="0.09375" stop-color="#AE1F25"/>
<stop offset="0.101562" stop-color="#AE1F25"/>
<stop offset="0.109375" stop-color="#AF1F25"/>
<stop offset="0.117188" stop-color="#B01F25"/>
<stop offset="0.125" stop-color="#B11F25"/>
<stop offset="0.132812" stop-color="#B21F26"/>
<stop offset="0.140625" stop-color="#B31F26"/>
<stop offset="0.148438" stop-color="#B31F26"/>
<stop offset="0.15625" stop-color="#B41F26"/>
<stop offset="0.164062" stop-color="#B52026"/>
<stop offset="0.171875" stop-color="#B62027"/>
<stop offset="0.179687" stop-color="#B72027"/>
<stop offset="0.1875" stop-color="#B72027"/>
<stop offset="0.195312" stop-color="#B82027"/>
<stop offset="0.203125" stop-color="#B92027"/>
<stop offset="0.210937" stop-color="#BA2028"/>
<stop offset="0.21875" stop-color="#BB2028"/>
<stop offset="0.226562" stop-color="#BB2028"/>
<stop offset="0.234375" stop-color="#BC2028"/>
<stop offset="0.242187" stop-color="#BD2028"/>
<stop offset="0.25" stop-color="#BE2028"/>
<stop offset="0.257812" stop-color="#BF2029"/>
<stop offset="0.265625" stop-color="#BF2029"/>
<stop offset="0.273438" stop-color="#C02029"/>
<stop offset="0.28125" stop-color="#C12029"/>
<stop offset="0.289062" stop-color="#C22029"/>
<stop offset="0.296875" stop-color="#C2202A"/>
<stop offset="0.304687" stop-color="#C3202A"/>
<stop offset="0.3125" stop-color="#C4202A"/>
<stop offset="0.320312" stop-color="#C5202A"/>
<stop offset="0.328125" stop-color="#C5202A"/>
<stop offset="0.335938" stop-color="#C6202B"/>
<stop offset="0.34375" stop-color="#C7202B"/>
<stop offset="0.351562" stop-color="#C7202B"/>
<stop offset="0.359375" stop-color="#C8202B"/>
<stop offset="0.367187" stop-color="#C9202B"/>
<stop offset="0.375" stop-color="#CA202B"/>
<stop offset="0.382812" stop-color="#CA212C"/>
<stop offset="0.390625" stop-color="#CB212C"/>
<stop offset="0.398438" stop-color="#CC212C"/>
<stop offset="0.40625" stop-color="#CC212C"/>
<stop offset="0.414062" stop-color="#CD212C"/>
<stop offset="0.421875" stop-color="#CE212C"/>
<stop offset="0.429687" stop-color="#CE212D"/>
<stop offset="0.4375" stop-color="#CF212D"/>
<stop offset="0.445312" stop-color="#D0212D"/>
<stop offset="0.453125" stop-color="#D1212D"/>
<stop offset="0.460938" stop-color="#D1212D"/>
<stop offset="0.46875" stop-color="#D2212D"/>
<stop offset="0.484375" stop-color="#D3212E"/>
<stop offset="0.5" stop-color="#D4212E"/>
<stop offset="0.515625" stop-color="#D5212E"/>
<stop offset="0.53125" stop-color="#D7212F"/>
<stop offset="0.546875" stop-color="#D8212F"/>
<stop offset="0.5625" stop-color="#D9212F"/>
<stop offset="0.578125" stop-color="#DA2130"/>
<stop offset="0.59375" stop-color="#DB2130"/>
<stop offset="0.609375" stop-color="#DC2130"/>
<stop offset="0.625" stop-color="#DD2130"/>
<stop offset="0.640625" stop-color="#DF2131"/>
<stop offset="0.65625" stop-color="#E02131"/>
<stop offset="0.671875" stop-color="#E12131"/>
<stop offset="0.6875" stop-color="#E22131"/>
<stop offset="0.703125" stop-color="#E22132"/>
<stop offset="0.71875" stop-color="#E32132"/>
<stop offset="0.734375" stop-color="#E42132"/>
<stop offset="0.75" stop-color="#E52132"/>
<stop offset="0.765625" stop-color="#E62233"/>
<stop offset="0.78125" stop-color="#E72233"/>
<stop offset="0.796875" stop-color="#E82233"/>
<stop offset="0.8125" stop-color="#E82233"/>
<stop offset="0.84375" stop-color="#E92233"/>
<stop offset="0.875" stop-color="#EB2234"/>
<stop offset="0.90625" stop-color="#EC2234"/>
<stop offset="0.9375" stop-color="#EC2234"/>
<stop offset="1" stop-color="#ED2234"/>
</linearGradient>
</defs>
</svg>
