<svg width="169" height="56" viewBox="0 0 169 56" fill="none" xmlns="http://www.w3.org/2000/svg">
<path d="M6.9375 3.5625C4.42969 3.5625 2.80078 5.42578 2.80078 7.85547C2.80078 10.2813 4.42969 12.1445 6.9375 12.1445C9.44531 12.1445 11.0703 10.2813 11.0703 7.85547C11.0703 5.42578 9.44531 3.5625 6.9375 3.5625ZM6.9375 0.976562C11.0898 0.976562 13.8125 3.91797 13.8125 7.85547C13.8125 11.793 11.0898 14.7305 6.9375 14.7305C2.80078 14.7305 0.078125 11.793 0.078125 7.85547C0.078125 3.91797 2.80078 0.976562 6.9375 0.976562Z" fill="#231F20"/>
<path d="M20.125 12.2227C21.5547 12.2227 22.8086 11.2422 22.8086 9.5C22.8086 7.75781 21.5742 6.77734 20.0859 6.77734C19.3984 6.77734 18.6953 7.03125 18.1055 7.40234V11.4375C18.6172 11.9102 19.2031 12.2227 20.125 12.2227ZM15.4805 0H18.1055V4.875C18.8516 4.5625 19.5938 4.38672 20.3789 4.38672C23.1992 4.38672 25.3945 6.48047 25.3945 9.5C25.3945 12.4766 23.3945 14.6133 20.3789 14.6133C19.6719 14.6133 18.9102 14.4766 18.1055 13.9844V14.3984H15.4805V0Z" fill="#231F20"/>
<path d="M30.8047 12.4766C31.6484 12.4766 32.1953 12.1836 32.1953 11.6367C32.1953 11.1641 31.9609 10.9883 30.4531 10.6367L30.1992 10.5781C27.9453 10.0469 26.7305 9.20703 26.7305 7.44141C26.7305 5.85547 28.0625 4.38672 30.6289 4.38672C32.8242 4.38672 34.293 5.25 34.8008 6.93359L32.5508 7.79688C32.3125 7.05078 31.5898 6.48047 30.5898 6.48047C29.6875 6.48047 29.1797 6.89453 29.1797 7.30469C29.1797 7.83594 29.5508 8.05078 31 8.36328L31.1758 8.40234C33.7422 8.96875 34.7031 9.89062 34.7031 11.5547C34.7031 13.2227 33.2539 14.6133 30.8633 14.6133C28.5898 14.6133 27.1797 13.5742 26.418 12.1055L28.668 11.1641C29.043 11.9102 29.7852 12.4766 30.8047 12.4766Z" fill="#231F20"/>
<path d="M43.0312 8.53906C42.7969 7.36328 41.9336 6.75781 40.9336 6.75781C39.8398 6.75781 38.9375 7.26562 38.6445 8.53906H43.0312ZM40.8555 4.38672C43.7773 4.38672 45.5977 6.48047 45.5977 9.24609C45.5977 9.57812 45.5977 9.94922 45.5391 10.3203H38.625C38.8984 11.6758 39.8594 12.3008 41.0156 12.3008C42.0742 12.3008 42.7969 11.8711 43.4648 11.0469L45.3633 12.418C44.2656 13.7891 43.0312 14.6133 40.8555 14.6133C37.8203 14.6133 35.9805 12.3203 35.9805 9.46094C35.9805 6.69922 37.8203 4.38672 40.8555 4.38672Z" fill="#231F20"/>
<path d="M49.8359 4.60156V5.32812L52.8516 4.17188V6.71875L49.8359 7.89453V14.3984H47.2109V4.60156H49.8359Z" fill="#231F20"/>
<path d="M57.6562 14.3984L53.6758 4.60156H56.3594L58.9258 11.0078L61.3359 4.60156H64.0195L60.3398 14.3984H57.6562Z" fill="#231F20"/>
<path d="M69.8438 6.77734C68.3516 6.77734 67.1172 7.75781 67.1172 9.5C67.1172 11.2422 68.3516 12.2227 69.8438 12.2227C70.5273 12.2227 71.1953 12.0273 71.8203 11.5742V7.40234C71.2148 7.03125 70.5273 6.77734 69.8438 6.77734ZM74.4258 14.3984H71.8203V14.125C71.0938 14.457 70.332 14.6133 69.5469 14.6133C66.7266 14.6133 64.5352 12.4766 64.5352 9.5C64.5352 6.48047 66.7266 4.38672 69.5469 4.38672C70.332 4.38672 71.0938 4.52344 71.8203 4.875V4.60156H74.4258V14.3984Z" fill="#231F20"/>
<path d="M77.7422 4.60156V1.625H80.2461V4.60156H82.9688V6.97266H80.2461V14.3984H77.7422V6.97266H75.7812V4.60156H77.7422Z" fill="#231F20"/>
<path d="M88.3789 6.77734C86.8906 6.77734 85.7734 7.89453 85.7734 9.5C85.7734 11.1641 86.8906 12.2031 88.3789 12.2031C89.9102 12.2031 90.9844 11.1445 90.9844 9.5C90.9844 7.85547 89.8906 6.77734 88.3789 6.77734ZM88.3789 4.30859C91.4375 4.30859 93.5938 6.54297 93.5938 9.5C93.5938 12.457 91.4375 14.6914 88.3789 14.6914C85.3242 14.6914 83.1875 12.457 83.1875 9.5C83.1875 6.54297 85.3242 4.30859 88.3789 4.30859Z" fill="#231F20"/>
<path d="M97.7891 4.60156V14.3984H95.2031V4.60156H97.7891ZM97.7891 2.9375H95.2031V0.273438H97.7891V2.9375Z" fill="#231F20"/>
<path d="M102.488 4.60156V5.32812L105.508 4.17188V6.71875L102.488 7.89453V14.3984H99.8633V4.60156H102.488Z" fill="#231F20"/>
<path d="M113.211 8.53906C112.973 7.36328 112.113 6.75781 111.113 6.75781C110.016 6.75781 109.113 7.26562 108.82 8.53906H113.211ZM111.035 4.38672C113.953 4.38672 115.773 6.48047 115.773 9.24609C115.773 9.57812 115.773 9.94922 115.719 10.3203H108.801C109.074 11.6758 110.035 12.3008 111.191 12.3008C112.25 12.3008 112.973 11.8711 113.641 11.0469L115.539 12.418C114.441 13.7891 113.211 14.6133 111.035 14.6133C107.996 14.6133 106.156 12.3203 106.156 9.46094C106.156 6.69922 107.996 4.38672 111.035 4.38672Z" fill="#231F20"/>
<path d="M5.30859 26.9727C3.82031 26.9727 2.58594 27.9531 2.58594 29.6953C2.58594 31.4414 3.83984 32.4219 5.26953 32.4219C6.19141 32.4219 6.78125 32.1055 7.28906 31.6367V27.6016C6.69922 27.2266 5.99609 26.9727 5.30859 26.9727ZM7.28906 34.5938V34.1836C6.48438 34.6719 5.72266 34.8086 5.01562 34.8086C2 34.8086 0 32.6758 0 29.6953C0 26.6797 2.19531 24.5859 5.01562 24.5859C5.80078 24.5859 6.54297 24.7617 7.28906 25.0742V20.1953H9.91406V34.5938H7.28906Z" fill="#231F20"/>
<path d="M18.5977 28.7383C18.3594 27.5625 17.5 26.9531 16.5 26.9531C15.4023 26.9531 14.5039 27.4648 14.207 28.7383H18.5977ZM16.4219 24.5859C19.3398 24.5859 21.1602 26.6797 21.1602 29.4414C21.1602 29.7734 21.1602 30.1484 21.1016 30.5195H14.1875C14.4648 31.8711 15.4219 32.5 16.5781 32.5C17.6367 32.5 18.3594 32.0664 19.0273 31.2461L20.9258 32.6172C19.832 33.9883 18.5977 34.8086 16.4219 34.8086C13.3867 34.8086 11.543 32.5195 11.543 29.6562C11.543 26.8945 13.3867 24.5859 16.4219 24.5859Z" fill="#231F20"/>
<path d="M26.5742 32.6758C27.4141 32.6758 27.9648 32.3789 27.9648 31.832C27.9648 31.3633 27.7266 31.1875 26.2188 30.832L25.9648 30.7734C23.7109 30.2461 22.4961 29.4023 22.4961 27.6406C22.4961 26.0547 23.8281 24.5859 26.3945 24.5859C28.5898 24.5859 30.0586 25.4453 30.5703 27.1289L28.3164 27.9922C28.082 27.25 27.3555 26.6797 26.3555 26.6797C25.457 26.6797 24.9453 27.0898 24.9453 27.5039C24.9453 28.0313 25.3203 28.2461 26.7695 28.5586L26.9453 28.6016C29.5117 29.168 30.4727 30.0898 30.4727 31.7539C30.4727 33.418 29.0234 34.8086 26.6328 34.8086C24.3594 34.8086 22.9492 33.7734 22.1836 32.3008L24.4375 31.3633C24.8086 32.1055 25.5547 32.6758 26.5742 32.6758Z" fill="#231F20"/>
<path d="M40.3086 32.6758C41.1523 32.6758 41.6992 32.3789 41.6992 31.832C41.6992 31.3633 41.4648 31.1875 39.957 30.832L39.7031 30.7734C37.4492 30.2461 36.2344 29.4023 36.2344 27.6406C36.2344 26.0547 37.5664 24.5859 40.1328 24.5859C42.3281 24.5859 43.7969 25.4453 44.3047 27.1289L42.0508 27.9922C41.8164 27.25 41.0938 26.6797 40.0938 26.6797C39.1914 26.6797 38.6836 27.0898 38.6836 27.5039C38.6836 28.0313 39.0547 28.2461 40.5039 28.5586L40.6797 28.6016C43.2461 29.168 44.207 30.0898 44.207 31.7539C44.207 33.418 42.7578 34.8086 40.3672 34.8086C38.0937 34.8086 36.6836 33.7734 35.9219 32.3008L38.1719 31.3633C38.5469 32.1055 39.2891 32.6758 40.3086 32.6758Z" fill="#231F20"/>
<path d="M48.0898 29.6953C48.0898 31.3438 49.3242 32.4219 50.793 32.4219C51.8125 32.4219 52.8906 31.9688 53.5938 31.3047V34.1836C52.8906 34.5938 51.6562 34.8086 50.6562 34.8086C47.7383 34.8086 45.4844 32.7734 45.4844 29.6953C45.4844 26.6211 47.7383 24.5859 50.6562 24.5859C51.6562 24.5859 52.8906 24.8008 53.5938 25.2109V28.0898C52.8906 27.4258 51.8125 26.9727 50.793 26.9727C49.3242 26.9727 48.0898 28.0508 48.0898 29.6953Z" fill="#231F20"/>
<path d="M58.0664 24.8008V34.5938H55.4805V24.8008H58.0664ZM58.0664 23.1328H55.4805V20.4688H58.0664V23.1328Z" fill="#231F20"/>
<path d="M66.7422 28.7383C66.5078 27.5625 65.6445 26.9531 64.6484 26.9531C63.5508 26.9531 62.6484 27.4648 62.3555 28.7383H66.7422ZM64.5703 24.5859C67.4883 24.5859 69.3086 26.6797 69.3086 29.4414C69.3086 29.7734 69.3086 30.1484 69.25 30.5195H62.3359C62.6094 31.8711 63.5703 32.5 64.7266 32.5C65.7852 32.5 66.5078 32.0664 67.1758 31.2461L69.0742 32.6172C67.9766 33.9883 66.7422 34.8086 64.5703 34.8086C61.5313 34.8086 59.6914 32.5195 59.6914 29.6562C59.6914 26.8945 61.5313 24.5859 64.5703 24.5859Z" fill="#231F20"/>
<path d="M70.9219 34.5938V24.8008H73.5078V25.1719C74.1133 24.7773 74.8594 24.6016 75.6406 24.6016C78.582 24.6016 80.1094 26.5039 80.1094 29.0508V34.5938H77.5625V29.0508C77.5625 27.8945 76.8164 26.9922 75.543 26.9922C74.3086 26.9922 73.7227 27.7383 73.5078 28.1094V34.5938H70.9219Z" fill="#231F20"/>
<path d="M84.2266 29.6953C84.2266 31.3438 85.4609 32.4219 86.9297 32.4219C87.9492 32.4219 89.0273 31.9688 89.7305 31.3047V34.1836C89.0273 34.5938 87.793 34.8086 86.793 34.8086C83.875 34.8086 81.6211 32.7734 81.6211 29.6953C81.6211 26.6211 83.875 24.5859 86.793 24.5859C87.793 24.5859 89.0273 24.8008 89.7305 25.2109V28.0898C89.0273 27.4258 87.9492 26.9727 86.9297 26.9727C85.4609 26.9727 84.2266 28.0508 84.2266 29.6953Z" fill="#231F20"/>
<path d="M98.2148 28.7383C97.9805 27.5625 97.1172 26.9531 96.1211 26.9531C95.0234 26.9531 94.1211 27.4648 93.8281 28.7383H98.2148ZM96.043 24.5859C98.9609 24.5859 100.781 26.6797 100.781 29.4414C100.781 29.7734 100.781 30.1484 100.723 30.5195H93.8086C94.082 31.8711 95.043 32.5 96.1992 32.5C97.2578 32.5 97.9805 32.0664 98.6484 31.2461L100.547 32.6172C99.4492 33.9883 98.2148 34.8086 96.043 34.8086C93.0039 34.8086 91.1641 32.5195 91.1641 29.6562C91.1641 26.8945 93.0039 24.5859 96.043 24.5859Z" fill="#231F20"/>
<path d="M106.191 32.6758C107.035 32.6758 107.582 32.3789 107.582 31.832C107.582 31.3633 107.348 31.1875 105.84 30.832L105.586 30.7734C103.332 30.2461 102.117 29.4023 102.117 27.6406C102.117 26.0547 103.449 24.5859 106.016 24.5859C108.211 24.5859 109.68 25.4453 110.188 27.1289L107.938 27.9922C107.699 27.25 106.977 26.6797 105.977 26.6797C105.074 26.6797 104.566 27.0898 104.566 27.5039C104.566 28.0313 104.937 28.2461 106.387 28.5586L106.562 28.6016C109.133 29.168 110.09 30.0898 110.09 31.7539C110.09 33.418 108.641 34.8086 106.25 34.8086C103.98 34.8086 102.566 33.7734 101.805 32.3008L104.059 31.3633C104.43 32.1055 105.176 32.6758 106.191 32.6758Z" fill="#231F20"/>
<path d="M120.969 26.9727C119.48 26.9727 118.246 27.9531 118.246 29.6953C118.246 31.4414 119.5 32.4219 120.93 32.4219C121.852 32.4219 122.437 32.1055 122.949 31.6367V27.6016C122.359 27.2266 121.652 26.9727 120.969 26.9727ZM122.949 34.5938V34.1836C122.145 34.6719 121.379 34.8086 120.676 34.8086C117.656 34.8086 115.66 32.6758 115.66 29.6953C115.66 26.6797 117.852 24.5859 120.676 24.5859C121.457 24.5859 122.203 24.7617 122.949 25.0742V20.1953H125.574V34.5938H122.949Z" fill="#231F20"/>
<path d="M134.254 28.7383C134.02 27.5625 133.156 26.9531 132.16 26.9531C131.063 26.9531 130.16 27.4648 129.867 28.7383H134.254ZM132.082 24.5859C135 24.5859 136.82 26.6797 136.82 29.4414C136.82 29.7734 136.82 30.1484 136.762 30.5195H129.848C130.121 31.8711 131.082 32.5 132.238 32.5C133.297 32.5 134.02 32.0664 134.688 31.2461L136.586 32.6172C135.488 33.9883 134.254 34.8086 132.082 34.8086C129.043 34.8086 127.203 32.5195 127.203 29.6562C127.203 26.8945 129.043 24.5859 132.082 24.5859Z" fill="#231F20"/>
<path d="M3 54.8008H0.472656V40.3984H3V54.8008Z" fill="#231F20"/>
<path d="M8.03125 43.3203C8.03125 44.5547 7.32812 46.2188 6.21094 47.4727L4.95703 46.7109C5.625 45.8477 5.97656 45.1797 6.15234 44.5547C5.58594 44.4766 4.89844 43.8672 4.89844 43.0625C4.89844 42.2227 5.58594 41.5195 6.42578 41.5195C7.5625 41.5195 8.03125 42.2813 8.03125 43.3203Z" fill="#231F20"/>
<path d="M12.7188 41.7148V49.6094C12.7188 51.3711 13.7188 52.4492 15.4414 52.4492C17.1641 52.4492 18.1836 51.3711 18.1836 49.6094V41.7148H20.7695V49.6094C20.7695 52.8203 18.7109 54.9961 15.4414 54.9961C12.168 54.9961 10.1328 52.8203 10.1328 49.6094V41.7148H12.7188Z" fill="#231F20"/>
<path d="M22.9297 54.8008V45.0039H25.5156V45.375C26.1211 44.9844 26.8672 44.8086 27.6523 44.8086C30.5898 44.8086 32.1172 46.7109 32.1172 49.2539V54.8008H29.5703V49.2539C29.5703 48.0977 28.8281 47.1992 27.5508 47.1992C26.3203 47.1992 25.7305 47.9414 25.5156 48.3164V54.8008H22.9297Z" fill="#231F20"/>
<path d="M36.6641 45.0039V54.8008H34.082V45.0039H36.6641ZM36.6641 43.3398H34.082V40.6758H36.6641V43.3398Z" fill="#231F20"/>
<path d="M41.8008 54.8008L37.8203 45.0039H40.5039L43.0742 51.4102L45.4805 45.0039H48.168L44.4844 54.8008H41.8008Z" fill="#231F20"/>
<path d="M55.7305 48.9414C55.4961 47.7656 54.6328 47.1602 53.6328 47.1602C52.5352 47.1602 51.6367 47.668 51.3438 48.9414H55.7305ZM53.5547 44.7891C56.4727 44.7891 58.2969 46.8828 58.2969 49.6484C58.2969 49.9805 58.2969 50.3516 58.2383 50.7266H51.3242C51.5977 52.0742 52.5547 52.7031 53.7109 52.7031C54.7695 52.7031 55.4961 52.2734 56.1602 51.4492L58.0625 52.8203C56.9648 54.1914 55.7305 55.0156 53.5547 55.0156C50.5195 55.0156 48.6758 52.7227 48.6758 49.8633C48.6758 47.1016 50.5195 44.7891 53.5547 44.7891Z" fill="#231F20"/>
<path d="M62.5312 45.0039V45.7305L65.5508 44.5742V47.1211L62.5312 48.2969V54.8008H59.9062V45.0039H62.5312Z" fill="#231F20"/>
<path d="M70.4492 52.8789C71.293 52.8789 71.8398 52.5859 71.8398 52.0352C71.8398 51.5664 71.6055 51.3906 70.0977 51.0391L69.8438 50.9805C67.5898 50.4492 66.375 49.6094 66.375 47.8438C66.375 46.2578 67.707 44.7891 70.2734 44.7891C72.4687 44.7891 73.9375 45.6484 74.4453 47.3359L72.1914 48.1953C71.957 47.4531 71.2344 46.8828 70.2344 46.8828C69.332 46.8828 68.8242 47.2969 68.8242 47.707C68.8242 48.2383 69.1953 48.4531 70.6445 48.7656L70.8203 48.8047C73.3867 49.375 74.3477 50.293 74.3477 51.957C74.3477 53.625 72.8984 55.0156 70.5078 55.0156C68.2344 55.0156 66.8281 53.9766 66.0625 52.5078L68.3164 51.5664C68.6875 52.3125 69.4297 52.8789 70.4492 52.8789Z" fill="#231F20"/>
<path d="M85.2227 47.1797C83.7344 47.1797 82.5 48.1563 82.5 49.9023C82.5 51.6445 83.7539 52.625 85.1836 52.625C86.1055 52.625 86.6914 52.3125 87.2031 51.8398V47.8047C86.6133 47.4336 85.9102 47.1797 85.2227 47.1797ZM87.2031 54.8008V54.3867C86.3984 54.8789 85.6367 55.0156 84.9297 55.0156C81.9141 55.0156 79.9141 52.8789 79.9141 49.9023C79.9141 46.8828 82.1094 44.7891 84.9297 44.7891C85.7148 44.7891 86.457 44.9648 87.2031 45.2773V40.3984H89.8281V54.8008H87.2031Z" fill="#231F20"/>
<path d="M98.5078 48.9414C98.2734 47.7656 97.4102 47.1602 96.4141 47.1602C95.3164 47.1602 94.4141 47.668 94.1211 48.9414H98.5078ZM96.3359 44.7891C99.2539 44.7891 101.074 46.8828 101.074 49.6484C101.074 49.9805 101.074 50.3516 101.016 50.7266H94.1016C94.375 52.0742 95.3359 52.7031 96.4922 52.7031C97.5508 52.7031 98.2734 52.2734 98.9414 51.4492L100.84 52.8203C99.7422 54.1914 98.5078 55.0156 96.3359 55.0156C93.2969 55.0156 91.457 52.7227 91.457 49.8633C91.457 47.1016 93.2969 44.7891 96.3359 44.7891Z" fill="#231F20"/>
<path d="M113.172 45.8477C113.148 44.8281 112.328 44.1602 111.094 44.1602H109.859V47.5508H111.094C112.348 47.5508 113.148 47.0039 113.172 45.8477ZM115.719 45.8477C115.719 47.2969 114.953 48.8047 113.504 49.5508L116.012 54.8008H113.309L111.055 50H109.859V54.8008H107.273V41.7148H111.504C113.621 41.7148 115.719 43.3594 115.719 45.8477Z" fill="#231F20"/>
<path d="M123.848 48.9414C123.613 47.7656 122.75 47.1602 121.754 47.1602C120.656 47.1602 119.754 47.668 119.461 48.9414H123.848ZM121.676 44.7891C124.594 44.7891 126.414 46.8828 126.414 49.6484C126.414 49.9805 126.414 50.3516 126.355 50.7266H119.441C119.715 52.0742 120.676 52.7031 121.832 52.7031C122.891 52.7031 123.613 52.2734 124.281 51.4492L126.18 52.8203C125.082 54.1914 123.848 55.0156 121.676 55.0156C118.637 55.0156 116.797 52.7227 116.797 49.8633C116.797 47.1016 118.637 44.7891 121.676 44.7891Z" fill="#231F20"/>
<path d="M128.027 54.8008V45.0039H130.613V45.375C131.219 44.9844 131.965 44.8086 132.746 44.8086C135.687 44.8086 137.215 46.7109 137.215 49.2539V54.8008H134.668V49.2539C134.668 48.0977 133.922 47.1992 132.648 47.1992C131.414 47.1992 130.828 47.9414 130.613 48.3164V54.8008H128.027Z" fill="#231F20"/>
<path d="M139.176 54.8008V45.0039H141.762V45.375C142.371 44.9844 143.113 44.8086 143.898 44.8086C146.836 44.8086 148.363 46.7109 148.363 49.2539V54.8008H145.816V49.2539C145.816 48.0977 145.074 47.1992 143.801 47.1992C142.566 47.1992 141.977 47.9414 141.762 48.3164V54.8008H139.176Z" fill="#231F20"/>
<path d="M156.93 48.9414C156.695 47.7656 155.832 47.1602 154.832 47.1602C153.734 47.1602 152.836 47.668 152.539 48.9414H156.93ZM154.754 44.7891C157.672 44.7891 159.496 46.8828 159.496 49.6484C159.496 49.9805 159.496 50.3516 159.438 50.7266H152.52C152.797 52.0742 153.754 52.7031 154.91 52.7031C155.969 52.7031 156.695 52.2734 157.359 51.4492L159.262 52.8203C158.164 54.1914 156.93 55.0156 154.754 55.0156C151.719 55.0156 149.875 52.7227 149.875 49.8633C149.875 47.1016 151.719 44.7891 154.754 44.7891Z" fill="#231F20"/>
<path d="M164.906 52.8789C165.746 52.8789 166.297 52.5859 166.297 52.0352C166.297 51.5664 166.063 51.3906 164.551 51.0391L164.297 50.9805C162.043 50.4492 160.828 49.6094 160.828 47.8438C160.828 46.2578 162.16 44.7891 164.727 44.7891C166.922 44.7891 168.391 45.6484 168.902 47.3359L166.648 48.1953C166.414 47.4531 165.688 46.8828 164.688 46.8828C163.789 46.8828 163.277 47.2969 163.277 47.707C163.277 48.2383 163.652 48.4531 165.102 48.7656L165.277 48.8047C167.844 49.375 168.805 50.293 168.805 51.957C168.805 53.625 167.355 55.0156 164.965 55.0156C162.691 55.0156 161.281 53.9766 160.516 52.5078L162.77 51.5664C163.141 52.3125 163.887 52.8789 164.906 52.8789Z" fill="#231F20"/>
</svg>
