<svg width="224" height="61" viewBox="0 0 224 61" fill="none" xmlns="http://www.w3.org/2000/svg">
<path d="M4.13672 0V12.6211C4.13672 15.4414 5.73438 17.1641 8.49219 17.1641C11.2461 17.1641 12.875 15.4414 12.875 12.6211V0H17.0117V12.6211C17.0117 17.7617 13.7227 21.2383 8.49219 21.2383C3.25781 21.2383 0 17.7617 0 12.6211V0H4.13672Z" fill="#231F20"/>
<path d="M25.0273 4.00781V9.14453H32.043V13.1875H25.0273V20.9258H20.8906V0H32.8906V4.00781H25.0273Z" fill="#231F20"/>
<path d="M45.3516 6.60547C45.3242 4.98047 44.0078 3.91406 42.0312 3.91406H40.0586V9.33203H42.0312C44.0391 9.33203 45.3242 8.45703 45.3516 6.60547ZM49.4258 6.60547C49.4258 8.92578 48.2031 11.3398 45.8867 12.5273L49.8945 20.9258H45.5703L41.9688 13.25H40.0586V20.9258H35.9219V0H42.6914C46.0742 0 49.4258 2.62891 49.4258 6.60547Z" fill="#231F20"/>
<path d="M4.32422 38.6484V53.2148H0.3125V32.2891H4.91797L10.5898 41.0898L16.2891 32.2891H20.8945V53.2148H16.8867V38.6484L12.25 46.0391H8.92578L4.32422 38.6484Z" fill="#231F20"/>
<path d="M32.3867 41.0273C30.0078 41.0273 28.0312 42.5938 28.0312 45.3828C28.0312 48.1719 30.0078 49.7344 32.3867 49.7344C33.4844 49.7344 34.5469 49.4219 35.5508 48.7031V42.0312C34.5781 41.4336 33.4844 41.0273 32.3867 41.0273ZM39.7188 53.2148H35.5508V52.7734C34.3906 53.3086 33.1719 53.5586 31.9141 53.5586C27.4063 53.5586 23.8984 50.1445 23.8984 45.3828C23.8984 40.5586 27.4063 37.207 31.9141 37.207C33.1719 37.207 34.3906 37.4258 35.5508 37.9883V37.5508H39.7188V53.2148Z" fill="#231F20"/>
<path d="M45.0039 37.5508V32.7891H49.0156V37.5508H53.3711V41.3398H49.0156V53.2148H45.0039V41.3398H41.8711V37.5508H45.0039Z" fill="#231F20"/>
<path d="M55.9648 53.2148V30.1875H60.1016V38.1445C61.0703 37.5195 62.2656 37.2383 63.5156 37.2383C68.2148 37.2383 70.6602 40.2773 70.6602 44.3477V53.2148H66.5859V44.3477C66.5859 42.5 65.3945 41.0586 63.3594 41.0586C61.3867 41.0586 60.4453 42.25 60.1016 42.8438V53.2148H55.9648Z" fill="#231F20"/>
<path d="M81.7422 30.7227H85.7227L82.9023 35.3906H79.207L81.7422 30.7227ZM84.3438 43.8477C83.9688 41.9688 82.5898 40.9961 80.9922 40.9961C79.2383 40.9961 77.7969 41.8086 77.3281 43.8477H84.3438ZM80.8672 37.207C85.5352 37.207 88.4492 40.5586 88.4492 44.9727C88.4492 45.5078 88.4492 46.1016 88.3516 46.6992H77.293C77.7344 48.8594 79.2695 49.8594 81.1172 49.8594C82.8086 49.8594 83.9688 49.1719 85.0312 47.8555L88.0703 50.0508C86.3164 52.2422 84.3437 53.5586 80.8672 53.5586C76.0117 53.5586 73.0664 49.8945 73.0664 45.3203C73.0664 40.9023 76.0117 37.207 80.8672 37.207Z" fill="#231F20"/>
<path d="M95.1484 37.5508V38.1133C96.1172 37.6758 97.3086 37.2383 98.5625 37.2383C101.035 37.2383 102.73 38.0508 103.793 39.3359C105.047 38.1133 107.02 37.2383 108.898 37.2383C113.598 37.2383 115.73 40.2773 115.73 44.3477V53.2148H111.656V44.3477C111.656 42.5 110.777 41.0586 108.742 41.0586C106.328 41.0586 105.422 42.8438 105.328 43.1602C105.359 43.5664 105.391 43.9414 105.391 44.3477V53.2148H101.32V44.3477C101.32 42.5 100.441 41.0586 98.4062 41.0586C96.4297 41.0586 95.4922 42.25 95.1484 42.8438V53.2148H91.0117V37.5508H95.1484Z" fill="#231F20"/>
<path d="M126.621 41.0273C124.242 41.0273 122.27 42.5938 122.27 45.3828C122.27 48.1719 124.242 49.7344 126.621 49.7344C127.719 49.7344 128.785 49.4219 129.785 48.7031V42.0312C128.816 41.4336 127.719 41.0273 126.621 41.0273ZM133.953 53.2148H129.785V52.7734C128.629 53.3086 127.406 53.5586 126.152 53.5586C121.641 53.5586 118.133 50.1445 118.133 45.3828C118.133 40.5586 121.641 37.207 126.152 37.207C127.406 37.207 128.629 37.4258 129.785 37.9883V37.5508H133.953V53.2148Z" fill="#231F20"/>
<path d="M139.242 37.5508V32.7891H143.254V37.5508H147.609V41.3398H143.254V53.2148H139.242V41.3398H136.109V37.5508H139.242Z" fill="#231F20"/>
<path d="M154.34 37.5508V53.2148H150.203V37.5508H154.34ZM154.34 34.8867H150.203V30.6289H154.34V34.8867Z" fill="#231F20"/>
<path d="M165.336 41.0273C163.047 41.0273 161.039 42.5938 161.039 45.3828C161.039 48.1719 163.016 49.7344 165.398 49.7344C166.492 49.7344 167.621 49.3281 168.559 48.7344V42.2812C167.746 41.5273 166.805 41.0273 165.336 41.0273ZM172.758 60.5781H168.559V52.7734C167.367 53.2773 166.18 53.5586 164.926 53.5586C160.414 53.5586 156.906 50.207 156.906 45.3828C156.906 40.6211 160.102 37.207 164.926 37.207C166.055 37.207 167.277 37.4258 168.559 38.207V37.5508H172.758V60.5781Z" fill="#231F20"/>
<path d="M190.766 37.5508V53.2148H186.633V52.6484C185.66 53.2773 184.469 53.5586 183.215 53.5586C178.516 53.5586 176.07 50.5195 176.07 46.4453V37.5508H180.145V46.4453C180.145 48.2969 181.336 49.7344 183.371 49.7344C185.348 49.7344 186.285 48.5469 186.633 47.9531V37.5508H190.766Z" fill="#231F20"/>
<path d="M204.355 43.8477C203.98 41.9688 202.602 40.9961 201.004 40.9961C199.25 40.9961 197.809 41.8086 197.34 43.8477H204.355ZM200.879 37.207C205.551 37.207 208.461 40.5586 208.461 44.9727C208.461 45.5078 208.461 46.1016 208.367 46.6992H197.309C197.746 48.8594 199.281 49.8594 201.129 49.8594C202.82 49.8594 203.98 49.1719 205.047 47.8555L208.086 50.0508C206.332 52.2422 204.355 53.5586 200.879 53.5586C196.023 53.5586 193.078 49.8945 193.078 45.3203C193.078 40.9023 196.023 37.207 200.879 37.207Z" fill="#231F20"/>
<path d="M217.102 50.1445C218.449 50.1445 219.324 49.6758 219.324 48.7969C219.324 48.0469 218.949 47.7617 216.539 47.1992L216.133 47.1055C212.527 46.2578 210.586 44.9141 210.586 42.0938C210.586 39.5547 212.715 37.207 216.82 37.207C220.328 37.207 222.68 38.5859 223.492 41.2773L219.891 42.6562C219.516 41.4688 218.355 40.5586 216.758 40.5586C215.316 40.5586 214.504 41.2148 214.504 41.875C214.504 42.7188 215.098 43.0625 217.414 43.5664L217.695 43.6289C221.801 44.5352 223.336 46.0078 223.336 48.6719C223.336 51.3359 221.016 53.5586 217.195 53.5586C213.563 53.5586 211.305 51.8984 210.086 49.5508L213.688 48.0469C214.281 49.2344 215.473 50.1445 217.102 50.1445Z" fill="#231F20"/>
</svg>
