<svg width="171" height="59" viewBox="0 0 171 59" fill="none" xmlns="http://www.w3.org/2000/svg">
<path d="M4.73438 0V12.2383C4.73438 14.9727 6.28516 16.6406 8.95703 16.6406C11.6289 16.6406 13.207 14.9727 13.207 12.2383V0H17.2148V12.2383C17.2148 17.2187 14.0273 20.5898 8.95703 20.5898C3.88672 20.5898 0.726562 17.2187 0.726562 12.2383V0H4.73438Z" fill="#231F20"/>
<path d="M24.9844 3.88672V8.87109H31.7891V12.7852H24.9844V20.2852H20.9766V0H32.6055V3.88672H24.9844Z" fill="#231F20"/>
<path d="M44.6875 6.40625C44.6602 4.82813 43.3828 3.79688 41.4727 3.79688H39.5586V9.05078H41.4727C43.4141 9.05078 44.6602 8.19922 44.6875 6.40625ZM48.6367 6.40625C48.6367 8.65625 47.4531 10.9961 45.2031 12.1484L49.0898 20.2852H44.9023L41.4102 12.8477H39.5586V20.2852H35.5469V0H42.1094C45.3867 0 48.6367 2.55469 48.6367 6.40625Z" fill="#231F20"/>
<path d="M10.625 34.793C6.73828 34.793 4.21875 37.6797 4.21875 41.4414C4.21875 45.207 6.73828 48.0938 10.625 48.0938C14.5117 48.0938 17.0312 45.207 17.0312 41.4414C17.0312 37.6797 14.5117 34.793 10.625 34.793ZM10.625 30.7852C17.0664 30.7852 21.2852 35.3398 21.2852 41.4414C21.2852 47.5469 17.0664 52.1016 10.625 52.1016C4.21875 52.1016 0 47.5469 0 41.4414C0 35.3398 4.21875 30.7852 10.625 30.7852Z" fill="#231F20"/>
<path d="M31.3633 39.7734C29.0547 39.7734 27.1406 41.293 27.1406 43.9961C27.1406 46.6953 29.082 48.2148 31.3008 48.2148C32.7266 48.2148 33.6406 47.7266 34.4258 47V40.7461C33.5156 40.168 32.4258 39.7734 31.3633 39.7734ZM34.4258 51.5859V50.9492C33.1836 51.707 32 51.918 30.9062 51.918C26.2305 51.918 23.1328 48.6094 23.1328 43.9961C23.1328 39.3164 26.5352 36.0664 30.9062 36.0664C32.1211 36.0664 33.2734 36.3437 34.4258 36.8281V29.2656H38.4961V51.5859H34.4258Z" fill="#231F20"/>
<path d="M49.0586 39.7734C46.75 39.7734 45.0195 41.5039 45.0195 43.9961C45.0195 46.5742 46.75 48.1836 49.0586 48.1836C51.4258 48.1836 53.0977 46.5469 53.0977 43.9961C53.0977 41.4414 51.3984 39.7734 49.0586 39.7734ZM49.0586 35.9492C53.7969 35.9492 57.1367 39.4102 57.1367 43.9961C57.1367 48.5781 53.7969 52.0391 49.0586 52.0391C44.3203 52.0391 41.0117 48.5781 41.0117 43.9961C41.0117 39.4102 44.3203 35.9492 49.0586 35.9492Z" fill="#231F20"/>
<path d="M59.6211 51.5859V36.4023H63.6289V36.9805C64.5703 36.3711 65.7266 36.0977 66.9414 36.0977C71.4961 36.0977 73.8633 39.043 73.8633 42.9922V51.5859H69.918V42.9922C69.918 41.1992 68.7617 39.8047 66.7891 39.8047C64.875 39.8047 63.9648 40.957 63.6289 41.5352V51.5859H59.6211Z" fill="#231F20"/>
<path d="M78.9883 36.4023V31.7891H82.8789V36.4023H87.0977V40.0781H82.8789V51.5859H78.9883V40.0781H75.9531V36.4023H78.9883Z" fill="#231F20"/>
<path d="M95.4766 39.7734C93.168 39.7734 91.4375 41.5039 91.4375 43.9961C91.4375 46.5742 93.168 48.1836 95.4766 48.1836C97.8438 48.1836 99.5156 46.5469 99.5156 43.9961C99.5156 41.4414 97.8125 39.7734 95.4766 39.7734ZM95.4766 35.9492C100.215 35.9492 103.555 39.4102 103.555 43.9961C103.555 48.5781 100.215 52.0391 95.4766 52.0391C90.7383 52.0391 87.4297 48.5781 87.4297 43.9961C87.4297 39.4102 90.7383 35.9492 95.4766 35.9492Z" fill="#231F20"/>
<path d="M109.957 51.5859H106.039V29.2656H109.957V51.5859Z" fill="#231F20"/>
<path d="M120.34 39.7734C118.031 39.7734 116.301 41.5039 116.301 43.9961C116.301 46.5742 118.031 48.1836 120.34 48.1836C122.707 48.1836 124.379 46.5469 124.379 43.9961C124.379 41.4414 122.676 39.7734 120.34 39.7734ZM120.34 35.9492C125.074 35.9492 128.414 39.4102 128.414 43.9961C128.414 48.5781 125.074 52.0391 120.34 52.0391C115.602 52.0391 112.289 48.5781 112.289 43.9961C112.289 39.4102 115.602 35.9492 120.34 35.9492Z" fill="#231F20"/>
<path d="M138.766 48.2148C139.828 48.2148 140.859 47.9102 141.836 47.2109V40.7461C140.891 40.168 139.828 39.7734 138.766 39.7734C136.461 39.7734 134.547 41.293 134.547 43.9961C134.547 46.6953 136.461 48.2148 138.766 48.2148ZM130.203 55.1992L132.449 52.0703C133.758 53.7383 135.973 54.7734 138.281 54.7734C140.59 54.7734 141.836 53.5273 141.836 51.8281V51.1602C140.711 51.6758 139.527 51.918 138.312 51.918C133.938 51.918 130.539 48.6094 130.539 43.9961C130.539 39.3164 133.938 36.0664 138.312 36.0664C139.527 36.0664 140.711 36.2812 141.836 36.8281V36.4023H145.871V51.5859C145.871 56.5977 142.199 58.4453 137.766 58.4453C136.52 58.4453 132.664 57.8711 130.203 55.1992Z" fill="#231F20"/>
<path d="M152.91 36.4023V51.5859H148.902V36.4023H152.91ZM152.91 33.8203H148.902V29.6914H152.91V33.8203Z" fill="#231F20"/>
<path d="M166.363 42.5078C165.996 40.6836 164.66 39.7422 163.113 39.7422C161.41 39.7422 160.016 40.5312 159.562 42.5078H166.363ZM162.992 36.0664C167.516 36.0664 170.34 39.3164 170.34 43.6016C170.34 44.1133 170.34 44.6914 170.246 45.2695H159.527C159.953 47.3633 161.441 48.3359 163.234 48.3359C164.871 48.3359 165.996 47.668 167.031 46.3906L169.977 48.5195C168.277 50.6445 166.363 51.918 162.992 51.918C158.285 51.918 155.43 48.3672 155.43 43.9336C155.43 39.6523 158.285 36.0664 162.992 36.0664Z" fill="#231F20"/>
</svg>
