<svg width="158" height="61" viewBox="0 0 158 61" fill="none" xmlns="http://www.w3.org/2000/svg">
<path d="M4.10156 0V12.5234C4.10156 15.3203 5.68359 17.0312 8.42188 17.0312C11.1562 17.0312 12.7695 15.3203 12.7695 12.5234V0H16.8711V12.5234C16.8711 17.6211 13.6094 21.0703 8.42188 21.0703C3.23047 21.0703 0 17.6211 0 12.5234V0H4.10156Z" fill="#231F20"/>
<path d="M24.8242 3.97656V9.07812H31.7812V13.082H24.8242V20.7578H20.7227V0H32.6211V3.97656H24.8242Z" fill="#231F20"/>
<path d="M44.9844 6.55859C44.957 4.94141 43.6523 3.88672 41.6914 3.88672H39.7344V9.26172H41.6914C43.6797 9.26172 44.957 8.39062 44.9844 6.55859ZM49.0234 6.55859C49.0234 8.85547 47.8164 11.25 45.5156 12.4297L49.4922 20.7578H45.2031L41.6289 13.1445H39.7344V20.7578H35.6328V0H42.3438C45.7031 0 49.0234 2.61328 49.0234 6.55859Z" fill="#231F20"/>
<path d="M9.75781 38.8047C9.75781 36.8477 8.42188 35.7617 6.30859 35.7617H4.41406V41.8477H6.30859C8.73047 41.8477 9.75781 40.5469 9.75781 38.8047ZM13.9531 38.8047C13.9531 43.4961 10.4414 45.6094 6.12109 45.6094H4.41406V52.7891H0.3125V32.0312H7.01953C10.4727 32.0312 13.9531 34.1445 13.9531 38.8047Z" fill="#231F20"/>
<path d="M16.1211 52.7891V29.9492H20.2227V37.8438C21.1875 37.2188 22.3672 36.9414 23.6094 36.9414C28.2734 36.9414 30.6992 39.957 30.6992 43.9961V52.7891H26.6562V43.9961C26.6562 42.1602 25.4766 40.7305 23.457 40.7305C21.4961 40.7305 20.5664 41.9141 20.2227 42.5039V52.7891H16.1211Z" fill="#231F20"/>
<path d="M37.9023 37.2539V52.7891H33.8008V37.2539H37.9023ZM37.9023 34.6094H33.8008V30.3867H37.9023V34.6094Z" fill="#231F20"/>
<path d="M45.2031 52.7891H41.1914V29.9492H45.2031V52.7891Z" fill="#231F20"/>
<path d="M55.8281 40.7031C53.4648 40.7031 51.6953 42.4727 51.6953 45.0195C51.6953 47.6602 53.4648 49.3086 55.8281 49.3086C58.25 49.3086 59.9609 47.6328 59.9609 45.0195C59.9609 42.4102 58.2188 40.7031 55.8281 40.7031ZM55.8281 36.7852C60.6719 36.7852 64.0898 40.3281 64.0898 45.0195C64.0898 49.7109 60.6719 53.2539 55.8281 53.2539C50.9805 53.2539 47.5898 49.7109 47.5898 45.0195C47.5898 40.3281 50.9805 36.7852 55.8281 36.7852Z" fill="#231F20"/>
<path d="M72.6641 49.7461C74 49.7461 74.8672 49.2773 74.8672 48.4102C74.8672 47.6602 74.4961 47.3828 72.1055 46.8203L71.6992 46.7305C68.125 45.8906 66.1992 44.5547 66.1992 41.7578C66.1992 39.2422 68.3125 36.9102 72.3867 36.9102C75.8633 36.9102 78.1953 38.2773 79.0039 40.9492L75.4297 42.3164C75.0547 41.1367 73.9062 40.2344 72.3242 40.2344C70.8906 40.2344 70.0859 40.8867 70.0859 41.543C70.0859 42.3789 70.6758 42.7188 72.9766 43.2188L73.2539 43.2812C77.3242 44.1797 78.8477 45.6406 78.8477 48.2852C78.8477 50.9258 76.5469 53.1289 72.7578 53.1289C69.1523 53.1289 66.9141 51.4844 65.7031 49.1523L69.2773 47.6602C69.8672 48.8398 71.0469 49.7461 72.6641 49.7461Z" fill="#231F20"/>
<path d="M89.0977 40.7031C86.7383 40.7031 84.9648 42.4727 84.9648 45.0195C84.9648 47.6602 86.7383 49.3086 89.0977 49.3086C91.5195 49.3086 93.2305 47.6328 93.2305 45.0195C93.2305 42.4102 91.4922 40.7031 89.0977 40.7031ZM89.0977 36.7852C93.9453 36.7852 97.3633 40.3281 97.3633 45.0195C97.3633 49.7109 93.9453 53.2539 89.0977 53.2539C84.25 53.2539 80.8633 49.7109 80.8633 45.0195C80.8633 40.3281 84.25 36.7852 89.0977 36.7852Z" fill="#231F20"/>
<path d="M107.211 49.3398C109.57 49.3398 111.527 47.7852 111.527 45.0195C111.527 42.2539 109.539 40.7031 107.273 40.7031C105.812 40.7031 104.879 41.1953 104.07 41.9453V48.3438C105.004 48.9375 106.121 49.3398 107.211 49.3398ZM104.07 37.2539V37.9023C105.348 37.1289 106.559 36.9102 107.676 36.9102C112.461 36.9102 115.629 40.2969 115.629 45.0195C115.629 49.8047 112.152 53.1289 107.676 53.1289C106.434 53.1289 105.25 52.8516 104.07 52.3516V60.0898H99.9062V37.2539H104.07Z" fill="#231F20"/>
<path d="M118.176 52.7891V29.9492H122.277V37.8438C123.238 37.2188 124.422 36.9414 125.664 36.9414C130.324 36.9414 132.746 39.957 132.746 43.9961V52.7891H128.707V43.9961C128.707 42.1602 127.527 40.7305 125.508 40.7305C123.551 40.7305 122.617 41.9141 122.277 42.5039V52.7891H118.176Z" fill="#231F20"/>
<path d="M139.953 37.2539V52.7891H135.852V37.2539H139.953ZM139.953 34.6094H135.852V30.3867H139.953V34.6094Z" fill="#231F20"/>
<path d="M153.715 43.4961C153.344 41.6328 151.977 40.6719 150.391 40.6719C148.652 40.6719 147.223 41.4766 146.758 43.4961H153.715ZM150.266 36.9102C154.898 36.9102 157.789 40.2344 157.789 44.6172C157.789 45.1445 157.789 45.7344 157.691 46.3242H146.723C147.16 48.4687 148.684 49.4648 150.516 49.4648C152.191 49.4648 153.344 48.7813 154.398 47.4727L157.414 49.6484C155.676 51.8242 153.715 53.1289 150.266 53.1289C145.449 53.1289 142.531 49.4961 142.531 44.957C142.531 40.5781 145.449 36.9102 150.266 36.9102Z" fill="#231F20"/>
</svg>
