<svg width="116" height="55" viewBox="0 0 116 55" fill="none" xmlns="http://www.w3.org/2000/svg">
<path d="M3.13281 1.03516V8.92188C3.13281 10.6797 4.12891 11.7578 5.84766 11.7578C7.57031 11.7578 8.58594 10.6797 8.58594 8.92188V1.03516H11.168V8.92188C11.168 12.1289 9.11719 14.2969 5.84766 14.2969C2.58203 14.2969 0.546875 12.1289 0.546875 8.92188V1.03516H3.13281Z" fill="#231F20"/>
<path d="M16.1797 3.53906V6.74609H20.5625V9.27344H16.1797V14.1055H13.5977V1.03516H21.0938V3.53906H16.1797Z" fill="#231F20"/>
<path d="M28.8789 5.16406C28.8594 4.14844 28.0391 3.48047 26.8086 3.48047H25.5742V6.86719H26.8086C28.0547 6.86719 28.8594 6.32031 28.8789 5.16406ZM31.4219 5.16406C31.4219 6.61328 30.6602 8.11719 29.2109 8.86328L31.7148 14.1055H29.0156L26.7695 9.3125H25.5742V14.1055H22.9922V1.03516H27.2188C29.3281 1.03516 31.4219 2.67969 31.4219 5.16406Z" fill="#231F20"/>
<path d="M42.3008 11.9102C43.4766 11.9102 44.2188 11.4648 44.2188 10.5039C44.2188 9.70312 43.5742 9.25391 41.8711 8.84375L41.5195 8.76172C38.625 8.11719 37.5078 6.70703 37.5078 4.59766C37.5078 2.28906 39.4258 0.84375 42.0078 0.84375C44.4922 0.84375 45.9609 2.03516 46.8398 3.875L44.4141 4.91016C43.9453 3.95312 43.2227 3.20703 42.0273 3.20703C40.9922 3.20703 40.3281 3.73438 40.3281 4.51953C40.3281 5.47656 41.168 5.88672 42.3789 6.17969L42.7695 6.25781C45.4922 6.94531 46.9375 8.27344 46.9375 10.3477C46.9375 12.5 45.1172 14.2969 42.3203 14.2969C39.4453 14.2969 37.8633 12.7734 37.3125 10.8945L39.6992 10.1133C40.0508 11.1289 40.9922 11.9102 42.3008 11.9102Z" fill="#231F20"/>
<path d="M50.5391 9.21484C50.5391 10.8555 51.7734 11.9336 53.2383 11.9336C54.2578 11.9336 55.332 11.4805 56.0352 10.8164V13.6914C55.332 14.1055 54.1016 14.3164 53.1016 14.3164C50.1875 14.3164 47.9375 12.2852 47.9375 9.21484C47.9375 6.14062 50.1875 4.10938 53.1016 4.10938C54.1016 4.10938 55.332 4.32422 56.0352 4.73438V7.60938C55.332 6.94531 54.2578 6.49609 53.2383 6.49609C51.7734 6.49609 50.5391 7.57031 50.5391 9.21484Z" fill="#231F20"/>
<path d="M60.5 4.32422V14.1055H57.918V4.32422H60.5ZM60.5 2.66016H57.918V0H60.5V2.66016Z" fill="#231F20"/>
<path d="M69.1641 8.25391C68.9297 7.08203 68.0703 6.47656 67.0742 6.47656C65.9766 6.47656 65.0781 6.98437 64.7812 8.25391H69.1641ZM66.9961 4.10938C69.9062 4.10938 71.7266 6.19922 71.7266 8.95703C71.7266 9.28906 71.7266 9.66406 71.668 10.0352H64.7656C65.0391 11.3867 65.9961 12.0117 67.1523 12.0117C68.207 12.0117 68.9297 11.5781 69.5938 10.7578L71.4922 12.1289C70.3984 13.4961 69.1641 14.3164 66.9961 14.3164C63.9648 14.3164 62.1211 12.0313 62.1211 9.17578C62.1211 6.41406 63.9648 4.10938 66.9961 4.10938Z" fill="#231F20"/>
<path d="M73.3359 14.1055V4.32422H75.918V4.69531C76.5234 4.30469 77.2656 4.12891 78.0508 4.12891C80.9844 4.12891 82.5078 6.02344 82.5078 8.56641V14.1055H79.9648V8.56641C79.9648 7.41406 79.2227 6.51562 77.9531 6.51562C76.7188 6.51562 76.1328 7.25781 75.918 7.62891V14.1055H73.3359Z" fill="#231F20"/>
<path d="M86.6211 9.21484C86.6211 10.8555 87.8555 11.9336 89.3203 11.9336C90.3359 11.9336 91.4102 11.4805 92.1172 10.8164V13.6914C91.4102 14.1055 90.1797 14.3164 89.1797 14.3164C86.2695 14.3164 84.0195 12.2852 84.0195 9.21484C84.0195 6.14062 86.2695 4.10938 89.1797 4.10938C90.1797 4.10938 91.4102 4.32422 92.1172 4.73438V7.60938C91.4102 6.94531 90.3359 6.49609 89.3203 6.49609C87.8555 6.49609 86.6211 7.57031 86.6211 9.21484Z" fill="#231F20"/>
<path d="M100.59 8.25391C100.355 7.08203 99.4922 6.47656 98.4961 6.47656C97.3984 6.47656 96.5039 6.98437 96.207 8.25391H100.59ZM98.418 4.10938C101.332 4.10938 103.152 6.19922 103.152 8.95703C103.152 9.28906 103.152 9.66406 103.094 10.0352H96.1914C96.4648 11.3867 97.4219 12.0117 98.5781 12.0117C99.6289 12.0117 100.355 11.5781 101.02 10.7578L102.918 12.1289C101.82 13.4961 100.59 14.3164 98.418 14.3164C95.3867 14.3164 93.5469 12.0313 93.5469 9.17578C93.5469 6.41406 95.3867 4.10938 98.418 4.10938Z" fill="#231F20"/>
<path d="M108.555 12.1875C109.395 12.1875 109.941 11.8945 109.941 11.3477C109.941 10.875 109.707 10.6992 108.199 10.3477L107.949 10.2891C105.695 9.76172 104.484 8.92187 104.484 7.16016C104.484 5.57422 105.813 4.10938 108.379 4.10938C110.57 4.10938 112.035 4.96875 112.543 6.65234L110.293 7.51172C110.059 6.76953 109.336 6.19922 108.34 6.19922C107.437 6.19922 106.93 6.61328 106.93 7.02344C106.93 7.55078 107.301 7.76562 108.75 8.07812L108.926 8.11719C111.488 8.68359 112.445 9.60547 112.445 11.2656C112.445 12.9297 111 14.3164 108.613 14.3164C106.344 14.3164 104.934 13.2812 104.172 11.8125L106.422 10.875C106.793 11.6172 107.535 12.1875 108.555 12.1875Z" fill="#231F20"/>
<path d="M7.0625 28.4219C6.82812 27.2461 5.96484 26.6406 4.96875 26.6406C3.875 26.6406 2.97656 27.1484 2.67969 28.4219H7.0625ZM4.89062 24.2734C7.80469 24.2734 9.625 26.3672 9.625 29.125C9.625 29.457 9.625 29.8281 9.56641 30.2031H2.66016C2.9375 31.5508 3.89062 32.1758 5.04688 32.1758C6.10547 32.1758 6.82812 31.7461 7.49219 30.9258L9.39062 32.293C8.29297 33.6641 7.0625 34.4844 4.89062 34.4844C1.85938 34.4844 0.0234375 32.1953 0.0234375 29.3398C0.0234375 26.582 1.85938 24.2734 4.89062 24.2734Z" fill="#231F20"/>
<path d="M12.2109 24.4883V21.5156H14.7148V24.4883H17.4336V26.8555H14.7148V34.2695H12.2109V26.8555H10.2539V24.4883H12.2109Z" fill="#231F20"/>
<path d="M27.9609 32.0977C29.4453 32.0977 30.6758 31.1211 30.6758 29.3789C30.6758 27.6367 29.4258 26.6602 27.9961 26.6602C27.082 26.6602 26.4922 26.9727 25.9805 27.4414V31.4727C26.5703 31.8437 27.2773 32.0977 27.9609 32.0977ZM25.9805 24.4883V24.8984C26.7852 24.4102 27.5469 24.2734 28.2539 24.2734C31.2617 24.2734 33.2578 26.4062 33.2578 29.3789C33.2578 32.3906 31.0664 34.4844 28.2539 34.4844C27.4727 34.4844 26.7266 34.3086 25.9805 33.9961V38.8672H23.3633V24.4883H25.9805Z" fill="#231F20"/>
<path d="M37.4883 24.4883V25.2148L40.5 24.0586V26.6016L37.4883 27.7773V34.2695H34.8672V24.4883H37.4883Z" fill="#231F20"/>
<path d="M46.332 26.6602C44.8438 26.6602 43.7305 27.7773 43.7305 29.3789C43.7305 31.043 44.8438 32.0781 46.332 32.0781C47.8594 32.0781 48.9336 31.0234 48.9336 29.3789C48.9336 27.7383 47.8398 26.6602 46.332 26.6602ZM46.332 24.1953C49.3828 24.1953 51.5352 26.4258 51.5352 29.3789C51.5352 32.332 49.3828 34.5625 46.332 34.5625C43.2813 34.5625 41.1484 32.332 41.1484 29.3789C41.1484 26.4258 43.2813 24.1953 46.332 24.1953Z" fill="#231F20"/>
<path d="M57.7422 32.0977C59.2227 32.0977 60.457 31.1211 60.457 29.3789C60.457 27.6367 59.207 26.6602 57.7812 26.6602C56.8594 26.6602 56.2734 26.9727 55.7656 27.4414V31.4727C56.3516 31.8437 57.0547 32.0977 57.7422 32.0977ZM55.7656 24.4883V24.8984C56.5664 24.4102 57.3281 24.2734 58.0312 24.2734C61.043 24.2734 63.0391 26.4062 63.0391 29.3789C63.0391 32.3906 60.8477 34.4844 58.0312 34.4844C57.25 34.4844 56.5078 34.3086 55.7656 33.9961V38.8672H53.1445V24.4883H55.7656Z" fill="#231F20"/>
<path d="M67.2695 24.4883V25.2148L70.2812 24.0586V26.6016L67.2695 27.7773V34.2695H64.6484V24.4883H67.2695Z" fill="#231F20"/>
<path d="M74.6055 24.4883V34.2695H72.0234V24.4883H74.6055ZM74.6055 22.8281H72.0234V20.1641H74.6055V22.8281Z" fill="#231F20"/>
<path d="M81.6484 20.2266H84.1367L82.375 23.1406H80.0664L81.6484 20.2266ZM83.2734 28.4219C83.0391 27.2461 82.1797 26.6406 81.1797 26.6406C80.0859 26.6406 79.1836 27.1484 78.8906 28.4219H83.2734ZM81.1016 24.2734C84.0156 24.2734 85.8359 26.3672 85.8359 29.125C85.8359 29.457 85.8359 29.8281 85.7773 30.2031H78.8711C79.1445 31.5508 80.1055 32.1758 81.2578 32.1758C82.3164 32.1758 83.0391 31.7461 83.7031 30.9258L85.6016 32.293C84.5039 33.6641 83.2734 34.4844 81.1016 34.4844C78.0703 34.4844 76.2305 32.1953 76.2305 29.3398C76.2305 26.582 78.0703 24.2734 81.1016 24.2734Z" fill="#231F20"/>
<path d="M88.793 24.4883V21.5156H91.2969V24.4883H94.0156V26.8555H91.2969V34.2695H88.793V26.8555H86.8398V24.4883H88.793Z" fill="#231F20"/>
<path d="M100.609 20.2266H103.094L101.332 23.1406H99.0234L100.609 20.2266ZM102.234 28.4219C102 27.2461 101.137 26.6406 100.141 26.6406C99.043 26.6406 98.1484 27.1484 97.8516 28.4219H102.234ZM100.062 24.2734C102.977 24.2734 104.793 26.3672 104.793 29.125C104.793 29.457 104.793 29.8281 104.738 30.2031H97.832C98.1055 31.5508 99.0625 32.1758 100.219 32.1758C101.273 32.1758 102 31.7461 102.664 30.9258L104.559 32.293C103.465 33.6641 102.234 34.4844 100.062 34.4844C97.0312 34.4844 95.1914 32.1953 95.1914 29.3398C95.1914 26.582 97.0312 24.2734 100.062 24.2734Z" fill="#231F20"/>
<path d="M110.199 32.3516C111.039 32.3516 111.586 32.0586 111.586 31.5117C111.586 31.043 111.352 30.8672 109.844 30.5156L109.594 30.4531C107.34 29.9258 106.129 29.0859 106.129 27.3242C106.129 25.7422 107.457 24.2734 110.023 24.2734C112.215 24.2734 113.68 25.1328 114.188 26.8164L111.938 27.6758C111.703 26.9336 110.98 26.3672 109.984 26.3672C109.082 26.3672 108.574 26.7773 108.574 27.1875C108.574 27.7188 108.945 27.9336 110.395 28.2461L110.57 28.2852C113.133 28.8516 114.09 29.7695 114.09 31.4336C114.09 33.0977 112.645 34.4844 110.258 34.4844C107.988 34.4844 106.578 33.4492 105.816 31.9805L108.066 31.043C108.438 31.7852 109.18 32.3516 110.199 32.3516Z" fill="#231F20"/>
<path d="M5.30078 46.8281C3.8125 46.8281 2.58203 47.8047 2.58203 49.5469C2.58203 51.2852 3.83594 52.2656 5.26172 52.2656C6.18359 52.2656 6.76953 51.9492 7.27734 51.4805V47.4531C6.69141 47.0781 5.98437 46.8281 5.30078 46.8281ZM7.27734 54.4336V54.0234C6.47266 54.5117 5.71094 54.6484 5.00781 54.6484C1.99609 54.6484 0 52.5195 0 49.5469C0 46.5312 2.19141 44.4414 5.00781 44.4414C5.78906 44.4414 6.53516 44.6172 7.27734 44.9297V40.0586H9.89844V54.4336H7.27734Z" fill="#231F20"/>
<path d="M18.5664 48.5898C18.332 47.4141 17.4727 46.8086 16.4766 46.8086C15.3789 46.8086 14.4805 47.3164 14.1836 48.5898H18.5664ZM16.3984 44.4414C19.3086 44.4414 21.1289 46.5312 21.1289 49.2891C21.1289 49.6211 21.1289 49.9961 21.0703 50.3672H14.168C14.4414 51.7187 15.3984 52.3438 16.5547 52.3438C17.6094 52.3438 18.332 51.9102 18.9961 51.0898L20.8945 52.4609C19.8008 53.8281 18.5664 54.6484 16.3984 54.6484C13.3633 54.6484 11.5234 52.3633 11.5234 49.5078C11.5234 46.75 13.3633 44.4414 16.3984 44.4414Z" fill="#231F20"/>
<path d="M29.5664 54.4336H27.043V40.0586H29.5664V54.4336Z" fill="#231F20"/>
<path d="M36.3711 46.8281C34.8867 46.8281 33.6562 47.8047 33.6562 49.5469C33.6562 51.2852 34.8867 52.2656 36.3711 52.2656C37.0586 52.2656 37.7227 52.0664 38.3477 51.6172V47.4531C37.7422 47.0781 37.0586 46.8281 36.3711 46.8281ZM40.9492 54.4336H38.3477V54.1602C37.625 54.4922 36.8594 54.6484 36.0781 54.6484C33.2656 54.6484 31.0742 52.5195 31.0742 49.5469C31.0742 46.5312 33.2656 44.4414 36.0781 44.4414C36.8594 44.4414 37.625 44.5781 38.3477 44.9297V44.6562H40.9492V54.4336Z" fill="#231F20"/>
<path d="M49.7969 44.6562V45.0078C50.4023 44.7344 51.1445 44.4609 51.9258 44.4609C53.4727 44.4609 54.5313 44.9688 55.1953 45.7695C55.9766 45.0078 57.2109 44.4609 58.3828 44.4609C61.3164 44.4609 62.6445 46.3555 62.6445 48.8984V54.4336H60.1016V48.8984C60.1016 47.7461 59.5547 46.8477 58.2812 46.8477C56.7773 46.8477 56.2109 47.9609 56.1523 48.1562C56.1719 48.4102 56.1914 48.6445 56.1914 48.8984V54.4336H53.6484V48.8984C53.6484 47.7461 53.1016 46.8477 51.832 46.8477C50.5977 46.8477 50.0117 47.5898 49.7969 47.9609V54.4336H47.2148V44.6562H49.7969Z" fill="#231F20"/>
<path d="M69.4609 46.8281C67.9727 46.8281 66.7383 47.8047 66.7383 49.5469C66.7383 51.2852 67.9727 52.2656 69.4609 52.2656C70.1445 52.2656 70.8086 52.0664 71.4336 51.6172V47.4531C70.8281 47.0781 70.1445 46.8281 69.4609 46.8281ZM74.0391 54.4336H71.4336V54.1602C70.7109 54.4922 69.9492 54.6484 69.1641 54.6484C66.3477 54.6484 64.1562 52.5195 64.1562 49.5469C64.1562 46.5312 66.3477 44.4414 69.1641 44.4414C69.9492 44.4414 70.7109 44.5781 71.4336 44.9297V44.6562H74.0391V54.4336Z" fill="#231F20"/>
<path d="M77.3438 44.6562V41.6836H79.8477V44.6562H82.5703V47.0234H79.8477V54.4336H77.3438V47.0234H75.3906V44.6562H77.3438Z" fill="#231F20"/>
<path d="M86.7773 44.6562V54.4336H84.1953V44.6562H86.7773ZM86.7773 42.9922H84.1953V40.332H86.7773V42.9922Z" fill="#231F20"/>
<path d="M95.4414 48.5898C95.2109 47.4141 94.3477 46.8086 93.3516 46.8086C92.2539 46.8086 91.3555 47.3164 91.0586 48.5898H95.4414ZM91.6875 43.3047L89.9297 40.3906H92.8008L94.3867 43.3047H91.6875ZM93.2734 44.4414C96.1836 44.4414 98.0039 46.5312 98.0039 49.2891C98.0039 49.6211 98.0039 49.9961 97.9453 50.3672H91.043C91.3164 51.7187 92.2773 52.3438 93.4297 52.3438C94.4844 52.3438 95.2109 51.9102 95.8711 51.0898L97.7695 52.4609C96.6758 53.8281 95.4414 54.6484 93.2734 54.6484C90.2422 54.6484 88.4023 52.3633 88.4023 49.5078C88.4023 46.75 90.2422 44.4414 93.2734 44.4414Z" fill="#231F20"/>
<path d="M102.234 44.6562V45.3789L105.246 44.2266V46.7695L102.234 47.9414V54.4336H99.6133V44.6562H102.234Z" fill="#231F20"/>
<path d="M112.918 48.5898C112.684 47.4141 111.82 46.8086 110.824 46.8086C109.727 46.8086 108.828 47.3164 108.535 48.5898H112.918ZM110.746 44.4414C113.66 44.4414 115.477 46.5312 115.477 49.2891C115.477 49.6211 115.477 49.9961 115.422 50.3672H108.516C108.789 51.7187 109.746 52.3438 110.902 52.3438C111.957 52.3438 112.684 51.9102 113.348 51.0898L115.242 52.4609C114.148 53.8281 112.918 54.6484 110.746 54.6484C107.715 54.6484 105.875 52.3633 105.875 49.5078C105.875 46.75 107.715 44.4414 110.746 44.4414Z" fill="#231F20"/>
</svg>
