<svg width="92" height="28" viewBox="0 0 92 28" fill="none" xmlns="http://www.w3.org/2000/svg">
<path d="M13.0634 28H11.1973V22.4016H13.0634V28Z" fill="white"/>
<path d="M16.8058 28H14.9295V22.4016H16.8058V28Z" fill="white"/>
<path d="M13.9958 17.9598L6.07468 25.8801L4.75649 24.5621L12.6776 16.6418L13.9958 17.9598Z" fill="white"/>
<path d="M23.2459 24.5621L21.917 25.8801L13.9958 17.9598L15.3248 16.6418L23.2459 24.5621Z" fill="white"/>
<path fill-rule="evenodd" clip-rule="evenodd" d="M40.0213 24.227H38.3173V23.9635C37.8001 24.2779 37.3029 24.3695 36.8465 24.3695C34.8891 24.3695 33.6014 22.9901 33.6014 21.0633C33.6014 19.1061 35.0209 17.7471 36.8465 17.747C37.3536 17.747 37.8407 17.859 38.3173 18.0618V14.9076H40.0213V24.227ZM37.0391 19.2988C36.0756 19.2989 35.2743 19.9378 35.2743 21.0633C35.2743 22.1889 36.0858 22.8278 37.0087 22.8279C37.607 22.8279 37.9928 22.6248 38.3173 22.3206V19.7041C37.9421 19.4607 37.4853 19.2988 37.0391 19.2988Z" fill="white"/>
<path fill-rule="evenodd" clip-rule="evenodd" d="M44.1893 17.747C46.0859 17.747 47.2628 19.1062 47.2628 20.8911C47.2628 21.1141 47.2628 21.3476 47.2222 21.5909H42.7191C42.9017 22.3918 43.4795 22.8683 44.2907 22.8684C44.9803 22.8684 45.447 22.5945 45.8831 22.0571L47.1107 22.9495C46.4008 23.8318 45.5991 24.3695 44.1893 24.3695C42.232 24.3694 41.0355 22.8887 41.0354 21.0329C41.0354 19.2482 42.232 17.7471 44.1893 17.747ZM44.24 19.2886C43.4592 19.2887 42.922 19.7044 42.7495 20.4344H45.5994C45.4472 19.6739 44.8891 19.2886 44.24 19.2886Z" fill="white"/>
<path fill-rule="evenodd" clip-rule="evenodd" d="M60.6809 17.747C62.5672 17.7471 63.7436 19.1063 63.7436 20.8911C63.7436 21.104 63.7436 21.3476 63.703 21.5909H59.1999C59.3826 22.3818 59.971 22.8684 60.7822 22.8684C61.4616 22.8684 61.9279 22.5843 62.3639 22.0571L63.5915 22.9394C62.8816 23.8317 62.0804 24.3695 60.6809 24.3695C58.7133 24.3695 57.5163 22.8786 57.5162 21.0329C57.5162 19.238 58.7133 17.747 60.6809 17.747ZM60.7316 19.2785C59.9405 19.2785 59.4028 19.6942 59.2303 20.4344H62.0802C61.928 19.674 61.3704 19.2786 60.7316 19.2785Z" fill="white"/>
<path fill-rule="evenodd" clip-rule="evenodd" d="M82.6485 17.747C84.535 17.747 85.722 19.1062 85.722 20.8911C85.722 21.1141 85.7214 21.3476 85.6808 21.5909H81.1777C81.3502 22.3919 81.9387 22.8684 82.7499 22.8684C83.4396 22.8684 83.9063 22.5946 84.3322 22.0571L85.5693 22.9495C84.8594 23.8317 84.0583 24.3695 82.6485 24.3695C80.681 24.3695 79.4947 22.8887 79.4947 21.0329C79.4947 19.2481 80.681 17.747 82.6485 17.747ZM82.6992 19.2886C81.9183 19.2887 81.3805 19.7043 81.198 20.4344H84.0586C83.9064 19.6739 83.3483 19.2886 82.6992 19.2886Z" fill="white"/>
<path d="M89.2914 17.747C90.7113 17.747 91.6653 18.3049 92 19.4001L91.2697 19.694L90.5393 19.9581C90.3872 19.4713 89.9202 19.1062 89.2711 19.1062C88.6832 19.1063 88.3585 19.3696 88.3584 19.6433C88.3584 19.978 88.6022 20.1201 89.5353 20.3229L89.6468 20.3533C91.3099 20.7184 91.9283 21.3167 91.9284 22.3915C91.9284 23.4664 90.9957 24.3694 89.4441 24.3695C87.9735 24.3695 87.0602 23.7001 86.5632 22.7468L87.3138 22.4422L88.0239 22.1382C88.2673 22.6148 88.7544 22.99 89.4137 22.99C89.9511 22.99 90.3062 22.7971 90.3062 22.4422C90.3061 22.1382 90.1533 22.0268 89.1799 21.7936L89.0178 21.7531C87.5573 21.4184 86.7665 20.8703 86.7665 19.7244C86.7667 18.7003 87.6386 17.7471 89.2914 17.747Z" fill="white"/>
<path d="M68.0339 17.7673C69.9302 17.7673 70.9241 18.9944 70.9242 20.6472V24.2372H69.271V20.6472C69.2708 19.897 68.7943 19.309 67.973 19.3089C67.1718 19.3089 66.7861 19.7958 66.6542 20.0392V24.2372H64.9705V17.8889H66.6542V18.1327C67.0396 17.8792 67.5267 17.7673 68.0339 17.7673Z" fill="white"/>
<path fill-rule="evenodd" clip-rule="evenodd" d="M53.9158 15.7494C55.285 15.7494 56.644 16.8142 56.644 18.4165V18.4266C56.644 19.3697 56.1468 20.3435 55.2036 20.8303L56.8264 24.227H55.0819L53.6219 21.114H52.851V24.227H51.1774V15.7494H53.9158ZM52.851 19.5217H53.6421C54.4534 19.5217 54.9806 19.1669 54.9907 18.4266C54.9806 17.7675 54.4433 17.3316 53.6421 17.3315H52.851V19.5217Z" fill="white"/>
<path d="M75.4375 17.7571C77.3441 17.7571 78.3278 18.9944 78.3279 20.6371V24.227H76.6847V20.6371C76.6846 19.8969 76.1981 19.3089 75.3767 19.3089C74.5755 19.3089 74.2005 19.7958 74.0585 20.029V24.227H72.3849V17.8889H74.0585V18.1327C74.454 17.8793 74.9304 17.7572 75.4375 17.7571Z" fill="white"/>
<path d="M11.3588 15.3237L3.43767 23.2434L2.11949 21.9254L10.0406 14.0051L11.3588 15.3237Z" fill="white"/>
<path d="M25.8829 21.9254L24.5641 23.2434L16.6436 15.3237L17.9618 14.0051L25.8829 21.9254Z" fill="white"/>
<path d="M88.9164 19.6433C88.9164 19.6535 88.9165 19.6636 88.9367 19.6636C88.9063 19.6636 88.9164 19.6636 88.9164 19.6433Z" fill="white"/>
<path d="M5.59833 16.8039H0V14.938H5.59833V16.8039Z" fill="white"/>
<path d="M28.0024 16.8039H22.4041V14.938H28.0024V16.8039Z" fill="white"/>
<path d="M11.3588 12.687L10.0406 14.0051L2.11949 6.08478L3.43767 4.76674L11.3588 12.687Z" fill="white"/>
<path d="M25.8829 6.08478L17.9618 14.0051L16.6436 12.687L24.5641 4.76674L25.8829 6.08478Z" fill="white"/>
<path d="M5.59833 13.0721H0V11.2062H5.59833V13.0721Z" fill="white"/>
<path d="M28.0024 13.0721H22.4041V11.2062H28.0024V13.0721Z" fill="white"/>
<path d="M13.9958 10.0402L12.6776 11.3683L4.75649 3.44806L6.07468 2.11989L13.9958 10.0402Z" fill="white"/>
<path d="M23.2459 3.44806L15.3248 11.3582L13.9958 10.0402L21.917 2.11989L23.2459 3.44806Z" fill="white"/>
<path fill-rule="evenodd" clip-rule="evenodd" d="M62.5267 4.68567C64.4131 4.68574 65.5894 6.04435 65.5894 7.82908C65.5894 8.04204 65.5894 8.28557 65.5489 8.52895H61.0458C61.2283 9.33009 61.8066 9.80646 62.6281 9.80646C63.3076 9.80644 63.7743 9.53257 64.2104 8.99511L65.4374 9.88753C64.7275 10.7698 63.9263 11.3075 62.5267 11.3075C60.5592 11.3075 59.3621 9.81663 59.3621 7.97096C59.3622 6.17608 60.5592 4.68567 62.5267 4.68567ZM62.5774 6.21652C61.7863 6.21652 61.2486 6.63276 61.0762 7.37305H63.926C63.7739 6.61252 63.2163 6.21657 62.5774 6.21652Z" fill="white"/>
<path d="M73.9058 4.6958C75.3257 4.6958 76.269 5.25367 76.6036 6.33876L75.8841 6.63265L75.1436 6.89613C74.9914 6.41952 74.5245 6.04425 73.8754 6.04425C73.2975 6.04433 72.9626 6.31835 72.9626 6.58198C72.9627 6.92667 73.2066 7.05879 74.1396 7.26158L74.2612 7.29198C75.9142 7.65707 76.5428 8.25525 76.5428 9.33017C76.5428 10.4152 75.5999 11.3074 74.0585 11.3075C72.5879 11.3075 71.6644 10.6381 71.1776 9.68485L71.9181 9.38084L72.6383 9.07682C72.8716 9.56348 73.3588 9.9287 74.0179 9.9287C74.5654 9.92864 74.9206 9.73567 74.9206 9.38084C74.9206 9.0766 74.768 8.96488 73.7842 8.73163L73.6221 8.70123C72.1617 8.35644 71.381 7.80891 71.3809 6.67318C71.3809 5.63885 72.2427 4.69591 73.9058 4.6958Z" fill="white"/>
<path fill-rule="evenodd" clip-rule="evenodd" d="M88.9266 4.68567C90.813 4.68567 91.9898 6.0443 91.9899 7.82908C91.9899 8.05218 91.9899 8.28557 91.9493 8.52895H87.4462C87.6288 9.32998 88.2167 9.80639 89.0279 9.80646C89.7074 9.80646 90.1741 9.53259 90.6102 8.99511L91.8372 9.88753C91.1273 10.7799 90.3262 11.3075 88.9266 11.3075C86.959 11.3075 85.7625 9.82673 85.7625 7.97096C85.7626 6.18625 86.9591 4.68573 88.9266 4.68567ZM88.9772 6.22666C88.1862 6.22671 87.6592 6.64294 87.4766 7.37305H90.3265C90.1743 6.61247 89.6162 6.22666 88.9772 6.22666Z" fill="white"/>
<path d="M35.2743 7.80881C35.2743 8.95468 35.9236 9.64423 37.0391 9.64432C38.1547 9.64432 38.814 8.95475 38.814 7.80881V2.69752H40.4875V7.80881C40.4875 9.88773 39.1588 11.2974 37.0391 11.2974C34.9195 11.2973 33.6014 9.88766 33.6014 7.80881V2.69752H35.2743V7.80881Z" fill="white"/>
<path d="M70.4986 6.19625L68.5507 6.95693V11.1758H66.8474V4.82754H68.5507V5.30384L70.4986 4.55393V6.19625Z" fill="white"/>
<path d="M45.1325 4.6958C47.0392 4.6958 48.0235 5.93288 48.0235 7.57573V11.1657H46.3804V7.57573C46.3804 6.83543 45.8932 6.24692 45.0717 6.24692C44.2708 6.247 43.8854 6.73378 43.7535 6.96706V11.1657H42.08V4.82754H43.7535V5.07076C44.1388 4.81732 44.6255 4.69584 45.1325 4.6958Z" fill="white"/>
<path d="M51.1571 11.1657H49.5343V4.82754H51.1571V11.1657Z" fill="white"/>
<path d="M55.5386 8.97485L57.1007 4.82754H58.8452L56.4514 11.1657H54.7171L52.1409 4.82754H53.8854L55.5386 8.97485Z" fill="white"/>
<path d="M79.5251 11.1657H77.8921V4.82754H79.5251V11.1657Z" fill="white"/>
<path d="M83.4803 4.82754H85.245V6.35903H83.4803V11.1657H81.8574V6.35903H80.5899V4.82754H81.8574V2.90083H83.4803V4.82754Z" fill="white"/>
<path d="M73.5308 6.58198C73.5308 6.59207 73.531 6.60224 73.5612 6.60224C73.5208 6.60224 73.5308 6.60211 73.5308 6.58198Z" fill="white"/>
<path d="M13.0634 5.59835H11.1973V0H13.0634V5.59835Z" fill="white"/>
<path d="M16.8058 5.59835H14.9295V0H16.8058V5.59835Z" fill="white"/>
<path d="M89.7279 3.94526H88.0543L89.1901 1.84627H90.9954L89.7279 3.94526Z" fill="white"/>
<path d="M51.1876 3.62034H49.5039V1.89694H51.1876V3.62034Z" fill="white"/>
<path d="M79.5453 3.62034H77.8718V1.89694H79.5453V3.62034Z" fill="white"/>
</svg>
