<svg width="512" height="512" viewBox="0 0 130 66" fill="none" xmlns="http://www.w3.org/2000/svg">
<path d="M105 1.00004L25 1.00001C16.5992 1.00001 12.3988 1 9.19015 2.63491C6.36771 4.07301 4.073 6.36771 2.6349 9.19015C1 12.3988 1 16.5992 1 25V41C1 49.4008 1 53.6012 2.6349 56.8099C4.073 59.6323 6.36771 61.927 9.19014 63.3651C12.3988 65 16.5992 65 25 65H105C113.401 65 117.601 65 120.81 63.3651C123.632 61.927 125.927 59.6323 127.365 56.8099C129 53.6012 129 49.4008 129 41V25C129 16.5993 129 12.3989 127.365 9.19019C125.927 6.36776 123.632 4.07305 120.81 2.63495C117.601 1.00004 113.401 1.00004 105 1.00004Z" fill="url(#paint0_linear_306_404)"/>
<path d="M105 0.5C109.192 0.500002 112.366 0.499644 114.893 0.706055C117.425 0.912946 119.351 1.33011 121.037 2.18945C123.953 3.67547 126.325 6.04658 127.811 8.96289C128.67 10.6495 129.087 12.5752 129.294 15.1074C129.5 17.6338 129.5 20.8079 129.5 25V41C129.5 45.1921 129.5 48.3662 129.294 50.8926C129.087 53.4248 128.67 55.3505 127.811 57.0371C126.325 59.9534 123.953 62.3245 121.037 63.8105C119.351 64.6699 117.425 65.0871 114.893 65.2939C112.366 65.5004 109.192 65.5 105 65.5H25C20.8079 65.5 17.6338 65.5003 15.1074 65.2939C12.5752 65.0871 10.6495 64.6699 8.96289 63.8105C6.04655 62.3245 3.67546 59.9535 2.18945 57.0371C1.3301 55.3505 0.912944 53.4248 0.706055 50.8926C0.499655 48.3662 0.5 45.1921 0.5 41V25C0.5 20.8079 0.499651 17.6338 0.706055 15.1074C0.912944 12.5752 1.3301 10.6495 2.18945 8.96289C3.67546 6.04656 6.04656 3.67546 8.96289 2.18945C10.6495 1.3301 12.5752 0.912943 15.1074 0.706055C17.6338 0.499652 20.8079 0.499998 25 0.5H105Z" stroke="black" stroke-opacity="0.1"/>
<path d="M22.7498 47.9001H27.8498V53H12.5498V47.9001H17.6498V22.4H12.5498V17.3H22.7498V47.9001ZM43.1697 17.3V27.5H38.0697V17.3H43.1697ZM38.0697 27.5V32.6H32.9697V27.5H38.0697ZM69.9348 40.25V41.5251H52.1868C52.7478 45.7581 56.2668 47.9001 59.7348 47.9001C64.8348 47.9001 67.3848 45.35 67.3848 45.35V50.4501C67.3848 50.4501 64.8348 53 59.7348 53C52.0848 53 46.9848 47.9 46.9848 40.25C46.9848 32.6 52.0848 27.5 58.4598 27.5C64.8348 27.5 69.9348 32.6 69.9348 40.25ZM58.4598 32.6C55.3488 32.6 53.0538 34.2831 52.3398 37.7001H64.5798C63.8658 34.2831 61.5708 32.6 58.4598 32.6ZM87.7848 27.5C92.8848 27.5 96.7098 31.3251 96.7098 37.7001V53H91.6098V40.25C91.6098 35.15 89.0598 32.6 85.2348 32.6C81.4098 32.6 78.8598 35.15 78.8598 40.25V53H73.7598V27.5H78.8598V37.7001C78.8598 31.3251 82.6848 27.5 87.7848 27.5ZM117.11 32.6H109.46V47.9001H117.11V53H112.01C106.91 53 104.36 50.45 104.36 45.35V32.6H99.2598V27.5H104.36V17.3H109.46V27.5H117.11V32.6Z" fill="#003527"/>
<defs>
<linearGradient id="paint0_linear_306_404" x1="65" y1="1" x2="65" y2="65" gradientUnits="userSpaceOnUse">
<stop stop-color="#B7FF00"/>
<stop offset="1" stop-color="#00E1FF"/>
</linearGradient>
</defs>
</svg>
