<svg width="140" height="76" viewBox="0 0 140 76" fill="none" xmlns="http://www.w3.org/2000/svg">
<path d="M110 3C114.151 3 117.444 2.99822 120.096 3.21484C122.783 3.43437 125.074 3.89306 127.172 4.96191C130.559 6.68764 133.312 9.44127 135.038 12.8281C136.107 14.9257 136.566 17.2167 136.785 19.9033C137.002 22.5551 137 25.8491 137 30V46C137 50.1509 137.002 53.4449 136.785 56.0967C136.566 58.7833 136.107 61.0742 135.038 63.1719C133.312 66.5587 130.559 69.3124 127.172 71.0381C125.074 72.1069 122.783 72.5666 120.096 72.7861C117.444 73.0028 114.151 73 110 73H30C25.8491 73 22.5551 73.0028 19.9033 72.7861C17.2167 72.5666 14.9258 72.1069 12.8281 71.0381C9.44124 69.3124 6.68762 66.5588 4.96191 63.1719C3.8931 61.0742 3.4334 58.7833 3.21387 56.0967C2.99721 53.4449 3 50.1509 3 46V30C3 25.8491 2.99721 22.5551 3.21387 19.9033C3.4334 17.2167 3.89311 14.9258 4.96191 12.8281C6.68763 9.44125 9.44125 6.68763 12.8281 4.96191C14.9258 3.89311 17.2167 3.4334 19.9033 3.21387C22.5551 2.99721 25.8491 3 30 3H110Z" stroke="#e4e4e4" stroke-width="6"/>
<path d="M27.7498 52.9001H32.8498V58H17.5498V52.9001H22.6498V27.4H17.5498V22.3H27.7498V52.9001ZM48.1697 22.3V32.5H43.0697V22.3H48.1697ZM43.0697 32.5V37.6H37.9697V32.5H43.0697ZM74.9348 45.25V46.5251H57.1868C57.7478 50.7581 61.2668 52.9001 64.7348 52.9001C69.8348 52.9001 72.3848 50.35 72.3848 50.35V55.4501C72.3848 55.4501 69.8348 58 64.7348 58C57.0848 58 51.9848 52.9 51.9848 45.25C51.9848 37.6 57.0848 32.5 63.4598 32.5C69.8348 32.5 74.9348 37.6 74.9348 45.25ZM63.4598 37.6C60.3488 37.6 58.0538 39.2831 57.3398 42.7001H69.5798C68.8658 39.2831 66.5708 37.6 63.4598 37.6ZM92.7848 32.5C97.8848 32.5 101.71 36.3251 101.71 42.7001V58H96.6098V45.25C96.6098 40.15 94.0598 37.6 90.2348 37.6C86.4098 37.6 83.8598 40.15 83.8598 45.25V58H78.7598V32.5H83.8598V42.7001C83.8598 36.3251 87.6848 32.5 92.7848 32.5ZM122.11 37.6H114.46V52.9001H122.11V58H117.01C111.91 58 109.36 55.45 109.36 50.35V37.6H104.26V32.5H109.36V22.3H114.46V32.5H122.11V37.6Z" fill="#e4e4e4"/>
</svg>
