<svg width="128" height="64" viewBox="0 0 128 64" fill="none" xmlns="http://www.w3.org/2000/svg">
<g clip-path="url(#clip0_221_491)">
<path d="M11.8369 2H116.163C121.596 2.00021 126 6.40423 126 11.8369V52.1631C126 57.5958 121.596 61.9998 116.163 62H11.8369C6.40423 61.9998 2.00021 57.5958 2 52.1631V11.8369C2.00021 6.40423 6.40423 2.00021 11.8369 2Z" stroke="#003527" stroke-width="4"/>
<path d="M21.7498 46.9H26.8498V52H11.5498V46.9H16.6498V21.4H11.5498V16.3H21.7498V46.9ZM42.1697 16.3V26.5H37.0697V16.3H42.1697ZM37.0697 26.5V31.6H31.9697V26.5H37.0697ZM68.9348 39.25V40.525H51.1868C51.7478 44.758 55.2668 46.9 58.7348 46.9C63.8348 46.9 66.3848 44.35 66.3848 44.35V49.45C66.3848 49.45 63.8348 52 58.7348 52C51.0848 52 45.9848 46.9 45.9848 39.25C45.9848 31.6 51.0848 26.5 57.4598 26.5C63.8348 26.5 68.9348 31.6 68.9348 39.25ZM57.4598 31.6C54.3488 31.6 52.0538 33.283 51.3398 36.7H63.5798C62.8658 33.283 60.5708 31.6 57.4598 31.6ZM86.7848 26.5C91.8848 26.5 95.7098 30.325 95.7098 36.7V52H90.6098V39.25C90.6098 34.15 88.0598 31.6 84.2348 31.6C80.4098 31.6 77.8598 34.15 77.8598 39.25V52H72.7598V26.5H77.8598V36.7C77.8598 30.325 81.6848 26.5 86.7848 26.5ZM116.11 31.6H108.46V46.9H116.11V52H111.01C105.91 52 103.36 49.45 103.36 44.35V31.6H98.2598V26.5H103.36V16.3H108.46V26.5H116.11V31.6Z" fill="#003527"/>
</g>
<defs>
<clipPath id="clip0_221_491">
<rect width="128" height="64" fill="white"/>
</clipPath>
</defs>
</svg>
