<svg width="291" height="66" viewBox="0 0 291 66" fill="none" xmlns="http://www.w3.org/2000/svg">
<path d="M105 1.00004L25 1.00001C16.5992 1.00001 12.3988 1 9.19015 2.63491C6.36771 4.07301 4.073 6.36771 2.6349 9.19015C1 12.3988 1 16.5992 1 25V41C1 49.4008 1 53.6012 2.6349 56.8099C4.073 59.6323 6.36771 61.927 9.19014 63.3651C12.3988 65 16.5992 65 25 65H105C113.401 65 117.601 65 120.81 63.3651C123.632 61.927 125.927 59.6323 127.365 56.8099C129 53.6012 129 49.4008 129 41V25C129 16.5993 129 12.3989 127.365 9.19019C125.927 6.36776 123.632 4.07305 120.81 2.63495C117.601 1.00004 113.401 1.00004 105 1.00004Z" fill="url(#paint0_linear_306_411)"/>
<path d="M105 1.00004L25 1.00001C16.5992 1.00001 12.3988 1 9.19015 2.63491C6.36771 4.07301 4.073 6.36771 2.6349 9.19015C1 12.3988 1 16.5992 1 25V41C1 49.4008 1 53.6012 2.6349 56.8099C4.073 59.6323 6.36771 61.927 9.19014 63.3651C12.3988 65 16.5992 65 25 65H105C113.401 65 117.601 65 120.81 63.3651C123.632 61.927 125.927 59.6323 127.365 56.8099C129 53.6012 129 49.4008 129 41V25C129 16.5993 129 12.3989 127.365 9.19019C125.927 6.36776 123.632 4.07305 120.81 2.63495C117.601 1.00004 113.401 1.00004 105 1.00004Z" fill="url(#paint1_linear_306_411)"/>
<path d="M105 0.5C109.192 0.500002 112.366 0.499644 114.893 0.706055C117.425 0.912946 119.351 1.33011 121.037 2.18945C123.953 3.67547 126.325 6.04658 127.811 8.96289C128.67 10.6495 129.087 12.5752 129.294 15.1074C129.5 17.6338 129.5 20.8079 129.5 25V41C129.5 45.1921 129.5 48.3662 129.294 50.8926C129.087 53.4248 128.67 55.3505 127.811 57.0371C126.325 59.9534 123.953 62.3245 121.037 63.8105C119.351 64.6699 117.425 65.0871 114.893 65.2939C112.366 65.5004 109.192 65.5 105 65.5H25C20.8079 65.5 17.6338 65.5003 15.1074 65.2939C12.5752 65.0871 10.6495 64.6699 8.96289 63.8105C6.04655 62.3245 3.67546 59.9535 2.18945 57.0371C1.3301 55.3505 0.912944 53.4248 0.706055 50.8926C0.499655 48.3662 0.5 45.1921 0.5 41V25C0.5 20.8079 0.499651 17.6338 0.706055 15.1074C0.912944 12.5752 1.3301 10.6495 2.18945 8.96289C3.67546 6.04656 6.04656 3.67546 8.96289 2.18945C10.6495 1.3301 12.5752 0.912943 15.1074 0.706055C17.6338 0.499652 20.8079 0.499998 25 0.5H105Z" stroke="black" stroke-opacity="0.1"/>
<path d="M25 1.50006H105C109.209 1.50006 112.335 1.50087 114.812 1.70319C117.282 1.90504 119.061 2.30464 120.583 3.08014C123.311 4.47031 125.53 6.68873 126.92 9.41705C127.695 10.9391 128.095 12.7184 128.297 15.1885C128.499 17.6647 128.5 20.7914 128.5 25.0001V41.0001C128.5 45.2087 128.499 48.3354 128.297 50.8116C128.095 53.2818 127.695 55.061 126.92 56.5831C125.53 59.3114 123.311 61.5298 120.583 62.92C119.061 63.6955 117.282 64.0951 114.812 64.2969C112.335 64.4992 109.209 64.5001 105 64.5001H25C20.7914 64.5001 17.6647 64.4992 15.1885 64.2969C12.7183 64.0951 10.939 63.6955 9.41699 62.92C6.68864 61.5298 4.47024 59.3114 3.08008 56.5831C2.30457 55.061 1.90497 53.2818 1.70312 50.8116C1.50081 48.3354 1.5 45.2087 1.5 41.0001V25.0001C1.5 20.7914 1.50081 17.6647 1.70312 15.1885C1.90497 12.7183 2.30456 10.9391 3.08008 9.41705C4.47024 6.6887 6.68864 4.4703 9.41699 3.08014C10.939 2.30463 12.7183 1.90503 15.1885 1.70319C17.6647 1.50087 20.7914 1.50006 25 1.50006Z" stroke="url(#paint2_linear_306_411)" stroke-opacity="0.8"/>
<path d="M22.7498 47.9001H27.8498V53H12.5498V47.9001H17.6498V22.4H12.5498V17.3H22.7498V47.9001ZM43.1697 17.3V27.5H38.0697V17.3H43.1697ZM38.0697 27.5V32.6H32.9697V27.5H38.0697ZM69.9348 40.25V41.5251H52.1868C52.7478 45.7581 56.2668 47.9001 59.7348 47.9001C64.8348 47.9001 67.3848 45.35 67.3848 45.35V50.4501C67.3848 50.4501 64.8348 53 59.7348 53C52.0848 53 46.9848 47.9 46.9848 40.25C46.9848 32.6 52.0848 27.5 58.4598 27.5C64.8348 27.5 69.9348 32.6 69.9348 40.25ZM58.4598 32.6C55.3488 32.6 53.0538 34.2831 52.3398 37.7001H64.5798C63.8658 34.2831 61.5708 32.6 58.4598 32.6ZM87.7848 27.5C92.8848 27.5 96.7098 31.3251 96.7098 37.7001V53H91.6098V40.25C91.6098 35.15 89.0598 32.6 85.2348 32.6C81.4098 32.6 78.8598 35.15 78.8598 40.25V53H73.7598V27.5H78.8598V37.7001C78.8598 31.3251 82.6848 27.5 87.7848 27.5ZM117.11 32.6H109.46V47.9001H117.11V53H112.01C106.91 53 104.36 50.45 104.36 45.35V32.6H99.2598V27.5H104.36V17.3H109.46V27.5H117.11V32.6Z" fill="#341200"/>
<path d="M169.163 55.0001H166.283V46.2027H169.163V55.0001Z" fill="white"/>
<path d="M174.939 55.0001H172.043V46.2027H174.939V55.0001Z" fill="white"/>
<path d="M170.602 39.2226L158.376 51.6688L156.342 49.5976L168.568 37.1514L170.602 39.2226Z" fill="white"/>
<path d="M184.88 49.5976L182.828 51.6688L170.602 39.2226L172.653 37.1514L184.88 49.5976Z" fill="white"/>
<path fill-rule="evenodd" clip-rule="evenodd" d="M210.772 49.0711H208.142V48.657C207.344 49.1511 206.576 49.295 205.872 49.295C202.851 49.295 200.863 47.1273 200.863 44.0996C200.863 41.024 203.054 38.8883 205.872 38.8882C206.654 38.8882 207.406 39.0642 208.142 39.3829V34.4263H210.772V49.0711ZM206.169 41.3267C204.682 41.3268 203.445 42.3308 203.445 44.0996C203.445 45.8683 204.698 46.8723 206.122 46.8725C207.046 46.8725 207.641 46.5533 208.142 46.0753V41.9637C207.563 41.5812 206.858 41.3267 206.169 41.3267Z" fill="white"/>
<path fill-rule="evenodd" clip-rule="evenodd" d="M217.205 38.8882C220.133 38.8882 221.949 41.0241 221.949 43.8289C221.949 44.1794 221.949 44.5463 221.886 44.9287H214.936C215.218 46.1872 216.11 46.936 217.362 46.9362C218.426 46.9362 219.146 46.5058 219.82 45.6612L221.714 47.0636C220.619 48.45 219.381 49.295 217.205 49.295C214.184 49.2949 212.337 46.968 212.337 44.0518C212.337 41.2472 214.184 38.8884 217.205 38.8882ZM217.283 41.3108C216.078 41.3109 215.249 41.9642 214.983 43.1113H219.382C219.147 41.9162 218.285 41.3108 217.283 41.3108Z" fill="white"/>
<path fill-rule="evenodd" clip-rule="evenodd" d="M242.66 38.8882C245.571 38.8884 247.387 41.0243 247.387 43.8289C247.387 44.1635 247.387 44.5463 247.324 44.9287H240.374C240.656 46.1714 241.564 46.9362 242.816 46.9362C243.865 46.9361 244.584 46.4897 245.257 45.6612L247.152 47.0477C246.056 48.4499 244.82 49.2949 242.66 49.295C239.623 49.295 237.775 46.9521 237.775 44.0518C237.775 41.2311 239.623 38.8882 242.66 38.8882ZM242.738 41.2949C241.517 41.2949 240.687 41.9481 240.421 43.1113H244.819C244.585 41.9164 243.724 41.295 242.738 41.2949Z" fill="white"/>
<path fill-rule="evenodd" clip-rule="evenodd" d="M276.566 38.8882C279.478 38.8882 281.31 41.0241 281.31 43.8289C281.31 44.1794 281.309 44.5463 281.246 44.9287H274.296C274.562 46.1873 275.471 46.9361 276.723 46.9362C277.787 46.9362 278.507 46.5058 279.165 45.6612L281.074 47.0636C279.979 48.4499 278.742 49.295 276.566 49.295C273.529 49.295 271.698 46.968 271.698 44.0518C271.698 41.2471 273.529 38.8883 276.566 38.8882ZM276.644 41.3108C275.439 41.3108 274.609 41.964 274.327 43.1113H278.743C278.508 41.9162 277.646 41.3108 276.644 41.3108Z" fill="white"/>
<path d="M286.819 38.8882C289.011 38.8882 290.483 39.7649 291 41.4859L289.873 41.9478L288.745 42.3628C288.511 41.5979 287.79 41.0241 286.788 41.0241C285.881 41.0243 285.379 41.4381 285.379 41.8681C285.379 42.394 285.756 42.6174 287.196 42.9361L287.368 42.9839C289.935 43.5575 290.889 44.4978 290.89 46.1867C290.89 47.8759 289.45 49.2949 287.055 49.295C284.785 49.295 283.375 48.2431 282.608 46.7451L283.767 46.2663L284.863 45.7886C285.239 46.5376 285.991 47.1273 287.008 47.1273C287.838 47.1272 288.386 46.824 288.386 46.2663C288.385 45.7886 288.15 45.6136 286.647 45.2472L286.397 45.1835C284.143 44.6576 282.922 43.7963 282.922 41.9955C282.922 40.3863 284.268 38.8884 286.819 38.8882Z" fill="white"/>
<path d="M254.009 38.9201C256.936 38.9202 258.47 40.8484 258.47 43.4457V49.087H255.918V43.4457C255.918 42.2667 255.183 41.3428 253.915 41.3426C252.678 41.3426 252.083 42.1077 251.879 42.4902V49.087H249.281V39.1112H251.879V39.4944C252.474 39.096 253.226 38.9201 254.009 38.9201Z" fill="white"/>
<path fill-rule="evenodd" clip-rule="evenodd" d="M232.218 35.7491C234.331 35.7491 236.429 37.4224 236.429 39.9403V39.9562C236.429 41.4382 235.661 42.9684 234.205 43.7333L236.71 49.0711H234.018L231.764 44.1792H230.574V49.0711H227.991V35.7491H232.218ZM230.574 41.677H231.795C233.048 41.677 233.861 41.1194 233.877 39.9562C233.861 38.9204 233.032 38.2354 231.795 38.2353H230.574V41.677Z" fill="white"/>
<path d="M265.436 38.9042C268.379 38.9042 269.897 40.8484 269.897 43.4298V49.0711H267.361V43.4298C267.361 42.2666 266.61 41.3426 265.342 41.3426C264.106 41.3426 263.527 42.1077 263.308 42.4743V49.0711H260.725V39.1112H263.308V39.4944C263.918 39.0961 264.653 38.9042 265.436 38.9042Z" fill="white"/>
<path d="M166.532 35.0802L154.306 47.5254L152.271 45.4542L164.498 33.008L166.532 35.0802Z" fill="white"/>
<path d="M188.95 45.4542L186.914 47.5254L174.689 35.0802L176.724 33.008L188.95 45.4542Z" fill="white"/>
<path d="M286.241 41.8681C286.241 41.8841 286.241 41.9 286.272 41.9C286.225 41.9 286.241 41.9 286.241 41.8681Z" fill="white"/>
<path d="M157.641 37.4062H149V34.4741H157.641V37.4062Z" fill="white"/>
<path d="M192.221 37.4062H183.58V34.4741H192.221V37.4062Z" fill="white"/>
<path d="M166.532 30.9368L164.498 33.008L152.271 20.5619L154.306 18.4907L166.532 30.9368Z" fill="white"/>
<path d="M188.95 20.5619L176.724 33.008L174.689 30.9368L186.914 18.4907L188.95 20.5619Z" fill="white"/>
<path d="M157.641 31.542H149V28.6098H157.641V31.542Z" fill="white"/>
<path d="M192.221 31.542H183.58V28.6098H192.221V31.542Z" fill="white"/>
<path d="M170.602 26.7775L168.568 28.8646L156.342 16.4184L158.376 14.3313L170.602 26.7775Z" fill="white"/>
<path d="M184.88 16.4184L172.653 28.8487L170.602 26.7775L182.828 14.3313L184.88 16.4184Z" fill="white"/>
<path fill-rule="evenodd" clip-rule="evenodd" d="M245.509 18.3633C248.42 18.3634 250.236 20.4983 250.236 23.3029C250.236 23.6376 250.236 24.0202 250.173 24.4027H243.223C243.505 25.6616 244.397 26.4102 245.665 26.4102C246.714 26.4102 247.434 25.9798 248.107 25.1352L250.001 26.5376C248.905 27.924 247.669 28.769 245.509 28.7691C242.472 28.7691 240.624 26.4262 240.624 23.5258C240.624 20.7053 242.472 18.3633 245.509 18.3633ZM245.587 20.7689C244.366 20.7689 243.536 21.423 243.27 22.5863H247.668C247.434 21.3912 246.573 20.769 245.587 20.7689Z" fill="white"/>
<path d="M263.072 18.3792C265.264 18.3792 266.719 19.2558 267.236 20.961L266.125 21.4228L264.982 21.8368C264.748 21.0879 264.027 20.4982 263.025 20.4982C262.133 20.4983 261.616 20.9289 261.616 21.3432C261.616 21.8848 261.993 22.0924 263.433 22.4111L263.621 22.4589C266.172 23.0326 267.142 23.9726 267.142 25.6618C267.142 27.3667 265.687 28.7689 263.308 28.7691C261.038 28.7691 259.612 27.7171 258.861 26.2191L260.004 25.7414L261.116 25.2636C261.476 26.0284 262.228 26.6023 263.245 26.6023C264.09 26.6022 264.638 26.299 264.638 25.7414C264.638 25.2633 264.403 25.0877 262.884 24.7212L262.634 24.6734C260.38 24.1316 259.175 23.2712 259.175 21.4865C259.175 19.8611 260.505 18.3793 263.072 18.3792Z" fill="white"/>
<path fill-rule="evenodd" clip-rule="evenodd" d="M286.256 18.3633C289.168 18.3633 290.984 20.4983 290.984 23.3029C290.984 23.6535 290.984 24.0202 290.922 24.4027H283.971C284.253 25.6615 285.16 26.4101 286.413 26.4102C287.461 26.4102 288.182 25.9798 288.855 25.1352L290.749 26.5376C289.653 27.94 288.416 28.7691 286.256 28.7691C283.219 28.769 281.373 26.4421 281.373 23.5258C281.373 20.7213 283.22 18.3633 286.256 18.3633ZM286.334 20.7848C285.114 20.7849 284.3 21.439 284.018 22.5863H288.417C288.182 21.3911 287.321 20.7848 286.334 20.7848Z" fill="white"/>
<path d="M203.445 23.2711C203.445 25.0717 204.447 26.1553 206.169 26.1554C207.891 26.1554 208.908 25.0718 208.908 23.2711V15.239H211.492V23.2711C211.492 26.5379 209.441 28.7531 206.169 28.7531C202.897 28.753 200.863 26.5378 200.863 23.2711V15.239H203.445V23.2711Z" fill="white"/>
<path d="M257.813 20.737L254.807 21.9324V28.562H252.178V18.5862H254.807V19.3347L257.813 18.1562V20.737Z" fill="white"/>
<path d="M218.661 18.3792C221.604 18.3792 223.123 20.3232 223.123 22.9048V28.5461H220.587V22.9048C220.587 21.7415 219.835 20.8167 218.567 20.8167C217.331 20.8168 216.736 21.5817 216.533 21.9483V28.5461H213.95V18.5862H216.533V18.9684C217.127 18.5701 217.879 18.3792 218.661 18.3792Z" fill="white"/>
<path d="M227.96 28.5461H225.455V18.5862H227.96V28.5461Z" fill="white"/>
<path d="M234.723 25.1034L237.134 18.5862H239.826L236.132 28.5461H233.455L229.478 18.5862H232.171L234.723 25.1034Z" fill="white"/>
<path d="M271.745 28.5461H269.225V18.5862H271.745V28.5461Z" fill="white"/>
<path d="M277.85 18.5862H280.574V20.9928H277.85V28.5461H275.345V20.9928H273.389V18.5862H275.345V15.5585H277.85V18.5862Z" fill="white"/>
<path d="M262.493 21.3432C262.493 21.359 262.493 21.375 262.54 21.375C262.478 21.375 262.493 21.3748 262.493 21.3432Z" fill="white"/>
<path d="M169.163 19.7975H166.283V11.0001H169.163V19.7975Z" fill="white"/>
<path d="M174.939 19.7975H172.043V11.0001H174.939V19.7975Z" fill="white"/>
<path d="M287.493 17.1998H284.91L286.663 13.9013H289.449L287.493 17.1998Z" fill="white"/>
<path d="M228.007 16.6892H225.408V13.981H228.007V16.6892Z" fill="white"/>
<path d="M271.776 16.6892H269.193V13.981H271.776V16.6892Z" fill="white"/>
<defs>
<linearGradient id="paint0_linear_306_411" x1="65" y1="1" x2="65" y2="65" gradientUnits="userSpaceOnUse">
<stop stop-color="#B7FF00"/>
<stop offset="1" stop-color="#00E1FF"/>
</linearGradient>
<linearGradient id="paint1_linear_306_411" x1="65" y1="1" x2="65" y2="65" gradientUnits="userSpaceOnUse">
<stop stop-color="#B7FF00"/>
<stop offset="1" stop-color="#DDFAF2"/>
</linearGradient>
<linearGradient id="paint2_linear_306_411" x1="64.9999" y1="1.00006" x2="64.9999" y2="65.0001" gradientUnits="userSpaceOnUse">
<stop stop-color="white"/>
<stop offset="1" stop-color="white" stop-opacity="0"/>
</linearGradient>
</defs>
</svg>
