<svg width="290" height="64" viewBox="0 0 290 64" fill="none" xmlns="http://www.w3.org/2000/svg">
<g clip-path="url(#clip0_221_465)">
<path d="M116.163 0H11.8373C5.29974 0 0 5.29974 0 11.8373V52.1627C0 58.7003 5.29974 64 11.8373 64H116.163C122.7 64 128 58.7003 128 52.1627V11.8373C128 5.29974 122.7 0 116.163 0Z" fill="url(#paint0_linear_221_465)"/>
<path d="M21.7498 46.9H26.8498V52H11.5498V46.9H16.6498V21.4H11.5498V16.3H21.7498V46.9ZM42.1697 16.3V26.5H37.0697V16.3H42.1697ZM37.0697 26.5V31.6H31.9697V26.5H37.0697ZM68.9348 39.25V40.525H51.1868C51.7478 44.758 55.2668 46.9 58.7348 46.9C63.8348 46.9 66.3848 44.35 66.3848 44.35V49.45C66.3848 49.45 63.8348 52 58.7348 52C51.0848 52 45.9848 46.9 45.9848 39.25C45.9848 31.6 51.0848 26.5 57.4598 26.5C63.8348 26.5 68.9348 31.6 68.9348 39.25ZM57.4598 31.6C54.3488 31.6 52.0538 33.283 51.3398 36.7H63.5798C62.8658 33.283 60.5708 31.6 57.4598 31.6ZM86.7848 26.5C91.8848 26.5 95.7098 30.325 95.7098 36.7V52H90.6098V39.25C90.6098 34.15 88.0598 31.6 84.2348 31.6C80.4098 31.6 77.8598 34.15 77.8598 39.25V52H72.7598V26.5H77.8598V36.7C77.8598 30.325 81.6848 26.5 86.7848 26.5ZM116.11 31.6H108.46V46.9H116.11V52H111.01C105.91 52 103.36 49.45 103.36 44.35V31.6H98.2598V26.5H103.36V16.3H108.46V26.5H116.11V31.6Z" fill="#003527"/>
</g>
<path d="M168.163 54H165.283V45.2026H168.163V54Z" fill="white"/>
<path d="M173.939 54H171.043V45.2026H173.939V54Z" fill="white"/>
<path d="M169.602 38.2226L157.376 50.6687L155.342 48.5975L167.568 36.1514L169.602 38.2226Z" fill="white"/>
<path d="M183.88 48.5975L181.828 50.6687L169.602 38.2226L171.653 36.1514L183.88 48.5975Z" fill="white"/>
<path fill-rule="evenodd" clip-rule="evenodd" d="M209.772 48.071H207.142V47.657C206.344 48.151 205.576 48.295 204.872 48.295C201.851 48.2949 199.863 46.1273 199.863 43.0995C199.863 40.0239 202.054 37.8882 204.872 37.8882C205.654 37.8882 206.406 38.0641 207.142 38.3828V33.4263H209.772V48.071ZM205.169 40.3266C203.682 40.3268 202.445 41.3308 202.445 43.0995C202.445 44.8683 203.698 45.8723 205.122 45.8724C206.046 45.8724 206.641 45.5533 207.142 45.0752V40.9636C206.563 40.5812 205.858 40.3266 205.169 40.3266Z" fill="white"/>
<path fill-rule="evenodd" clip-rule="evenodd" d="M216.205 37.8882C219.133 37.8882 220.949 40.0241 220.949 42.8288C220.949 43.1793 220.949 43.5462 220.886 43.9286H213.936C214.218 45.1871 215.11 45.936 216.362 45.9361C217.426 45.9361 218.147 45.5057 218.82 44.6611L220.714 46.0635C219.619 47.4499 218.381 48.295 216.205 48.295C213.184 48.2948 211.337 45.9679 211.337 43.0518C211.337 40.2471 213.184 37.8883 216.205 37.8882ZM216.283 40.3107C215.078 40.3108 214.249 40.9641 213.983 42.1112H218.382C218.147 40.9161 217.285 40.3107 216.283 40.3107Z" fill="white"/>
<path fill-rule="evenodd" clip-rule="evenodd" d="M241.66 37.8882C244.571 37.8884 246.387 40.0242 246.387 42.8288C246.387 43.1634 246.387 43.5463 246.324 43.9286H239.374C239.656 45.1713 240.564 45.9361 241.816 45.9361C242.865 45.936 243.584 45.4896 244.257 44.6611L246.152 46.0476C245.056 47.4499 243.82 48.2949 241.66 48.295C238.623 48.295 236.775 45.9521 236.775 43.0518C236.775 40.2311 238.623 37.8882 241.66 37.8882ZM241.738 40.2948C240.517 40.2948 239.687 40.948 239.421 42.1112H243.819C243.585 40.9163 242.724 40.2949 241.738 40.2948Z" fill="white"/>
<path fill-rule="evenodd" clip-rule="evenodd" d="M275.566 37.8882C278.478 37.8882 280.31 40.0241 280.31 42.8288C280.31 43.1793 280.309 43.5462 280.246 43.9286H273.296C273.562 45.1873 274.471 45.936 275.723 45.9361C276.787 45.9361 277.507 45.5058 278.165 44.6611L280.074 46.0635C278.979 47.4499 277.742 48.295 275.566 48.295C272.529 48.2949 270.698 45.968 270.698 43.0518C270.698 40.247 272.529 37.8882 275.566 37.8882ZM275.644 40.3107C274.439 40.3108 273.609 40.9639 273.327 42.1112H277.743C277.508 40.9161 276.646 40.3107 275.644 40.3107Z" fill="white"/>
<path d="M285.819 37.8882C288.011 37.8882 289.483 38.7648 290 40.4859L288.873 40.9477L287.745 41.3627C287.511 40.5978 286.79 40.0241 285.788 40.0241C284.881 40.0242 284.379 40.438 284.379 40.8681C284.379 41.394 284.756 41.6173 286.196 41.936L286.368 41.9838C288.935 42.5575 289.889 43.4977 289.89 45.1867C289.89 46.8758 288.45 48.2948 286.055 48.295C283.785 48.295 282.375 47.243 281.608 45.745L282.767 45.2663L283.863 44.7885C284.239 45.5375 284.991 46.1272 286.008 46.1272C286.838 46.1271 287.386 45.824 287.386 45.2663C287.385 44.7886 287.15 44.6135 285.647 44.2471L285.397 44.1834C283.143 43.6575 281.922 42.7962 281.922 40.9955C281.922 39.3862 283.268 37.8884 285.819 37.8882Z" fill="white"/>
<path d="M253.009 37.92C255.936 37.9201 257.47 39.8483 257.47 42.4456V48.087H254.918V42.4456C254.918 41.2667 254.183 40.3427 252.915 40.3426C251.678 40.3426 251.083 41.1077 250.879 41.4901V48.087H248.281V38.1111H250.879V38.4943C251.474 38.0959 252.226 37.92 253.009 37.92Z" fill="white"/>
<path fill-rule="evenodd" clip-rule="evenodd" d="M231.218 34.749C233.331 34.749 235.429 36.4223 235.429 38.9402V38.9561C235.429 40.4382 234.661 41.9683 233.205 42.7333L235.71 48.071H233.018L230.764 43.1792H229.574V48.071H226.991V34.749H231.218ZM229.574 40.677H230.795C232.048 40.6769 232.861 40.1194 232.877 38.9561C232.861 37.9203 232.032 37.2353 230.795 37.2353H229.574V40.677Z" fill="white"/>
<path d="M264.436 37.9041C267.379 37.9041 268.897 39.8483 268.897 42.4297V48.071H266.361V42.4297C266.361 41.2666 265.61 40.3426 264.342 40.3426C263.106 40.3426 262.527 41.1077 262.308 41.4742V48.071H259.725V38.1111H262.308V38.4943C262.918 38.096 263.653 37.9041 264.436 37.9041Z" fill="white"/>
<path d="M165.532 34.0802L153.306 46.5253L151.271 44.4541L163.498 32.008L165.532 34.0802Z" fill="white"/>
<path d="M187.95 44.4541L185.914 46.5253L173.689 34.0802L175.724 32.008L187.95 44.4541Z" fill="white"/>
<path d="M285.241 40.8681C285.241 40.884 285.241 40.8999 285.272 40.8999C285.225 40.8999 285.241 40.8999 285.241 40.8681Z" fill="white"/>
<path d="M156.641 36.4062H148V33.474H156.641V36.4062Z" fill="white"/>
<path d="M191.221 36.4062H182.58V33.474H191.221V36.4062Z" fill="white"/>
<path d="M165.532 29.9368L163.498 32.008L151.271 19.5618L153.306 17.4906L165.532 29.9368Z" fill="white"/>
<path d="M187.95 19.5618L175.724 32.008L173.689 29.9368L185.914 17.4906L187.95 19.5618Z" fill="white"/>
<path d="M156.641 30.5419H148V27.6098H156.641V30.5419Z" fill="white"/>
<path d="M191.221 30.5419H182.58V27.6098H191.221V30.5419Z" fill="white"/>
<path d="M169.602 25.7774L167.568 27.8646L155.342 15.4184L157.376 13.3313L169.602 25.7774Z" fill="white"/>
<path d="M183.88 15.4184L171.653 27.8486L169.602 25.7774L181.828 13.3313L183.88 15.4184Z" fill="white"/>
<path fill-rule="evenodd" clip-rule="evenodd" d="M244.509 17.3632C247.42 17.3633 249.236 19.4983 249.236 22.3028C249.236 22.6375 249.236 23.0202 249.173 23.4026H242.223C242.505 24.6616 243.397 25.4102 244.665 25.4102C245.714 25.4101 246.434 24.9798 247.107 24.1352L249.001 25.5375C247.905 26.9239 246.669 27.7689 244.509 27.769C241.472 27.769 239.624 25.4261 239.624 22.5258C239.624 19.7053 241.472 17.3632 244.509 17.3632ZM244.587 19.7688C243.366 19.7688 242.536 20.4229 242.27 21.5862H246.668C246.434 20.3911 245.573 19.7689 244.587 19.7688Z" fill="white"/>
<path d="M262.072 17.3791C264.264 17.3791 265.719 18.2558 266.236 19.9609L265.125 20.4227L263.982 20.8368C263.748 20.0878 263.027 19.4981 262.025 19.4981C261.133 19.4982 260.616 19.9288 260.616 20.3431C260.616 20.8848 260.993 21.0924 262.433 21.4111L262.621 21.4588C265.172 22.0325 266.142 22.9725 266.142 24.6617C266.142 26.3667 264.687 27.7688 262.308 27.769C260.038 27.769 258.612 26.717 257.861 25.2191L259.004 24.7413L260.116 24.2636C260.476 25.0283 261.228 25.6022 262.245 25.6022C263.09 25.6021 263.638 25.2989 263.638 24.7413C263.638 24.2632 263.403 24.0877 261.884 23.7211L261.634 23.6734C259.38 23.1315 258.175 22.2711 258.175 20.4864C258.175 18.861 259.505 17.3793 262.072 17.3791Z" fill="white"/>
<path fill-rule="evenodd" clip-rule="evenodd" d="M285.256 17.3632C288.168 17.3632 289.984 19.4982 289.984 22.3028C289.984 22.6534 289.984 23.0202 289.922 23.4026H282.971C283.253 24.6614 284.16 25.41 285.413 25.4102C286.461 25.4102 287.182 24.9798 287.855 24.1352L289.749 25.5375C288.653 26.9399 287.416 27.769 285.256 27.769C282.219 27.7689 280.373 25.442 280.373 22.5258C280.373 19.7213 282.22 17.3633 285.256 17.3632ZM285.334 19.7847C284.114 19.7848 283.3 20.4389 283.018 21.5862H287.417C287.182 20.391 286.321 19.7847 285.334 19.7847Z" fill="white"/>
<path d="M202.445 22.271C202.445 24.0716 203.447 25.1552 205.169 25.1554C206.891 25.1554 207.908 24.0718 207.908 22.271V14.239H210.492V22.271C210.492 25.5379 208.441 27.7531 205.169 27.7531C201.897 27.7529 199.863 25.5378 199.863 22.271V14.239H202.445V22.271Z" fill="white"/>
<path d="M256.813 19.737L253.807 20.9323V27.562H251.178V17.5861H253.807V18.3346L256.813 17.1562V19.737Z" fill="white"/>
<path d="M217.661 17.3791C220.604 17.3791 222.123 19.3231 222.123 21.9047V27.5461H219.587V21.9047C219.587 20.7414 218.835 19.8166 217.567 19.8166C216.331 19.8167 215.736 20.5817 215.533 20.9482V27.5461H212.95V17.5861H215.533V17.9683C216.127 17.5701 216.879 17.3792 217.661 17.3791Z" fill="white"/>
<path d="M226.96 27.5461H224.455V17.5861H226.96V27.5461Z" fill="white"/>
<path d="M233.723 24.1033L236.134 17.5861H238.826L235.132 27.5461H232.455L228.478 17.5861H231.171L233.723 24.1033Z" fill="white"/>
<path d="M270.745 27.5461H268.225V17.5861H270.745V27.5461Z" fill="white"/>
<path d="M276.85 17.5861H279.574V19.9928H276.85V27.5461H274.345V19.9928H272.389V17.5861H274.345V14.5585H276.85V17.5861Z" fill="white"/>
<path d="M261.493 20.3431C261.493 20.359 261.493 20.3749 261.54 20.375C261.478 20.375 261.493 20.3747 261.493 20.3431Z" fill="white"/>
<path d="M168.163 18.7974H165.283V10H168.163V18.7974Z" fill="white"/>
<path d="M173.939 18.7974H171.043V10H173.939V18.7974Z" fill="white"/>
<path d="M286.493 16.1997H283.91L285.663 12.9013H288.449L286.493 16.1997Z" fill="white"/>
<path d="M227.007 15.6891H224.408V12.9809H227.007V15.6891Z" fill="white"/>
<path d="M270.776 15.6891H268.193V12.9809H270.776V15.6891Z" fill="white"/>
<defs>
<linearGradient id="paint0_linear_221_465" x1="64" y1="0" x2="64" y2="64" gradientUnits="userSpaceOnUse">
<stop stop-color="#B7FF00"/>
<stop offset="1" stop-color="#00E1FF"/>
</linearGradient>
<clipPath id="clip0_221_465">
<rect width="128" height="64" fill="white"/>
</clipPath>
</defs>
</svg>
