<svg width="291" height="66" viewBox="0 0 291 66" fill="none" xmlns="http://www.w3.org/2000/svg">
<path d="M105 1.00004L25 1.00001C16.5992 1.00001 12.3988 1 9.19015 2.63491C6.36771 4.07301 4.073 6.36771 2.6349 9.19015C1 12.3988 1 16.5992 1 25V41C1 49.4008 1 53.6012 2.6349 56.8099C4.073 59.6323 6.36771 61.927 9.19014 63.3651C12.3988 65 16.5992 65 25 65H105C113.401 65 117.601 65 120.81 63.3651C123.632 61.927 125.927 59.6323 127.365 56.8099C129 53.6012 129 49.4008 129 41V25C129 16.5993 129 12.3989 127.365 9.19019C125.927 6.36776 123.632 4.07305 120.81 2.63495C117.601 1.00004 113.401 1.00004 105 1.00004Z" fill="url(#paint0_linear_306_404)"/>
<path d="M105 0.5C109.192 0.500002 112.366 0.499644 114.893 0.706055C117.425 0.912946 119.351 1.33011 121.037 2.18945C123.953 3.67547 126.325 6.04658 127.811 8.96289C128.67 10.6495 129.087 12.5752 129.294 15.1074C129.5 17.6338 129.5 20.8079 129.5 25V41C129.5 45.1921 129.5 48.3662 129.294 50.8926C129.087 53.4248 128.67 55.3505 127.811 57.0371C126.325 59.9534 123.953 62.3245 121.037 63.8105C119.351 64.6699 117.425 65.0871 114.893 65.2939C112.366 65.5004 109.192 65.5 105 65.5H25C20.8079 65.5 17.6338 65.5003 15.1074 65.2939C12.5752 65.0871 10.6495 64.6699 8.96289 63.8105C6.04655 62.3245 3.67546 59.9535 2.18945 57.0371C1.3301 55.3505 0.912944 53.4248 0.706055 50.8926C0.499655 48.3662 0.5 45.1921 0.5 41V25C0.5 20.8079 0.499651 17.6338 0.706055 15.1074C0.912944 12.5752 1.3301 10.6495 2.18945 8.96289C3.67546 6.04656 6.04656 3.67546 8.96289 2.18945C10.6495 1.3301 12.5752 0.912943 15.1074 0.706055C17.6338 0.499652 20.8079 0.499998 25 0.5H105Z" stroke="black" stroke-opacity="0.1"/>
<path d="M25 1.5H105C109.209 1.5 112.335 1.50081 114.812 1.70312C117.282 1.90497 119.061 2.30457 120.583 3.08008C123.311 4.47025 125.53 6.68867 126.92 9.41699C127.695 10.939 128.095 12.7183 128.297 15.1885C128.499 17.6647 128.5 20.7914 128.5 25V41C128.5 45.2086 128.499 48.3353 128.297 50.8115C128.095 53.2817 127.695 55.061 126.92 56.583C125.53 59.3113 123.311 61.5298 120.583 62.9199C119.061 63.6954 117.282 64.095 114.812 64.2969C112.335 64.4992 109.209 64.5 105 64.5H25C20.7914 64.5 17.6647 64.4992 15.1885 64.2969C12.7183 64.095 10.939 63.6954 9.41699 62.9199C6.68864 61.5298 4.47024 59.3114 3.08008 56.583C2.30457 55.061 1.90497 53.2817 1.70312 50.8115C1.50081 48.3353 1.5 45.2086 1.5 41V25C1.5 20.7914 1.50081 17.6647 1.70312 15.1885C1.90497 12.7183 2.30456 10.939 3.08008 9.41699C4.47024 6.68864 6.68864 4.47024 9.41699 3.08008C10.939 2.30456 12.7183 1.90497 15.1885 1.70312C17.6647 1.50081 20.7914 1.5 25 1.5Z" stroke="url(#paint1_linear_306_404)" stroke-opacity="0.8"/>
<path d="M22.7498 47.9001H27.8498V53H12.5498V47.9001H17.6498V22.4H12.5498V17.3H22.7498V47.9001ZM43.1697 17.3V27.5H38.0697V17.3H43.1697ZM38.0697 27.5V32.6H32.9697V27.5H38.0697ZM69.9348 40.25V41.5251H52.1868C52.7478 45.7581 56.2668 47.9001 59.7348 47.9001C64.8348 47.9001 67.3848 45.35 67.3848 45.35V50.4501C67.3848 50.4501 64.8348 53 59.7348 53C52.0848 53 46.9848 47.9 46.9848 40.25C46.9848 32.6 52.0848 27.5 58.4598 27.5C64.8348 27.5 69.9348 32.6 69.9348 40.25ZM58.4598 32.6C55.3488 32.6 53.0538 34.2831 52.3398 37.7001H64.5798C63.8658 34.2831 61.5708 32.6 58.4598 32.6ZM87.7848 27.5C92.8848 27.5 96.7098 31.3251 96.7098 37.7001V53H91.6098V40.25C91.6098 35.15 89.0598 32.6 85.2348 32.6C81.4098 32.6 78.8598 35.15 78.8598 40.25V53H73.7598V27.5H78.8598V37.7001C78.8598 31.3251 82.6848 27.5 87.7848 27.5ZM117.11 32.6H109.46V47.9001H117.11V53H112.01C106.91 53 104.36 50.45 104.36 45.35V32.6H99.2598V27.5H104.36V17.3H109.46V27.5H117.11V32.6Z" fill="#341200"/>
<path d="M169.163 55H166.283V46.2026H169.163V55Z" fill="black"/>
<path d="M174.939 55H172.043V46.2026H174.939V55Z" fill="black"/>
<path d="M170.602 39.2226L158.376 51.6687L156.342 49.5975L168.568 37.1514L170.602 39.2226Z" fill="black"/>
<path d="M184.88 49.5975L182.828 51.6687L170.602 39.2226L172.653 37.1514L184.88 49.5975Z" fill="black"/>
<path fill-rule="evenodd" clip-rule="evenodd" d="M210.772 49.071H208.142V48.657C207.344 49.151 206.576 49.295 205.872 49.295C202.851 49.2949 200.863 47.1273 200.863 44.0995C200.863 41.0239 203.054 38.8882 205.872 38.8882C206.654 38.8882 207.406 39.0641 208.142 39.3828V34.4263H210.772V49.071ZM206.169 41.3266C204.682 41.3268 203.445 42.3308 203.445 44.0995C203.445 45.8683 204.698 46.8723 206.122 46.8724C207.046 46.8724 207.641 46.5533 208.142 46.0752V41.9636C207.563 41.5812 206.858 41.3266 206.169 41.3266Z" fill="black"/>
<path fill-rule="evenodd" clip-rule="evenodd" d="M217.205 38.8882C220.133 38.8882 221.949 41.0241 221.949 43.8288C221.949 44.1793 221.949 44.5462 221.886 44.9286H214.936C215.218 46.1871 216.11 46.936 217.362 46.9361C218.426 46.9361 219.146 46.5057 219.82 45.6611L221.714 47.0635C220.619 48.4499 219.381 49.295 217.205 49.295C214.184 49.2948 212.337 46.9679 212.337 44.0518C212.337 41.2471 214.184 38.8883 217.205 38.8882ZM217.283 41.3107C216.078 41.3108 215.249 41.9641 214.983 43.1112H219.382C219.147 41.9161 218.285 41.3107 217.283 41.3107Z" fill="black"/>
<path fill-rule="evenodd" clip-rule="evenodd" d="M242.66 38.8882C245.571 38.8884 247.387 41.0242 247.387 43.8288C247.387 44.1634 247.387 44.5463 247.324 44.9286H240.374C240.656 46.1713 241.564 46.9361 242.816 46.9361C243.865 46.936 244.584 46.4896 245.257 45.6611L247.152 47.0476C246.056 48.4499 244.82 49.2949 242.66 49.295C239.623 49.295 237.775 46.9521 237.775 44.0518C237.775 41.2311 239.623 38.8882 242.66 38.8882ZM242.738 41.2948C241.517 41.2948 240.687 41.948 240.421 43.1112H244.819C244.585 41.9163 243.724 41.2949 242.738 41.2948Z" fill="black"/>
<path fill-rule="evenodd" clip-rule="evenodd" d="M276.566 38.8882C279.478 38.8882 281.31 41.0241 281.31 43.8288C281.31 44.1793 281.309 44.5462 281.246 44.9286H274.296C274.562 46.1873 275.471 46.936 276.723 46.9361C277.787 46.9361 278.507 46.5058 279.165 45.6611L281.074 47.0635C279.979 48.4499 278.742 49.295 276.566 49.295C273.529 49.2949 271.698 46.968 271.698 44.0518C271.698 41.247 273.529 38.8882 276.566 38.8882ZM276.644 41.3107C275.439 41.3108 274.609 41.9639 274.327 43.1112H278.743C278.508 41.9161 277.646 41.3107 276.644 41.3107Z" fill="black"/>
<path d="M286.819 38.8882C289.011 38.8882 290.483 39.7648 291 41.4859L289.873 41.9477L288.745 42.3627C288.511 41.5978 287.79 41.0241 286.788 41.0241C285.881 41.0242 285.379 41.438 285.379 41.8681C285.379 42.394 285.756 42.6173 287.196 42.936L287.368 42.9838C289.935 43.5575 290.889 44.4977 290.89 46.1867C290.89 47.8758 289.45 49.2948 287.055 49.295C284.785 49.295 283.375 48.243 282.608 46.745L283.767 46.2663L284.863 45.7885C285.239 46.5375 285.991 47.1272 287.008 47.1272C287.838 47.1271 288.386 46.824 288.386 46.2663C288.385 45.7886 288.15 45.6135 286.647 45.2471L286.397 45.1834C284.143 44.6575 282.922 43.7962 282.922 41.9955C282.922 40.3862 284.268 38.8884 286.819 38.8882Z" fill="black"/>
<path d="M254.009 38.92C256.936 38.9201 258.47 40.8483 258.47 43.4456V49.087H255.918V43.4456C255.918 42.2667 255.183 41.3427 253.915 41.3426C252.678 41.3426 252.083 42.1077 251.879 42.4901V49.087H249.281V39.1111H251.879V39.4943C252.474 39.0959 253.226 38.92 254.009 38.92Z" fill="black"/>
<path fill-rule="evenodd" clip-rule="evenodd" d="M232.218 35.749C234.331 35.749 236.429 37.4223 236.429 39.9402V39.9561C236.429 41.4382 235.661 42.9683 234.205 43.7333L236.71 49.071H234.018L231.764 44.1792H230.574V49.071H227.991V35.749H232.218ZM230.574 41.677H231.795C233.048 41.6769 233.861 41.1194 233.877 39.9561C233.861 38.9203 233.032 38.2353 231.795 38.2353H230.574V41.677Z" fill="black"/>
<path d="M265.436 38.9041C268.379 38.9041 269.897 40.8483 269.897 43.4297V49.071H267.361V43.4297C267.361 42.2666 266.61 41.3426 265.342 41.3426C264.106 41.3426 263.527 42.1077 263.308 42.4742V49.071H260.725V39.1111H263.308V39.4943C263.918 39.096 264.653 38.9041 265.436 38.9041Z" fill="black"/>
<path d="M166.532 35.0802L154.306 47.5253L152.271 45.4541L164.498 33.008L166.532 35.0802Z" fill="black"/>
<path d="M188.95 45.4541L186.914 47.5253L174.689 35.0802L176.724 33.008L188.95 45.4541Z" fill="black"/>
<path d="M286.241 41.8681C286.241 41.884 286.241 41.8999 286.272 41.8999C286.225 41.8999 286.241 41.8999 286.241 41.8681Z" fill="black"/>
<path d="M157.641 37.4062H149V34.474H157.641V37.4062Z" fill="black"/>
<path d="M192.221 37.4062H183.58V34.474H192.221V37.4062Z" fill="black"/>
<path d="M166.532 30.9368L164.498 33.008L152.271 20.5618L154.306 18.4906L166.532 30.9368Z" fill="black"/>
<path d="M188.95 20.5618L176.724 33.008L174.689 30.9368L186.914 18.4906L188.95 20.5618Z" fill="black"/>
<path d="M157.641 31.5419H149V28.6098H157.641V31.5419Z" fill="black"/>
<path d="M192.221 31.5419H183.58V28.6098H192.221V31.5419Z" fill="black"/>
<path d="M170.602 26.7774L168.568 28.8645L156.342 16.4184L158.376 14.3313L170.602 26.7774Z" fill="black"/>
<path d="M184.88 16.4184L172.653 28.8486L170.602 26.7774L182.828 14.3313L184.88 16.4184Z" fill="black"/>
<path fill-rule="evenodd" clip-rule="evenodd" d="M245.509 18.3632C248.42 18.3633 250.236 20.4983 250.236 23.3028C250.236 23.6375 250.236 24.0202 250.173 24.4026H243.223C243.505 25.6616 244.397 26.4102 245.665 26.4102C246.714 26.4101 247.434 25.9798 248.107 25.1352L250.001 26.5375C248.905 27.9239 247.669 28.7689 245.509 28.769C242.472 28.769 240.624 26.4261 240.624 23.5258C240.624 20.7053 242.472 18.3632 245.509 18.3632ZM245.587 20.7688C244.366 20.7688 243.536 21.4229 243.27 22.5862H247.668C247.434 21.3911 246.573 20.7689 245.587 20.7688Z" fill="black"/>
<path d="M263.072 18.3791C265.264 18.3791 266.719 19.2558 267.236 20.9609L266.125 21.4227L264.982 21.8368C264.748 21.0878 264.027 20.4981 263.025 20.4981C262.133 20.4982 261.616 20.9288 261.616 21.3431C261.616 21.8848 261.993 22.0924 263.433 22.4111L263.621 22.4588C266.172 23.0325 267.142 23.9725 267.142 25.6617C267.142 27.3667 265.687 28.7688 263.308 28.769C261.038 28.769 259.612 27.717 258.861 26.2191L260.004 25.7413L261.116 25.2636C261.476 26.0283 262.228 26.6022 263.245 26.6022C264.09 26.6021 264.638 26.2989 264.638 25.7413C264.638 25.2632 264.403 25.0877 262.884 24.7211L262.634 24.6734C260.38 24.1315 259.175 23.2711 259.175 21.4864C259.175 19.861 260.505 18.3793 263.072 18.3791Z" fill="black"/>
<path fill-rule="evenodd" clip-rule="evenodd" d="M286.256 18.3632C289.168 18.3632 290.984 20.4982 290.984 23.3028C290.984 23.6534 290.984 24.0202 290.922 24.4026H283.971C284.253 25.6614 285.16 26.41 286.413 26.4102C287.461 26.4102 288.182 25.9798 288.855 25.1352L290.749 26.5375C289.653 27.9399 288.416 28.769 286.256 28.769C283.219 28.7689 281.373 26.442 281.373 23.5258C281.373 20.7213 283.22 18.3633 286.256 18.3632ZM286.334 20.7847C285.114 20.7848 284.3 21.4389 284.018 22.5862H288.417C288.182 21.391 287.321 20.7847 286.334 20.7847Z" fill="black"/>
<path d="M203.445 23.271C203.445 25.0716 204.447 26.1552 206.169 26.1554C207.891 26.1554 208.908 25.0718 208.908 23.271V15.239H211.492V23.271C211.492 26.5379 209.441 28.7531 206.169 28.7531C202.897 28.7529 200.863 26.5378 200.863 23.271V15.239H203.445V23.271Z" fill="black"/>
<path d="M257.813 20.737L254.807 21.9323V28.562H252.178V18.5861H254.807V19.3346L257.813 18.1562V20.737Z" fill="black"/>
<path d="M218.661 18.3791C221.604 18.3791 223.123 20.3231 223.123 22.9047V28.5461H220.587V22.9047C220.587 21.7414 219.835 20.8166 218.567 20.8166C217.331 20.8167 216.736 21.5817 216.533 21.9482V28.5461H213.95V18.5861H216.533V18.9683C217.127 18.5701 217.879 18.3792 218.661 18.3791Z" fill="black"/>
<path d="M227.96 28.5461H225.455V18.5861H227.96V28.5461Z" fill="black"/>
<path d="M234.723 25.1033L237.134 18.5861H239.826L236.132 28.5461H233.455L229.478 18.5861H232.171L234.723 25.1033Z" fill="black"/>
<path d="M271.745 28.5461H269.225V18.5861H271.745V28.5461Z" fill="black"/>
<path d="M277.85 18.5861H280.574V20.9928H277.85V28.5461H275.345V20.9928H273.389V18.5861H275.345V15.5585H277.85V18.5861Z" fill="black"/>
<path d="M262.493 21.3431C262.493 21.359 262.493 21.3749 262.54 21.375C262.478 21.375 262.493 21.3747 262.493 21.3431Z" fill="black"/>
<path d="M169.163 19.7974H166.283V11H169.163V19.7974Z" fill="black"/>
<path d="M174.939 19.7974H172.043V11H174.939V19.7974Z" fill="black"/>
<path d="M287.493 17.1997H284.91L286.663 13.9013H289.449L287.493 17.1997Z" fill="black"/>
<path d="M228.007 16.6891H225.408V13.9809H228.007V16.6891Z" fill="black"/>
<path d="M271.776 16.6891H269.193V13.9809H271.776V16.6891Z" fill="black"/>
<defs>
<linearGradient id="paint0_linear_306_404" x1="65" y1="1" x2="65" y2="65" gradientUnits="userSpaceOnUse">
<stop stop-color="#B7FF00"/>
<stop offset="1" stop-color="#DDFAF2"/>
</linearGradient>
<linearGradient id="paint1_linear_306_404" x1="64.9999" y1="1" x2="64.9999" y2="65" gradientUnits="userSpaceOnUse">
<stop stop-color="white"/>
<stop offset="1" stop-color="white" stop-opacity="0"/>
</linearGradient>
</defs>
</svg>
